<svg height="49" viewBox="0 0 61 49" width="61" xmlns="http://www.w3.org/2000/svg"><g id="Page-1" fill="none" fill-rule="evenodd"><g id="002---Cloud" fill-rule="nonzero" transform="translate(-1)"><path id="Shape" d="m52.44 35.89c1.0229535 2.7602694.6292449 5.8465305-1.0539151 8.261586-1.6831601 2.4150555-4.4423623 3.8526984-7.3860849 3.848414h-29c-7.17970175 0-13-5.8202983-13-13s5.82029825-13 13-13c.16 0 .32 0 .48.01-.3230626-1.3120665-.4842619-2.6587526-.48-4.01.0000002-9.38884061 7.6111594-16.99999964 17-16.99999964s16.9999998 7.61115903 17 16.99999964c.0016609.0734753-.0016802.1469784-.01.22.6602928-.1444646 1.3340907-.2182136 2.01-.22 4.7050005-.0196992 8.6311702 3.5879559 9.0086671 8.2778295.3774968 4.6898736-2.9210902 8.879063-7.5686671 9.6121705z" fill="#f5f5f5"/><path id="Shape" d="m46 18c.0016609.0734753-.0016802.1469784-.01.22.6602928-.1444646 1.3340907-.2182136 2.01-.22.3341448.0009792.6679826.0203418 1 .058 0-.019 0-.039 0-.058 0-9.38884075-7.6111593-17-17-17-.506 0-1 .032-1.5.076 8.7712615.77315577 15.4987719 8.11872906 15.5 16.924z" fill="#cfd8dc"/><path id="Shape" d="m60 27c0-4.9705627-4.0294373-9-9-9-.5028711.0043722-1.0045427.0498571-1.5.136 4.3358556.7392012 7.502266 4.5040145 7.4874015 8.9024052-.0148644 4.3983907-3.2066487 8.1417163-7.5474015 8.8515948 1.0229535 2.7602694.6292449 5.8465305-1.0539151 8.261586-1.6831601 2.4150555-4.4423623 3.8526984-7.3860849 3.8484235l3-.0000095c2.9437226.0042844 5.7029248-1.4333585 7.3860849-3.848414 1.68316-2.4150555 2.0768686-5.5013166 1.0539151-8.261586 4.360078-.7067161 7.5629184-4.4730192 7.56-8.89z" fill="#cfd8dc"/><circle id="Oval" cx="25" cy="14" fill="#02a9f4" r="2"/><circle id="Oval" cx="39" cy="14" fill="#02a9f4" r="2"/><path id="Shape" d="m15 45h-2c-.5522847 0-1-.4477153-1-1s.4477153-1 1-1h2c.5522847 0 1 .4477153 1 1s-.4477153 1-1 1z" fill="#cfd8dc"/><path id="Shape" d="m45 45h-26c-.5522847 0-1-.4477153-1-1s.4477153-1 1-1h26c.5522847 0 1 .4477153 1 1s-.4477153 1-1 1z" fill="#cfd8dc"/><g fill="#000"><path id="Shape" d="m49.976 17.053c-.3672522-6.6591796-4.3863892-12.56948923-10.4443548-15.35886199s-13.1616962-2.00055542-18.4601528 2.04986498c-5.2984566 4.05042039-7.9230796 10.69847091-6.8204924 17.27599701-7.57559372.4053667-13.44993239 6.7709188-13.24692301 14.3546335.20300938 7.5837148 6.40949156 13.6258739 13.99592301 13.6253665h29c3.0671045-.0036702 5.9631388-1.4136693 7.8576844-3.8256893s2.5783421-5.5596436 1.8553156-8.5403107c5.0209247-1.3873652 8.1358697-6.3967244 7.1593515-11.5134498-.9765182-5.1167255-5.7173855-8.6268165-10.8963515-8.0675502zm2.714 17.765c-1.4021726.2999777-2.8588746.2219832-4.221-.226-.3394023-.1128959-.7132523-.0361471-.9807242.201336-.2674719.237483-.3879304.599621-.316.95.0719305.350379.3253219.6357681.6647242.748664 1.0201498.3383461 2.088207.5098836 3.163.508.244 0 .487-.022.73-.04.6325516 2.3985864.1166462 4.9549118-1.396649 6.9204336-1.5132951 1.9655218-3.8527593 3.1178523-6.333351 3.1195664h-29c-4.8541597-.003811-9.22792486-2.9316822-11.08137961-7.4180601-1.85345476-4.4863778-.82149612-9.6475127 2.61457234-13.0762609 3.43606847-3.4287483 8.59939237-4.4496975 13.08180727-2.586679.3317921.1494039.7185526.1067881 1.009855-.1112725.2913025-.2180606.4411641-.5771446.3912977-.93759-.0498663-.3604453-.2915891-.665355-.6311527-.7961375-1.295423-.540322-2.6653615-.8808678-4.063-1.01-1.1613607-5.9064023 1.0953304-11.96425727 5.837922-15.67130074 4.7425916-3.70704346 11.1661178-4.43407426 16.6172696-1.88078424 5.4511519 2.55329001 9.0046987 7.95352768 9.1928084 13.97008498-.4852498.1495193-.9583061.3360674-1.415.558-.4813709.2525014-.6728847.8432802-.4312048 1.3301742.24168.486894.828031.6915635 1.3202048.4608258.8790531-.4270683 1.8272361-.6939141 2.8-.788 4.1930209-.3626632 7.9500223 2.5854706 8.5948944 6.7444475.6448721 4.1589768-2.0429335 8.1064132-6.1488944 9.0305525z"/><path id="Shape" d="m43.223 20.714c-.4533615.5598819-.8449631 1.1670655-1.168 1.811-.2485281.4937426-.0497426 1.0954719.444 1.344s1.0954719.0497426 1.344-.444c.2581687-.5155803.5713215-1.0017384.934-1.45.2355715-.2765094.3026729-.6590182.175284-.9991997s-.4292318-.5845305-.7884821-.638295-.7194035.0915118-.9408019.3794947z"/><path id="Shape" d="m24.692 24.9c-.2579458-.2472278-.6281919-.3380633-.9712703-.2382896-.3430785.0997737-.6068674.3749985-.692.722-.0851327.3470015.0213245.7130618.2792703.9602896.3790686.361833.7341543.7479846 1.063 1.156.2214418.2845872.5789485.4279157.9356533.3751141.3567048-.0528015.6573575-.2935548.7868569-.6300904.1294995-.3365356.0677875-.7167274-.1615102-.9950237-.3835839-.4764454-.797794-.9274-1.24-1.35z"/><path id="Shape" d="m25 11c-1.6568542 0-3 1.3431458-3 3s1.3431458 3 3 3 3-1.3431458 3-3-1.3431458-3-3-3zm0 4c-.5522847 0-1-.4477153-1-1s.4477153-1 1-1 1 .4477153 1 1-.4477153 1-1 1z"/><path id="Shape" d="m39 11c-1.6568542 0-3 1.3431458-3 3s1.3431458 3 3 3 3-1.3431458 3-3-1.3431458-3-3-3zm0 4c-.5522847 0-1-.4477153-1-1s.4477153-1 1-1 1 .4477153 1 1-.4477153 1-1 1z"/><path id="Shape" d="m35 18c-.5522847 0-1 .4477153-1 1 0 1.1045695-.8954305 2-2 2s-2-.8954305-2-2c0-.5522847-.4477153-1-1-1s-1 .4477153-1 1c0 2.209139 1.790861 4 4 4s4-1.790861 4-4c0-.5522847-.4477153-1-1-1z"/></g></g></g></svg>