<svg height="512" viewBox="0 0 60 60" width="512" xmlns="http://www.w3.org/2000/svg"><g id="Page-1" fill="none" fill-rule="evenodd"><g id="004---Rain" fill-rule="nonzero" transform="translate(-1)"><path id="Shape" d="m9.56 30.89c-1.02295352 2.7602694-.62924494 5.8465305 1.0539151 8.261586 1.6831601 2.4150555 4.4423623 3.8526984 7.3860849 3.848414h29c6.5341907.0020691 12.0545686-4.8463342 12.8959036-11.3261341.841335-6.4798-3.2578432-12.5772031-9.5759036-14.2438659 1.5306136-3.7142409.4142979-7.99312837-2.735746-10.48623614-3.150044-2.49310777-7.5709395-2.5966556-10.834254-.25376386-3.6250275-4.57607937-9.5757596-6.63323921-15.2529862-5.27293623-5.6772267 1.36030299-10.0494811 5.89092219-11.2070138 11.61293623-4.54729743.3513387-8.11292697 4.0486572-8.29918917 8.6057022s3.06573315 8.5330235 7.56918917 9.2542978z" fill="#9e9e9e"/><path id="Shape" d="m50.32 17.43c1.2544864-3.0281938.7616487-6.4991324-1.2862039-9.0584279-2.0478526-2.55929555-5.3261965-3.80137614-8.5557961-3.2415721 2.7042512.44710637 5.0567428 2.10361398 6.3891616 4.49892994s1.4991541 5.26767276.4528384 7.80107006c6.3180604 1.6666628 10.4172386 7.7640659 9.5759036 14.2438659-.841335 6.4797999-6.3617129 11.3282032-12.8959036 11.3261341h3c6.5341907.0020691 12.0545686-4.8463342 12.8959036-11.3261341.841335-6.4798-3.2578432-12.5772031-9.5759036-14.2438659z" fill="#707070"/><circle id="Oval" cx="50" cy="29" fill="#3f51b5" r="2"/><circle id="Oval" cx="36" cy="29" fill="#3f51b5" r="2"/><path id="Shape" d="m30 55c0 2.209139 1.790861 4 4 4s4-1.790861 4-4c0-1.768-2.562-5.83-3.585-7.382-.0928809-.1382147-.2484762-.2211183-.415-.2211183s-.3221191.0829036-.415.2211183c-1.023 1.552-3.585 5.614-3.585 7.382z" fill="#02a9f4"/><path id="Shape" d="m34.415 47.618c-.0928809-.1382147-.2484762-.2211183-.415-.2211183s-.3221191.0829036-.415.2211183c-.276.419-.665 1.024-1.085 1.714 1.135 1.868 2.5 4.377 2.5 5.668-.0032957 1.6269922-.9917334 3.08988-2.5 3.7 1.2315812.5040787 2.6334251.3608094 3.7375754-.3819826 1.1041502-.7427919 1.7651788-1.9872732 1.7624246-3.3180174 0-1.768-2.562-5.83-3.585-7.382z" fill="#0377bc"/><path id="Shape" d="m14 55c0 2.209139 1.790861 4 4 4s4-1.790861 4-4c0-1.768-2.562-5.83-3.585-7.382-.0928809-.1382147-.2484762-.2211183-.415-.2211183s-.3221191.0829036-.415.2211183c-1.023 1.552-3.585 5.614-3.585 7.382z" fill="#02a9f4"/><path id="Shape" d="m18.415 47.618c-.0928809-.1382147-.2484762-.2211183-.415-.2211183s-.3221191.0829036-.415.2211183c-.276.419-.665 1.024-1.085 1.714 1.135 1.868 2.5 4.377 2.5 5.668-.0032957 1.6269922-.9917334 3.08988-2.5 3.7 1.2315812.5040787 2.6334251.3608094 3.7375754-.3819826 1.1041502-.7427919 1.7651788-1.9872732 1.7624246-3.3180174 0-1.768-2.562-5.83-3.585-7.382z" fill="#0377bc"/><path id="Shape" d="m46 55c0 2.209139 1.790861 4 4 4s4-1.790861 4-4c0-1.768-2.562-5.83-3.585-7.382-.0928809-.1382147-.2484762-.2211183-.415-.2211183s-.3221191.0829036-.415.2211183c-1.023 1.552-3.585 5.614-3.585 7.382z" fill="#02a9f4"/><path id="Shape" d="m50.415 47.618c-.0928809-.1382147-.2484762-.2211183-.415-.2211183s-.3221191.0829036-.415.2211183c-.276.419-.665 1.024-1.085 1.714 1.135 1.868 2.5 4.377 2.5 5.668-.0032957 1.6269922-.9917334 3.08988-2.5 3.7 1.2315812.5040787 2.6334251.3608094 3.7375754-.3819826 1.1041502-.7427919 1.7651788-1.9872732 1.7624246-3.3180174 0-1.768-2.562-5.83-3.585-7.382z" fill="#0377bc"/><path id="Shape" d="m17 40h-1c-.5522847 0-1-.4477153-1-1s.4477153-1 1-1h1c.5522847 0 1 .4477153 1 1s-.4477153 1-1 1z" fill="#707070"/><path id="Shape" d="m31 40h-10c-.5522847 0-1-.4477153-1-1s.4477153-1 1-1h10c.5522847 0 1 .4477153 1 1s-.4477153 1-1 1z" fill="#707070"/><g fill="#000"><path id="Shape" d="m51.608 16.777c1.1378142-3.931043-.2344216-8.15864607-3.4640412-10.67206557s-7.6647563-2.8053467-11.1959588-.73693443c-3.0243665-3.42567385-7.3783345-5.38182554-11.948-5.368-7.3362796.02002654-13.7270312 5.00743838-15.529 12.119-4.65665209.7120028-8.18492568 4.577395-8.47020955 9.279519-.28528388 4.7021239 2.74979342 8.965723 7.28620955 10.235481-.190983.7741607-.28735351 1.5686298-.287 2.366.00606237 5.5203344 4.4796656 9.9939376 10 10h29c6.8336977.004319 12.6719872-4.9256182 13.8124946-11.6634728 1.1405075-6.7378547-2.7500645-13.314583-9.2044946-15.5595272zm-4.608 25.223h-29c-4.4162219-.0049599-7.9950401-3.5837781-8-8 .000524-.6888733.0912964-1.3747093.27-2.04.242.018.483.04.73.04 1.0749565.0009161 2.1430178-.171635 3.163-.511.3394023-.1128959.5927937-.398285.6647242-.748664.0719304-.350379-.0485282-.712517-.3160001-.95-.2674719-.2374831-.6413218-.3142319-.9807241-.201336-1.1003854.3618794-2.2653596.4846159-3.417.36-.0748687-.0023774-.14974919.0043384-.223.02-.05502751-.0283761-.11261775-.0514792-.172-.069-3.0968144-.5127363-5.60761965-2.7891716-6.42040187-5.8210922-.81278223-3.0319207.22266356-6.2590173 2.64774742-8.2520367 2.42508385-1.9930193 5.79164175-2.3836446 8.60865445-.9988711.3203279.1621467.7029956.1401275 1.0026105-.0576916.299615-.1978191.4701885-.5410743.446912-.8993475s-.2368302-.6765722-.5595225-.8339609c-1.2101685-.5959519-2.5288892-.9395814-3.876-1.01 1.7777256-5.93722349 7.2333676-10.01016828 13.431-10.027 4.2776959-.01301672 8.3227473 1.94587272 10.965 5.31.008.009.02.014.028.023.7615051.96323276 1.3932378 2.02228444 1.879 3.15.1261307.3484076.4345731.5985117.8015246.6499257s.7322523-.1042913.949278-.4046188c.2170258-.3003275.2501962-.6960402.0861974-1.0283069-.4096768-.9552042-.9120834-1.86790947-1.5-2.725 1.1622302-.63695622 2.4656757-.97218686 3.791-.975 2.5207606.00041441 4.8938885 1.18889021 6.4040769 3.20719775 1.5101884 2.01830755 1.9807776 4.63034815 1.2699231 7.04880225-2.7085544-.5206295-5.5102979-.2362486-8.059.818-.3395636.1307825-.5812864.4356922-.6311527.7961375-.0498664.3604454.0999952.7195294.3912977.93759.2913024.2180606.6780629.2606764 1.009855.1112725 2.415823-.9947355 5.0870448-1.1882159 7.621-.552.022.007.038.025.06.03 5.8321635 1.5386424 9.6158997 7.1673401 8.8389157 13.1487988-.7769839 5.9814587-5.873204 10.4566613-11.9049157 10.4542012z"/><path id="Shape" d="m50 26c-1.6568542 0-3 1.3431458-3 3s1.3431458 3 3 3 3-1.3431458 3-3-1.3431458-3-3-3zm0 4c-.5522847 0-1-.4477153-1-1s.4477153-1 1-1 1 .4477153 1 1-.4477153 1-1 1z"/><path id="Shape" d="m36 26c-1.6568542 0-3 1.3431458-3 3s1.3431458 3 3 3 3-1.3431458 3-3-1.3431458-3-3-3zm0 4c-.5522847 0-1-.4477153-1-1s.4477153-1 1-1 1 .4477153 1 1-.4477153 1-1 1z"/><path id="Shape" d="m46 33c-.5522847 0-1 .4477153-1 1 0 1.1045695-.8954305 2-2 2s-2-.8954305-2-2c0-.5522847-.4477153-1-1-1s-1 .4477153-1 1c0 2.209139 1.790861 4 4 4s4-1.790861 4-4c0-.5522847-.4477153-1-1-1z"/><path id="Shape" d="m18.593 15.492c-.3630639-.4028044-.9810163-.4428339-1.3930134-.090236-.411997.3525978-.4678857.9693182-.1259866 1.390236.4260252.4966927.7900333 1.0433765 1.084 1.628.1607695.3193954.4797221.5287595.8367114.5492267.3569894.0204673.6977802-.1510718.8940001-.45.1962198-.2989282.218058-.6798313.0572885-.9992267-.3673077-.7282398-.8216283-1.4092171-1.353-2.028z"/><path id="Shape" d="m39 55c0-1.853-2.039-5.336-3.75-7.933-.2922296-.3978271-.7563761-.6327947-1.25-.6327947s-.9577704.2349676-1.25.6327947c-1.711 2.597-3.75 6.08-3.75 7.933 0 2.7614237 2.2385763 5 5 5s5-2.2385763 5-5zm-8 0c0-.929 1.164-3.317 3-6.185 1.837 2.869 3 5.256 3 6.185 0 1.6568542-1.3431458 3-3 3s-3-1.3431458-3-3z"/><path id="Shape" d="m18 60c2.7600532-.0033061 4.9966939-2.2399468 5-5 0-1.853-2.039-5.336-3.75-7.933-.2922296-.3978271-.7563761-.6327947-1.25-.6327947s-.9577704.2349676-1.25.6327947c-1.711 2.597-3.75 6.08-3.75 7.933.0033061 2.7600532 2.2399468 4.9966939 5 5zm0-11.185c1.837 2.869 3 5.256 3 6.185 0 1.6568542-1.3431458 3-3 3s-3-1.3431458-3-3c0-.929 1.164-3.317 3-6.185z"/><path id="Shape" d="m55 55c0-1.853-2.039-5.336-3.75-7.933-.2922296-.3978271-.7563761-.6327947-1.25-.6327947s-.9577704.2349676-1.25.6327947c-1.711 2.597-3.75 6.08-3.75 7.933 0 2.7614237 2.2385763 5 5 5s5-2.2385763 5-5zm-8 0c0-.929 1.164-3.317 3-6.185 1.837 2.869 3 5.256 3 6.185 0 1.6568542-1.3431458 3-3 3s-3-1.3431458-3-3z"/></g></g></g></svg>