<svg height="512" viewBox="0 0 60 60" width="512" xmlns="http://www.w3.org/2000/svg"><g id="Page-1" fill="none" fill-rule="evenodd"><g id="005---Heavy-Rain" fill-rule="nonzero" transform="translate(-1)"><path id="Shape" d="m9.56 30.89c-1.02295352 2.7602694-.62924494 5.8465305 1.0539151 8.261586 1.6831601 2.4150555 4.4423623 3.8526984 7.3860849 3.848414h29c6.5341907.0020691 12.0545686-4.8463342 12.8959036-11.3261341.841335-6.4798-3.2578432-12.5772031-9.5759036-14.2438659 1.5306136-3.7142409.4142979-7.99312837-2.735746-10.48623614-3.150044-2.49310777-7.5709395-2.5966556-10.834254-.25376386-3.6250275-4.57607937-9.5757596-6.63323921-15.2529862-5.27293623-5.6772267 1.36030299-10.0494811 5.89092219-11.2070138 11.61293623-4.54729743.3513387-8.11292697 4.0486572-8.29918917 8.6057022s3.06573315 8.5330235 7.56918917 9.2542978z" fill="#7f8e94"/><path id="Shape" d="m50.32 17.43c1.2544864-3.0281938.7616487-6.4991324-1.2862039-9.0584279-2.0478526-2.55929555-5.3261965-3.80137614-8.5557961-3.2415721 2.7042512.44710637 5.0567428 2.10361398 6.3891616 4.49892994s1.4991541 5.26767276.4528384 7.80107006c6.3180604 1.6666628 10.4172386 7.7640659 9.5759036 14.2438659-.841335 6.4797999-6.3617129 11.3282032-12.8959036 11.3261341h3c6.5341907.0020691 12.0545686-4.8463342 12.8959036-11.3261341.841335-6.4798-3.2578432-12.5772031-9.5759036-14.2438659z" fill="#545c60"/><path id="Shape" d="m30 55c0 2.209139 1.790861 4 4 4s4-1.790861 4-4c0-1.768-2.562-5.83-3.585-7.382-.0928809-.1382147-.2484762-.2211183-.415-.2211183s-.3221191.0829036-.415.2211183c-1.023 1.552-3.585 5.614-3.585 7.382z" fill="#02a9f4"/><path id="Shape" d="m34.415 47.618c-.0928809-.1382147-.2484762-.2211183-.415-.2211183s-.3221191.0829036-.415.2211183c-.276.419-.665 1.024-1.085 1.714 1.135 1.868 2.5 4.377 2.5 5.668-.0032957 1.6269922-.9917334 3.08988-2.5 3.7 1.2315812.5040787 2.6334251.3608094 3.7375754-.3819826 1.1041502-.7427919 1.7651788-1.9872732 1.7624246-3.3180174 0-1.768-2.562-5.83-3.585-7.382z" fill="#0377bc"/><path id="Shape" d="m14 55c0 2.209139 1.790861 4 4 4s4-1.790861 4-4c0-1.768-2.562-5.83-3.585-7.382-.0928809-.1382147-.2484762-.2211183-.415-.2211183s-.3221191.0829036-.415.2211183c-1.023 1.552-3.585 5.614-3.585 7.382z" fill="#02a9f4"/><path id="Shape" d="m18.415 47.618c-.0928809-.1382147-.2484762-.2211183-.415-.2211183s-.3221191.0829036-.415.2211183c-.276.419-.665 1.024-1.085 1.714 1.135 1.868 2.5 4.377 2.5 5.668-.0032957 1.6269922-.9917334 3.08988-2.5 3.7 1.2315812.5040787 2.6334251.3608094 3.7375754-.3819826 1.1041502-.7427919 1.7651788-1.9872732 1.7624246-3.3180174 0-1.768-2.562-5.83-3.585-7.382z" fill="#0377bc"/><path id="Shape" d="m46 55c0 2.209139 1.790861 4 4 4s4-1.790861 4-4c0-1.768-2.562-5.83-3.585-7.382-.0928809-.1382147-.2484762-.2211183-.415-.2211183s-.3221191.0829036-.415.2211183c-1.023 1.552-3.585 5.614-3.585 7.382z" fill="#02a9f4"/><path id="Shape" d="m50.415 47.618c-.0928809-.1382147-.2484762-.2211183-.415-.2211183s-.3221191.0829036-.415.2211183c-.276.419-.665 1.024-1.085 1.714 1.135 1.868 2.5 4.377 2.5 5.668-.0032957 1.6269922-.9917334 3.08988-2.5 3.7 1.2315812.5040787 2.6334251.3608094 3.7375754-.3819826 1.1041502-.7427919 1.7651788-1.9872732 1.7624246-3.3180174 0-1.768-2.562-5.83-3.585-7.382z" fill="#0377bc"/><path id="Shape" d="m41 34c-1 0-2 1-3 1-1.0728748-.0730087-1.9269913-.9271252-2-2 0-2 2-4 5-4s5 2 5 4c-.0730087 1.0728748-.9271252 1.9269913-2 2-1 0-2-1-3-1z" fill="#ef314c"/><path id="Shape" d="m41 29c-.5063925.0037308-1.0103206.0709212-1.5.2 1.892928.3272837 3.3291408 1.8866004 3.5 3.8-.024699.5430333-.267327 1.0531649-.673 1.415.5080081.3153498 1.0791755.5150706 1.673.585 1.0728748-.0730087 1.9269913-.9271252 2-2 0-2-2-4-5-4z" fill="#bb193b"/><path id="Shape" d="m28.048 33.092c-.5963799.8978082-.3740361 2.1067237.5027611 2.7335852.8767972.6268614 2.0926354.4461665 2.7492389-.4085852.642-.9.7-4.417.7-4.417s-3.31 1.194-3.952 2.092z" fill="#02a9f4"/><path id="Shape" d="m53.952 33.092c.5963799.8978082.3740361 2.1067237-.5027611 2.7335852-.8767972.6268614-2.0926354.4461665-2.7492389-.4085852-.645-.898-.7-4.417-.7-4.417s3.31 1.194 3.952 2.092z" fill="#02a9f4"/><g fill="#000"><path id="Shape" d="m8.287 31.634c-.190983.7741607-.28735351 1.5686298-.287 2.366.00606237 5.5203344 4.4796656 9.9939376 10 10h29c6.8336977.004319 12.6719872-4.9256182 13.8124946-11.6634728 1.1405075-6.7378547-2.7500645-13.314583-9.2044946-15.5595272 1.1378142-3.931043-.2344216-8.15864607-3.4640412-10.67206557s-7.6647563-2.8053467-11.1959588-.73693443c-3.0243665-3.42567385-7.3783345-5.38182554-11.948-5.368-7.3362796.02002654-13.7270312 5.00743838-15.529 12.119-4.65665209.7120028-8.18492568 4.577395-8.47020955 9.279519-.28528388 4.7021239 2.74979342 8.965723 7.28620955 10.235481zm1.957-17.591c1.482285-.14255 2.9749914.1302992 4.311.788.3203279.1621467.7029956.1401275 1.0026105-.0576916.299615-.1978191.4701885-.5410743.446912-.8993475s-.2368302-.6765722-.5595225-.8339609c-1.2102075-.5958469-2.5289063-.9394707-3.876-1.01 1.7766391-5.93841153 7.232542-10.01276987 13.431-10.03 4.2776959-.01301672 8.3227473 1.94587272 10.965 5.31.008.009.02.014.028.023.7615051.96323276 1.3932378 2.02228444 1.879 3.15.1261307.3484076.4345731.5985117.8015246.6499257s.7322523-.1042913.949278-.4046188c.2170258-.3003275.2501962-.6960402.0861974-1.0283069-.4096768-.9552042-.9120834-1.86790947-1.5-2.725 1.1622302-.63695622 2.4656757-.97218686 3.791-.975 2.5207606.00041441 4.8938885 1.18889021 6.4040769 3.20719775 1.5101884 2.01830755 1.9807776 4.63034815 1.2699231 7.04880225-2.7085544-.5206295-5.5102979-.2362486-8.059.818-.3395636.1307825-.5812864.4356922-.6311527.7961375-.0498664.3604454.0999952.7195294.3912977.93759.2913024.2180606.6780629.2606764 1.009855.1112725 2.4154646-.9946421 5.0862349-1.1884657 7.62-.553.01971.0115167.0400783.0218678.061.031 5.8321635 1.5386424 9.6158997 7.1673401 8.8389157 13.1487988-.7769839 5.9814587-5.873204 10.4566613-11.9049157 10.4542012h-29c-4.4162219-.0049599-7.9950401-3.5837781-8-8 .000524-.6888733.0912964-1.3747093.27-2.04.242.018.483.04.73.04 1.0749565.0009161 2.1430178-.171635 3.163-.511.3394023-.1128959.5927937-.398285.6647242-.748664.0719304-.350379-.0485282-.712517-.3160001-.95-.2674719-.2374831-.6413218-.3142319-.9807241-.201336-1.1003724.3619399-2.2653597.4846778-3.417.36-.0745388-.0024154-.14909308.0043012-.222.02-.05537264-.0283801-.11329506-.0514821-.173-.069-3.97063717-.6460583-6.84393657-4.1401813-6.71084439-8.1608326.13309218-4.0206514 3.23117435-7.3171088 7.23584439-7.6991674z"/><path id="Shape" d="m49 28c1.1373619.0034029 2.1779586-.6394098 2.684-1.658.2471474-.4940187.0470187-1.0948525-.447-1.342-.4940187-.2471474-1.0948526-.0470187-1.342.447-.2070599.415452-.6727907.6337945-1.1245837.5272238-.4517929-.1065707-.7708502-.510032-.7704163-.9742238 0-.5522847-.4477153-1-1-1s-1 .4477153-1 1c0 1.6568542 1.3431458 3 3 3z"/><path id="Shape" d="m33 28c1.6568542 0 3-1.3431458 3-3 0-.5522847-.4477153-1-1-1s-1 .4477153-1 1c.0047827.4680468-.3157375.8767898-.7714226.9837559s-.9246003-.1164674-1.1285774-.5377559c-.1607695-.3193954-.4797221-.5287595-.8367114-.5492267-.3569894-.0204673-.6977802.1510718-.8940001.45-.1962198.2989282-.218058.6798313-.0572885.9992267.5079846 1.0181664 1.5501593 1.659445 2.688 1.654z"/><path id="Shape" d="m18.158 18.422c.1607695.3193954.4797221.5287595.8367114.5492267.3569894.0204673.6977802-.1510718.8940001-.45.1962198-.2989282.218058-.6798313.0572885-.9992267-.3668884-.7303351-.8212227-1.4133477-1.353-2.034-.3630639-.4028044-.9810163-.4428339-1.3930134-.090236-.411997.3525978-.4678857.9693182-.1259866 1.390236.4264322.4985618.7904541 1.0472811 1.084 1.634z"/><path id="Shape" d="m32.75 47.068c-1.711 2.596-3.75 6.079-3.75 7.932 0 2.7614237 2.2385763 5 5 5s5-2.2385763 5-5c0-1.853-2.039-5.336-3.75-7.933-.2923887-.3977102-.7566292-.6324922-1.2502531-.6322948-.4936239.0001975-.9576765.2353508-1.2497469.6332948zm4.25 7.932c0 1.6568542-1.3431458 3-3 3s-3-1.3431458-3-3c0-.929 1.164-3.317 3-6.185 1.837 2.869 3 5.256 3 6.185z"/><path id="Shape" d="m16.75 47.068c-1.711 2.596-3.75 6.079-3.75 7.932 0 2.7614237 2.2385763 5 5 5s5-2.2385763 5-5c0-1.853-2.039-5.336-3.75-7.933-.2923887-.3977102-.7566292-.6324922-1.2502531-.6322948-.4936239.0001975-.9576765.2353508-1.2497469.6332948zm4.25 7.932c0 1.6568542-1.3431458 3-3 3s-3-1.3431458-3-3c0-.929 1.164-3.317 3-6.185 1.837 2.869 3 5.256 3 6.185z"/><path id="Shape" d="m48.75 47.068c-1.71 2.595-3.75 6.077-3.75 7.932 0 2.7614237 2.2385763 5 5 5s5-2.2385763 5-5c0-1.855-2.039-5.337-3.75-7.933-.2923887-.3977102-.7566292-.6324922-1.2502531-.6322948-.4936239.0001975-.9576765.2353508-1.2497469.6332948zm4.25 7.932c0 1.6568542-1.3431458 3-3 3s-3-1.3431458-3-3c0-.93 1.163-3.318 3-6.186 1.837 2.868 3 5.256 3 6.186z"/><path id="Shape" d="m38 36c.6871054-.0443665 1.3541071-.249914 1.947-.6.3229551-.1978925.6801091-.3335635 1.053-.4.3728909.0664365.7300449.2021075 1.053.4.5928929.350086 1.2598946.5556335 1.947.6 1.6224449-.0802654 2.9197346-1.3775551 3-3 0-2.405-2.294-5-6-5s-6 2.595-6 5c.0802654 1.6224449 1.3775551 2.9197346 3 3zm3-6c2.471 0 4 1.557 4 3-.0710467.5200264-.4799736.9289533-1 1-.3728909-.0664365-.7300449-.2021075-1.053-.4-.5928929-.350086-1.2598946-.5556335-1.947-.6-.6871054.0443665-1.3541071.249914-1.947.6-.3229551.1978925-.6801091.3335635-1.053.4-.5200264-.0710467-.9289533-.4799736-1-1 0-1.443 1.529-3 4-3z"/><path id="Shape" d="m27.932 36.7c.5061534.3637952 1.1136717.5596561 1.737.56.1675451-.0000599.3347927-.0141087.5-.042.786068-.1292111 1.4876384-.5678726 1.948-1.218.742-1.041.864-3.832.883-4.983.0053434-.3285521-.1510645-.6387627-.4183997-.8298305-.2673353-.1910678-.6114777-.2386068-.9206003-.1271695-1.084.391-3.684 1.412-4.427 2.452-.4633853.6477289-.6501979 1.4531313-.5192679 2.2387113s.5688563 1.4868593 1.2172679 1.9492887zm.928-3.022c.62175-.495212 1.3180531-.88876 2.063-1.166-.0197912.7941582-.1663034 1.5800579-.434 2.328-.3208774.4498359-.9456641.5543774-1.3955.2335-.4498359-.3208775-.5543774-.9456641-.2335-1.3955z"/><path id="Shape" d="m49.419 30.186c-.2676122.1909698-.4242619.5012781-.419.83.019 1.151.141 3.942.884 4.983.6230712.8720853 1.6640647 1.3455208 2.7308483 1.241968s1.9972876-.7683619 2.441-1.744.3332229-2.1138827-.2898483-2.985968c-.743-1.04-3.343-2.061-4.427-2.452-.3090282-.1102241-.6523916-.062825-.92.127zm3.72 3.488c.3153021.4492991.2095116 1.0687677-.2370309 1.3879619s-1.0669069.2187902-1.3899691-.2249619c-.2677615-.7483066-.4146017-1.5344921-.435-2.329.7450196.2764242 1.4411174.670047 2.062 1.166z"/></g></g></g></svg>