<svg height="512" viewBox="0 0 60 60" width="512" xmlns="http://www.w3.org/2000/svg"><g id="Page-1" fill="none" fill-rule="evenodd"><g id="006---Thunder" fill-rule="nonzero" transform="translate(-1)"><path id="Shape" d="m17.93 43c-2.9313424-.0185457-5.6694197-1.4655811-7.3361381-3.8770457-1.66671837-2.4114647-2.05258813-5.4842621-1.0338619-8.2329543-4.50345602-.7212743-7.75545137-4.6972528-7.56918917-9.2542978s3.75189174-8.2543635 8.29918917-8.6057022c1.1575327-5.72201404 5.5297871-10.25263324 11.2070138-11.61293623 5.6772266-1.36030298 11.6279587.69685686 15.2529862 5.27293623 3.2633145-2.34289174 7.68421-2.23934391 10.834254.25376386 3.1500439 2.49310777 4.2663596 6.77199524 2.735746 10.48623614 6.3180604 1.6666628 10.4172386 7.7640659 9.5759036 14.2438659-.841335 6.4797999-6.3617129 11.3282032-12.8959036 11.3261341z" fill="#607d8b"/><path id="Shape" d="m50.32 17.43c1.2544864-3.0281938.7616487-6.4991324-1.2862039-9.0584279-2.0478526-2.55929555-5.3261965-3.80137614-8.5557961-3.2415721 2.7042512.44710637 5.0567428 2.10361398 6.3891616 4.49892994s1.4991541 5.26767276.4528384 7.80107006c6.3180604 1.6666628 10.4172386 7.7640659 9.5759036 14.2438659-.841335 6.4797999-6.3617129 11.3282032-12.8959036 11.3261341h3c6.5341907.0020691 12.0545686-4.8463342 12.8959036-11.3261341.841335-6.4798-3.2578432-12.5772031-9.5759036-14.2438659z" fill="#37474f"/><path id="Shape" d="m26.122 18.384 4.864 20c.0361234.151198-.0001333.3105964-.098102.4312938-.0979687.1206975-.2465029.1889615-.401898.1847062h-3.862c-.1468912-.0017084-.2871018.0612662-.3833998.1722015-.096298.1109354-.1389391.2586058-.1166002.4037985l2.967 18.848c.0304213.2348054-.1044398.4597564-.325877.5435692-.2214373.0838128-.4714479.0045337-.604123-.1915692l-14.914-23.008c-.0986629-.1553323-.1040299-.3523047-.0139719-.5127792.0900579-.1604745.2609837-.2585117.4449719-.2552208h3.33c.1771718.0036118.3430198-.0868251.4359403-.237718.0929204-.1508929.0990301-.3396973.0160597-.496282l-8.4-15.532c-.08287721-.1564256-.07686359-.3450138.01581118-.4958415s.25819437-.2414088.43518882-.2381585h16.114c.2341817-.0012893.439146.1570735.497.384z" fill="#ffdc00"/><path id="Shape" d="m26.624 39h-3c-.1468912-.0017084-.2871018.0612662-.3833998.1722015-.096298.1109354-.1389391.2586058-.1166002.4037985l2.376 15.093 2.661 4.107c.1326751.1961029.3826857.275382.604123.1915692.2214372-.0838128.3562983-.3087638.325877-.5435692l-2.972-18.848c-.0224991-.1460697.0207763-.2946097.1182075-.4057391s.2390348-.1734614.3867925-.1702609z" fill="#fec108"/><path id="Shape" d="m30.986 38.384-4.864-20c-.0581206-.2280211-.2647034-.3866767-.5-.384l-3-.0000334c.2352966-.0026433.4418794.1560123.5.3840334l4.864 20c.0361234.151198-.0001333.3105964-.098102.4312938-.0979687.1206975-.2465029.1889615-.401898.1847062h3c.1553951.0042553.3039293-.0640087.401898-.1847062.0979687-.1206974.1342254-.2800958.098102-.4312938z" fill="#fec108"/><path id="Shape" d="m50.12 28.33c-.0810272.2140079-.1217135.4411729-.12.67.0006063 1.066726.8382948 1.9452308 1.9037859 1.9965476 1.0654911.0513169 1.9837287-.7426177 2.0868471-1.8043481s-.6451804-2.017524-1.700633-2.1721995z" fill="#f44335"/><path id="Shape" d="m37.71 27.02c-1.0554526.1546755-1.8037514 1.1104691-1.700633 2.1721995s1.021356 1.855665 2.0868471 1.8043481c1.0654911-.0513168 1.9031796-.9298216 1.9037859-1.9965476.0017135-.2288271-.0389728-.4559921-.12-.67z" fill="#f44335"/><path id="Shape" d="m35 55c0 2.209139 1.790861 4 4 4s4-1.790861 4-4c0-1.768-2.562-5.83-3.585-7.382-.0928809-.1382147-.2484762-.2211183-.415-.2211183s-.3221191.0829036-.415.2211183c-1.023 1.552-3.585 5.614-3.585 7.382z" fill="#02a9f4"/><path id="Shape" d="m39.415 47.618c-.0928809-.1382147-.2484762-.2211183-.415-.2211183s-.3221191.0829036-.415.2211183c-.276.419-.665 1.024-1.085 1.714 1.135 1.868 2.5 4.377 2.5 5.668-.0032957 1.6269922-.9917334 3.08988-2.5 3.7 1.2315812.5040787 2.6334251.3608094 3.7375754-.3819826 1.1041502-.7427919 1.7651788-1.9872732 1.7624246-3.3180174 0-1.768-2.562-5.83-3.585-7.382z" fill="#0377bc"/><path id="Shape" d="m11 55c0 2.209139 1.790861 4 4 4s4-1.790861 4-4c0-1.768-2.562-5.83-3.585-7.382-.0928809-.1382147-.2484762-.2211183-.415-.2211183s-.3221191.0829036-.415.2211183c-1.023 1.552-3.585 5.614-3.585 7.382z" fill="#02a9f4"/><path id="Shape" d="m15.415 47.618c-.0928809-.1382147-.2484762-.2211183-.415-.2211183s-.3221191.0829036-.415.2211183c-.276.419-.665 1.024-1.085 1.714 1.135 1.868 2.5 4.377 2.5 5.668-.0032957 1.6269922-.9917334 3.08988-2.5 3.7 1.2315812.5040787 2.6334251.3608094 3.7375754-.3819826 1.1041502-.7427919 1.7651788-1.9872732 1.7624246-3.3180174 0-1.768-2.562-5.83-3.585-7.382z" fill="#0377bc"/><path id="Shape" d="m2 50c.00000002 1.6568542 1.34314577 3 3 3s2.99999998-1.3431458 3-3c0-1.269-1.761-4.115-2.584-5.377-.09273659-.1390776-.24883947-.2226122-.416-.2226122s-.32326341.0835346-.416.2226122c-.823 1.262-2.584 4.108-2.584 5.377z" fill="#02a9f4"/><path id="Shape" d="m5.416 44.623c-.09273659-.1390776-.24883947-.2226122-.416-.2226122s-.32326341.0835346-.416.2226122c-.284.438-.684 1.077-1.084 1.759.73738586 1.093303 1.24748872 2.3236711 1.5 3.618-.00234581 1.0674872-.57418799 2.0525807-1.5 2.584.4540847.2696489.97189407.4132547 1.5.416 1.65685425 0 3-1.3431458 3-3 0-1.269-1.761-4.115-2.584-5.377z" fill="#0377bc"/><path id="Shape" d="m48 53c.0000001 1.6568542 1.3431458 2.9999999 3 2.9999999s2.9999999-1.3431457 3-2.9999999c0-1.269-1.761-4.115-2.584-5.377-.0927366-.1390776-.2488395-.2226122-.416-.2226122s-.3232634.0835346-.416.2226122c-.823 1.262-2.584 4.108-2.584 5.377z" fill="#02a9f4"/><path id="Shape" d="m51.416 47.623c-.0927366-.1390776-.2488395-.2226122-.416-.2226122s-.3232634.0835346-.416.2226122c-.286.438-.685 1.072-1.084 1.759.7373859 1.093303 1.2474887 2.3236711 1.5 3.618-.0023458 1.0674872-.574188 2.0525807-1.5 2.584.4540847.2696489.9718941.4132547 1.5.416 1.6568542 0 3-1.3431458 3-3 0-1.269-1.761-4.115-2.584-5.377z" fill="#0377bc"/><g fill="#000"><path id="Shape" d="m8.286 31.634c-.19016342.7742902-.28619097 1.5686999-.286 2.366.01866538 5.2682995 4.1119566 9.6232923 9.369 9.968l9.96 15.37c.280199.4137688.747284.6617321 1.247.662.1926883-.0003389.383622-.0366265.563-.107.6548851-.253989 1.0441603-.9301204.935-1.624l-2.246-14.269h19.172c6.8336977.004319 12.6719872-4.9256182 13.8124946-11.6634728 1.1405075-6.7378547-2.7500645-13.314583-9.2044946-15.5595272 1.138211-3.9313326-.2340886-8.1594228-3.4640979-10.6729741-3.2300093-2.51355131-7.6656532-2.80512738-11.1969021-.7360259-3.0238196-3.42584083-7.3775719-5.38205933-11.947-5.368-7.3363962.01906592-13.727379 5.00697938-15.528 12.119-4.65685184.7114097-8.18567083 4.576495-8.47144137 9.2786975-.28577054 4.7022024 2.74901453 8.9661827 7.28544137 10.2363025zm6.303 4.366h2.419c.5333689.0032463 1.0283423-.2769848 1.3-.736.2718736-.4503669.2840584-1.011251.032-1.473l-7.999-14.791h14.9l4.621 19h-3.238c-.4430808-.000537-.8641294.1931746-1.152.53-.2835848.3309385-.4081772.7693866-.341 1.2l2.607 16.56zm-4.347-21.957c1.4828904-.1416011 2.9759817.1311918 4.313.788.3203279.1621467.7029956.1401275 1.0026105-.0576916.299615-.1978191.4701885-.5410743.446912-.8993475s-.2368302-.6765722-.5595225-.8339609c-1.2104217-.5952712-2.5290004-.9388637-3.876-1.01 1.7760738-5.9388066 7.2323237-10.01342404 13.431-10.03 4.2775589-.01241527 8.3223604 1.94635316 10.965 5.31.009.012.024.017.034.029.7588105.96162255 1.3881809 2.01864214 1.872 3.144.2320102.4811719.8012314.6950338 1.2926814.4856729s.7315764-.7680102.5453186-1.2686729c-.4100801-.95500723-.9124655-1.86767406-1.5-2.725 1.1620878-.63731634 2.4656267-.97257101 3.791-.975 2.5207606.00041441 4.8938885 1.18889021 6.4040769 3.20719775 1.5101884 2.01830755 1.9807776 4.63034815 1.2699231 7.04880225-2.7085754-.520157-5.5101824-.2357899-8.059.818-.3395636.1307825-.5812864.4356922-.6311527.7961375-.0498664.3604454.0999952.7195294.3912977.93759.2913024.2180606.6780629.2606764 1.009855.1112725 2.4155792-.9941562 5.0861917-1.1879684 7.62-.553.01971.0115167.0400783.0218678.061.031 5.8321635 1.5386424 9.6158997 7.1673401 8.8389157 13.1487988-.7769839 5.9814587-5.873204 10.4566613-11.9049157 10.4542012h-19.487l-.313-2h3.291c.4649727.0026598.9048897-.2104654 1.191-.577.2847228-.3592015.3873483-.8298756.278-1.275l-4.864-20c-.1636934-.6781912-.7733589-1.1539873-1.471-1.148h-16.113c-.53336885-.0032463-1.02834231.2769848-1.3.736-.27248435.4501895-.28467634 1.0114017-.032 1.473l8 14.791h-2.5c-.5540732-.0012442-1.0642646.3012621-1.329.788-.2612969.4803813-.238654 1.0652578.059 1.524l3.5 5.4c-3.4795806-.9499237-5.8975176-4.1051066-5.91-7.712.00087-.9430948.170196-1.8784516.5-2.762.1051645-.2812893.0783479-.5949488-.0730395-.8543039-.1513874-.2593552-.4113166-.4369452-.7079605-.4836961-3.97060063-.6456705-6.8441999-4.139376-6.71161743-8.1599458s3.23010577-7.3173713 7.23461743-7.7000542z"/><path id="Shape" d="m35 29c-.0038092 1.4645053 1.0530344 2.7165283 2.4973965 2.9586196s2.8516848-.59691 3.3256035-1.9826196c.0581332.0134436.1173859.0214779.177.024.4494307.0003074.8438561-.2992511.9641796-.7322756.1203235-.4330246-.0630173-.8931255-.4481796-1.1247244l-5-3c-.3065026-.1918041-.6926712-.2032165-1.0099658-.0298476-.3172946.173369-.5162906.5045139-.5204443.8660598-.0041536.3615458.1871822.6971751.5004101.8777878l.27.162c-.4847351.5462955-.7535374 1.2506571-.756 1.981zm3.993-.038c0 .014.007.024.007.038.0041542.4958882-.3557424.9199141-.8457127.9964086-.4899704.0764945-.9619886-.2176523-1.1091848-.6912086-.1471961-.4735564.0748996-.9834555.5218975-1.1982z"/><path id="Shape" d="m49 30c.0592787-.0025834.1181939-.0106173.176-.024.3931093 1.1454667 1.4379592 1.9409952 2.6467302 2.0151691 1.2087709.0741739 2.3430476-.5876368 2.8732589-1.6764457s.3517795-2.389862-.4519891-3.2957234l.27-.162c.3132279-.1806127.5045637-.516242.5004101-.8777878-.0041537-.3615459-.2031497-.6926908-.5204443-.8660598-.3172946-.1733689-.7034632-.1619565-1.0099658.0298476l-5 3c-.3851623.2315989-.5685031.6916998-.4481796 1.1247244.1203235.4330245.5147489.732583.9641796.7322756zm4-1c0 .5522847-.4477153 1-1 1s-1-.4477153-1-1c0-.014.006-.024.007-.038l1.426-.855c.3438522.1651587.5637916.5115536.567.893z"/><path id="Shape" d="m42 37c.5522847 0 1-.4477153 1-1 0-1.1045695.8954305-2 2-2s2 .8954305 2 2c0 .5522847.4477153 1 1 1s1-.4477153 1-1c0-2.209139-1.790861-4-4-4s-4 1.790861-4 4c0 .5522847.4477153 1 1 1z"/><path id="Shape" d="m37.75 47.068c-1.711 2.595-3.75 6.077-3.75 7.932.0000001 2.7614237 2.2385763 4.9999999 5 4.9999999s4.9999999-2.2385762 5-4.9999999c0-1.855-2.039-5.337-3.75-7.933-.2923887-.3977102-.7566292-.6324922-1.2502531-.6322948-.4936239.0001975-.9576765.2353508-1.2497469.6332948zm4.25 7.932c0 1.6568542-1.3431458 3-3 3s-3-1.3431458-3-3c0-.93 1.163-3.318 3-6.186 1.837 2.868 3 5.256 3 6.186z"/><path id="Shape" d="m13.75 47.068c-1.711 2.595-3.75 6.077-3.75 7.932 0 2.7614237 2.2385763 5 5 5s5-2.2385763 5-5c0-1.855-2.039-5.337-3.75-7.933-.2923887-.3977102-.7566292-.6324922-1.2502531-.6322948-.4936239.0001975-.9576765.2353508-1.2497469.6332948zm4.25 7.932c0 1.6568542-1.3431458 2.9999999-3 2.9999999s-3-1.3431457-3-2.9999999c0-.93 1.163-3.318 3-6.186 1.837 2.868 3 5.256 3 6.186z"/><path id="Shape" d="m5 54c2.209139 0 4-1.790861 4-4 0-1.136-.924-3.129-2.747-5.924-.29141963-.4014131-.75745775-.6389787-1.2535-.6389787s-.96208037.2375656-1.2535.6389787c-1.822 2.795-2.746 4.788-2.746 5.924 0 2.209139 1.790861 4 4 4zm0-8.171c1.378 2.2 2 3.664 2 4.171 0 1.1045695-.8954305 2-2 2s-2-.8954305-2-2c0-.507.622-1.973 2-4.171z"/><path id="Shape" d="m49.746 47.077c-1.822 2.794-2.746 4.787-2.746 5.923 0 2.209139 1.790861 4 4 4s4-1.790861 4-4c0-1.136-.924-3.129-2.747-5.924-.2915797-.401297-.7577126-.6386767-1.2537549-.6384788s-.9619856.2379494-1.2532451.6394788zm3.254 5.923c0 1.1045695-.8954305 2-2 2s-2-.8954305-2-2c0-.507.622-1.973 2-4.171 1.378 2.198 2 3.664 2 4.171z"/></g></g></g></svg>