<svg height="512" viewBox="0 0 60 60" width="512" xmlns="http://www.w3.org/2000/svg"><g id="Page-1" fill="none" fill-rule="evenodd"><g id="007---Snow" fill-rule="nonzero" transform="translate(-1)"><path id="Shape" d="m9.56 30.89c-1.02295352 2.7602694-.62924494 5.8465305 1.0539151 8.261586 1.6831601 2.4150555 4.4423623 3.8526984 7.3860849 3.848414h29c6.5341907.0020691 12.0545686-4.8463342 12.8959036-11.3261341.841335-6.4798-3.2578432-12.5772031-9.5759036-14.2438659 1.5306136-3.7142409.4142979-7.99312837-2.735746-10.48623614-3.150044-2.49310777-7.5709395-2.5966556-10.834254-.25376386-3.6250275-4.57607937-9.5757596-6.63323921-15.2529862-5.27293623-5.6772267 1.36030299-10.0494811 5.89092219-11.2070138 11.61293623-4.54729743.3513387-8.11292697 4.0486572-8.29918917 8.6057022s3.06573315 8.5330235 7.56918917 9.2542978z" fill="#cfd8dc"/><path id="Shape" d="m50.32 17.43c1.2544864-3.0281938.7616487-6.4991324-1.2862039-9.0584279-2.0478526-2.55929555-5.3261965-3.80137614-8.5557961-3.2415721 2.7042512.44710637 5.0567428 2.10361398 6.3891616 4.49892994s1.4991541 5.26767276.4528384 7.80107006c6.3180604 1.6666628 10.4172386 7.7640659 9.5759036 14.2438659-.841335 6.4797999-6.3617129 11.3282032-12.8959036 11.3261341h3c6.5341907.0020691 12.0545686-4.8463342 12.8959036-11.3261341.841335-6.4798-3.2578432-12.5772031-9.5759036-14.2438659z" fill="#7f8e94"/><path id="Shape" d="m55.414 53 .293-.293c.3789722-.3923789.3735524-1.0160848-.0121814-1.4018186s-1.0094397-.3911536-1.4018186-.0121814l-.707.707h-2.172l1.293-1.293c.3789722-.3923789.3735524-1.0160848-.0121814-1.4018186s-1.0094397-.3911536-1.4018186-.0121814l-1.293 1.293v-2.172l.707-.707c.3789722-.3923789.3735524-1.0160848-.0121814-1.4018186s-1.0094397-.3911536-1.4018186-.0121814l-.293.293-.293-.293c-.3923789-.3789722-1.0160848-.3735524-1.4018186.0121814s-.3911536 1.0094397-.0121814 1.4018186l.707.707v2.172l-1.293-1.293c-.3923789-.3789722-1.0160848-.3735524-1.4018186.0121814s-.3911536 1.0094397-.0121814 1.4018186l1.293 1.293h-2.172l-.707-.707c-.3923789-.3789722-1.0160848-.3735524-1.4018186.0121814s-.3911536 1.0094397-.0121814 1.4018186l.293.293-.293.293c-.2599566.2510745-.3642126.6228779-.2726972.9725073.0915155.3496295.3645604.6226744.7141899.7141899.3496294.0915154.7214328-.0127406.9725073-.2726972l.707-.707h2.172l-1.293 1.293c-.2599566.2510745-.3642126.6228779-.2726972.9725073.0915155.3496295.3645604.6226744.7141899.7141899.3496294.0915154.7214328-.0127406.9725073-.2726972l1.293-1.293v2.172l-.707.707c-.3789722.3923789-.3735524 1.0160848.0121814 1.4018186s1.0094397.3911536 1.4018186.0121814l.293-.293.293.293c.3923789.3789722 1.0160848.3735524 1.4018186-.0121814s.3911536-1.0094397.0121814-1.4018186l-.707-.707v-2.172l1.293 1.293c.3923789.3789722 1.0160848.3735524 1.4018186-.0121814s.3911536-1.0094397.0121814-1.4018186l-1.293-1.293h2.172l.707.707c.3923789.3789722 1.0160848.3735524 1.4018186-.0121814s.3911536-1.0094397.0121814-1.4018186z" fill="#02a9f4"/><path id="Shape" d="m38.707 51.293c-.3904999-.3903819-1.0235001-.3903819-1.414 0l-.707.707h-2.172l1.293-1.293c.3789722-.3923789.3735524-1.0160848-.0121814-1.4018186s-1.0094397-.3911536-1.4018186-.0121814l-1.293 1.293v-2.172l.707-.707c.3789722-.3923789.3735524-1.0160848-.0121814-1.4018186s-1.0094397-.3911536-1.4018186-.0121814l-.293.293-.293-.293c-.3923789-.3789722-1.0160848-.3735524-1.4018186.0121814s-.3911536 1.0094397-.0121814 1.4018186l.707.707v2.172l-1.293-1.293c-.3923789-.3789722-1.0160848-.3735524-1.4018186.0121814s-.3911536 1.0094397-.0121814 1.4018186l1.293 1.293h-2.172l-.707-.707c-.3923789-.3789722-1.0160848-.3735524-1.4018186.0121814s-.3911536 1.0094397-.0121814 1.4018186l.293.293-.293.293c-.2599566.2510745-.3642126.6228779-.2726972.9725073.0915155.3496295.3645604.6226744.7141899.7141899.3496294.0915154.7214328-.0127406.9725073-.2726972l.707-.707h2.172l-1.293 1.293c-.2599566.2510745-.3642126.6228779-.2726972.9725073.0915155.3496295.3645604.6226744.7141899.7141899.3496294.0915154.7214328-.0127406.9725073-.2726972l1.293-1.293v2.172l-.707.707c-.3789722.3923789-.3735524 1.0160848.0121814 1.4018186s1.0094397.3911536 1.4018186.0121814l.293-.293.293.293c.3923789.3789722 1.0160848.3735524 1.4018186-.0121814s.3911536-1.0094397.0121814-1.4018186l-.707-.707v-2.172l1.293 1.293c.3923789.3789722 1.0160848.3735524 1.4018186-.0121814s.3911536-1.0094397.0121814-1.4018186l-1.293-1.293h2.172l.707.707c.3923789.3789722 1.0160848.3735524 1.4018186-.0121814s.3911536-1.0094397.0121814-1.4018186l-.293-.293.293-.293c.3903819-.3904999.3903819-1.0235001 0-1.414z" fill="#02a9f4"/><path id="Shape" d="m21.707 51.293c-.3904999-.3903819-1.0235001-.3903819-1.414 0l-.707.707h-2.172l1.293-1.293c.3789722-.3923789.3735524-1.0160848-.0121814-1.4018186s-1.0094397-.3911536-1.4018186-.0121814l-1.293 1.293v-2.172l.707-.707c.3789722-.3923789.3735524-1.0160848-.0121814-1.4018186s-1.0094397-.3911536-1.4018186-.0121814l-.293.293-.293-.293c-.3923789-.3789722-1.0160848-.3735524-1.4018186.0121814s-.3911536 1.0094397-.0121814 1.4018186l.707.707v2.172l-1.293-1.293c-.3923789-.3789722-1.0160848-.3735524-1.4018186.0121814s-.3911536 1.0094397-.0121814 1.4018186l1.293 1.293h-2.172l-.707-.707c-.25107447-.2599566-.62287789-.3642126-.97250732-.2726972-.34962944.0915155-.6226744.3645604-.71418984.7141899-.09151544.3496294.01274058.7214328.27269716.9725073l.293.293-.293.293c-.25995658.2510745-.3642126.6228779-.27269716.9725073.09151544.3496295.3645604.6226744.71418984.7141899.34962943.0915154.72143285-.0127406.97250732-.2726972l.707-.707h2.172l-1.293 1.293c-.2599566.2510745-.3642126.6228779-.2726972.9725073.0915155.3496295.3645604.6226744.7141899.7141899.3496294.0915154.7214328-.0127406.9725073-.2726972l1.293-1.293v2.172l-.707.707c-.3789722.3923789-.3735524 1.0160848.0121814 1.4018186s1.0094397.3911536 1.4018186.0121814l.293-.293.293.293c.3923789.3789722 1.0160848.3735524 1.4018186-.0121814s.3911536-1.0094397.0121814-1.4018186l-.707-.707v-2.172l1.293 1.293c.3923789.3789722 1.0160848.3735524 1.4018186-.0121814s.3911536-1.0094397.0121814-1.4018186l-1.293-1.293h2.172l.707.707c.3923789.3789722 1.0160848.3735524 1.4018186-.0121814s.3911536-1.0094397.0121814-1.4018186l-.293-.293.293-.293c.3903819-.3904999.3903819-1.0235001 0-1.414z" fill="#02a9f4"/><path id="Shape" d="m17 40h-1c-.5522847 0-1-.4477153-1-1s.4477153-1 1-1h1c.5522847 0 1 .4477153 1 1s-.4477153 1-1 1z" fill="#7f8e94"/><path id="Shape" d="m36 40h-15c-.5522847 0-1-.4477153-1-1s.4477153-1 1-1h15c.5522847 0 1 .4477153 1 1s-.4477153 1-1 1z" fill="#7f8e94"/><path id="Shape" d="m50 33c-.2651948-.0000566-.5195073-.1054506-.707-.293l-1-1c-.3789722-.3923789-.3735524-1.0160848.0121814-1.4018186s1.0094397-.3911536 1.4018186-.0121814l1 1c.2859079.2859943.3714219.7160366.216678 1.0896546-.1547439.3736179-.5192821.6172591-.923678.6173454z" fill="#e91e63"/><path id="Shape" d="m54 33c-.2651948-.0000566-.5195073-.1054506-.707-.293l-1-1c-.3789722-.3923789-.3735524-1.0160848.0121814-1.4018186s1.0094397-.3911536 1.4018186-.0121814l1 1c.2859079.2859943.3714219.7160366.216678 1.0896546-.1547439.3736179-.5192821.6172591-.923678.6173454z" fill="#e91e63"/><path id="Shape" d="m34 33c-.4043959-.0000863-.7689341-.2437275-.923678-.6173454-.1547439-.373618-.0692299-.8036603.216678-1.0896546l1-1c.3923789-.3789722 1.0160848-.3735524 1.4018186.0121814s.3911536 1.0094397.0121814 1.4018186l-1 1c-.1874927.1875494-.4418052.2929434-.707.293z" fill="#e91e63"/><path id="Shape" d="m30 33c-.4043959-.0000863-.7689341-.2437275-.923678-.6173454-.1547439-.373618-.0692299-.8036603.216678-1.0896546l1-1c.3923789-.3789722 1.0160848-.3735524 1.4018186.0121814s.3911536 1.0094397.0121814 1.4018186l-1 1c-.1874927.1875494-.4418052.2929434-.707.293z" fill="#e91e63"/><g fill="#000"><path id="Shape" d="m51.608 16.777c1.138211-3.9313326-.2340886-8.1594228-3.4640979-10.6729741-3.2300093-2.51355131-7.6656532-2.80512738-11.1969021-.7360259-3.0238196-3.42584083-7.3775719-5.38205933-11.947-5.368-7.3363962.01906592-13.727379 5.00697938-15.528 12.119-4.65685184.7114097-8.18567083 4.576495-8.47144137 9.2786975-.28577054 4.7022024 2.74901453 8.9661827 7.28544137 10.2363025-.19016342.7742902-.28619097 1.5686999-.286 2.366.00606237 5.5203344 4.4796656 9.9939376 10 10h29c6.8336977.004319 12.6719872-4.9256182 13.8124946-11.6634728 1.1405075-6.7378547-2.7500645-13.314583-9.2044946-15.5595272zm-4.608 25.223h-29c-4.4162219-.0049599-7.9950401-3.5837781-8-8 .0006779-.6887976.0911058-1.3745707.269-2.04.243.018.484.04.731.04 1.0749565.0009161 2.1430178-.171635 3.163-.511.5246705-.1747981.8082981-.7418295.6335-1.2665s-.7418295-.8082981-1.2665-.6335c-1.1001035.361586-2.2646889.4843175-3.416.36-.0748712-.0024671-.14976263.0042497-.223.02-.05502751-.0283761-.11261775-.0514792-.172-.069-3.97060063-.6456705-6.8441999-4.139376-6.71161743-8.1599458s3.23010577-7.3173713 7.23461743-7.7000542c1.4828949-.1417069 2.9760149.1310913 4.313.788.3203279.1621467.7029956.1401275 1.0026105-.0576916.299615-.1978191.4701885-.5410743.446912-.8993475s-.2368302-.6765722-.5595225-.8339609c-1.2103828-.5953757-2.5289833-.9389739-3.876-1.01 1.7771606-5.93761855 7.2331494-10.01082228 13.431-10.027 4.2775589-.01241527 8.3223604 1.94635316 10.965 5.31.009.012.024.017.034.029.7588105.96162255 1.3881809 2.01864214 1.872 3.144.2320102.4811719.8012314.6950338 1.2926814.4856729s.7315764-.7680102.5453186-1.2686729c-.4100801-.95500723-.9124655-1.86767406-1.5-2.725 1.1620878-.63731634 2.4656267-.97257101 3.791-.975 2.5207606.00041441 4.8938885 1.18889021 6.4040769 3.20719775 1.5101884 2.01830755 1.9807776 4.63034815 1.2699231 7.04880225-2.7085728-.520216-5.5101969-.2358472-8.059.818-.3395636.1307825-.5812864.4356922-.6311527.7961375-.0498664.3604454.0999952.7195294.3912977.93759.2913024.2180606.6780629.2606764 1.009855.1112725 2.4155792-.9941562 5.0861917-1.1879684 7.62-.553.01971.0115167.0400783.0218678.061.031 5.8321635 1.5386424 9.6158997 7.1673401 8.8389157 13.1487988-.7769839 5.9814587-5.873204 10.4566613-11.9049157 10.4542012z"/><path id="Shape" d="m50 25c-1.6568542 0-3 1.3431458-3 3 0 .5522847.4477153 1 1 1s1-.4477153 1-1 .4477153-1 1-1 1 .4477153 1 1 .4477153 1 1 1 1-.4477153 1-1c0-1.6568542-1.3431458-3-3-3z"/><path id="Shape" d="m34 25c-1.6568542 0-3 1.3431458-3 3 0 .5522847.4477153 1 1 1s1-.4477153 1-1 .4477153-1 1-1 1 .4477153 1 1 .4477153 1 1 1 1-.4477153 1-1c0-1.6568542-1.3431458-3-3-3z"/><path id="Shape" d="m45 31c-.5522847 0-1 .4477153-1 1 0 1.1045695-.8954305 2-2 2s-2-.8954305-2-2c0-.5522847-.4477153-1-1-1s-1 .4477153-1 1c0 2.209139 1.790861 4 4 4s4-1.790861 4-4c0-.5522847-.4477153-1-1-1z"/><path id="Shape" d="m18.593 15.492c-.2275866-.2869618-.5938406-.4265481-.9546891-.3638502-.3608486.0626979-.6585514.3176476-.7760016.66456-.1174502.3469123-.0358542.7302769.2126907.9992902.4260607.4962445.7894565 1.0430174 1.082 1.628.2485281.4940187.8504813.6930281 1.3445.4445s.6930281-.8504813.4445-1.3445c-.3668274-.7285197-.8211855-1.4095531-1.353-2.028z"/></g></g></g></svg>