<svg height="512" viewBox="0 0 60 60" width="512" xmlns="http://www.w3.org/2000/svg"><g id="Page-1" fill="none" fill-rule="evenodd"><g id="008---Full-Moon" fill-rule="nonzero" transform="translate(0 -1)"><path id="Shape" d="m59 31c.0058998 15.496045-12.1800136 28.2546875-27.66 28.96-.44.03-.89.04-1.34.04-14.596585.0014336-26.91761487-10.850155-28.76-25.33-.16087569-1.2166991-.24105089-2.4427117-.24-3.67-.00924107-14.0987011 10.1226608-26.16130646 24.0111824-28.58667806 13.8885215-2.42537159 27.5090841 5.48930825 32.2788176 18.75667806 1.0259415 2.8421974 1.5930334 5.8295565 1.68 8.85.02.32.03.65.03.98z" fill="#9e9e9e"/><path id="Shape" d="m58.97 30.02c-.0869666-3.0204435-.6540585-6.0078026-1.68-8.85-4.1465535-11.50351605-15.0619672-19.17110424-27.29-19.17-.56 0-1.115.022-1.667.053 11.7233884.53329916 21.9697421 8.0796082 25.957 19.117 1.0259415 2.8421974 1.5930334 5.8295565 1.68 8.85.02.32.03.65.03.98.005248 15.4723422-12.1451849 28.2197311-27.6 28.956.5286667.0293333 1.062.044 1.6.044.45 0 .9-.01 1.34-.04 15.4799864-.7053125 27.6658998-13.463955 27.66-28.96 0-.33-.01-.66-.03-.98z" fill="#707070"/><path id="Shape" d="m47.678 14.322c-.2653486.0007185-.5199469-.1047939-.707-.293-7.5579782-7.49433605-19.132443-9.15421473-28.492-4.086-.3143323.1813039-.7022144.1781009-1.0135097-.00836928-.3112953-.18647013-.4971486-.5269424-.485622-.889631.0115267-.3626886.2186241-.69067249.5411317-.85699972 10.1388897-5.49017101 22.6771145-3.69174172 30.864 4.427.2859079.2859943.3714219.7160366.216678 1.0896546-.1547439.3736179-.5192821.6172591-.923678.6173454z" fill="#f5f5f5"/><path id="Shape" d="m12.322 14.322c-.4043959-.0000863-.7689341-.2437275-.923678-.6173454-.1547439-.373618-.0692299-.8036603.216678-1.0896546.556-.556 1.143-1.092 1.744-1.594.27438-.2290073.6500914-.2942387.9856075-.1711223s.5798639.4158764.641.768c.0611361.3521237-.0702275.7101151-.3446075.9391223-.556.463-1.1.959-1.612 1.472-.1870531.1882061-.4416514.2937185-.707.293z" fill="#f5f5f5"/><path id="Shape" d="m26 41h8v1c0 2.209139-1.790861 4-4 4s-4-1.790861-4-4z" fill="#ef314c"/><circle id="Oval" cx="42" cy="27" fill="#607d8b" r="2"/><circle id="Oval" cx="22" cy="23" fill="#607d8b" r="5"/><path id="Shape" d="m22 18c-.5100781.007121-1.0160138.0927928-1.5.254 2.0807519.6438254 3.4994946 2.5679184 3.4994946 4.746s-1.4187427 4.1021746-3.4994946 4.746c1.8757024.5955702 3.9262648.0330725 5.2355561-1.4361857 1.3092914-1.4692582 1.6327423-3.5708265.8258444-5.3657859s-2.5934199-2.9480201-4.5614005-2.9440284z" fill="#37474f"/><circle id="Oval" cx="46" cy="45" fill="#607d8b" r="3"/><path id="Shape" d="m46 42c-.5281059.0027453-1.0459153.1463511-1.5.416.9273539.5298262 1.4996803 1.5159639 1.4996803 2.584s-.5723264 2.0541738-1.4996803 2.584c.4540847.2696489.9718941.4132547 1.5.416 1.6568542 0 3-1.3431458 3-3s-1.3431458-3-3-3z" fill="#37474f"/><circle id="Oval" cx="13" cy="44" fill="#607d8b" r="2"/><circle id="Oval" cx="37" cy="17" fill="#607d8b" r="3"/><path id="Shape" d="m37 14c-.5281059.0027453-1.0459153.1463511-1.5.416.9273539.5298262 1.4996803 1.5159639 1.4996803 2.584s-.5723264 2.0541738-1.4996803 2.584c.4540847.2696489.9718941.4132547 1.5.416 1.6568542 0 3-1.3431458 3-3s-1.3431458-3-3-3z" fill="#37474f"/><path id="Shape" d="m58.97 30.02c-.8579071.6393755-1.900049.9832472-2.97.98-1.9433091.0010523-3.7111984-1.1239772-4.5332808-2.8848383-.8220825-1.760861-.5494257-3.8385478.6991555-5.3276738 1.2485813-1.4891259 3.2468882-2.1199141 5.1241253-1.6174879 1.0259415 2.8421974 1.5930334 5.8295565 1.68 8.85z" fill="#607d8b"/><path id="Shape" d="m57.29 21.17c-.9754796-.2664242-2.0100939-.2188397-2.957.136.9972195 2.8013997 1.5495778 5.7416871 1.637 8.714-.4346427.3225161-.9194749.5711826-1.435.736 1.5094073.4990185 3.1676912.2238219 4.435-.736-.0869666-3.0204435-.6540585-6.0078026-1.68-8.85z" fill="#37474f"/><path id="Shape" d="m32 57c.0046341 1.023663-.2209273 2.0352717-.66 2.96-.44.03-.89.04-1.34.04-4.1331689.0086704-8.2195266-.8747742-11.98-2.59-.016879-.1359769-.0235643-.2730258-.02-.41 0-3.8659932 3.1340068-7 7-7s7 3.1340068 7 7z" fill="#607d8b"/><path id="Shape" d="m25 50c-.5044884.0007247-1.0074167.0560468-1.5.165 3.2122165.701991 5.5015214 3.5469727 5.5 6.835.0045769 1.0207573-.2199375 2.0295344-.657 2.952.549.031 1.1.048 1.657.048.45 0 .9-.01 1.34-.04.4390727-.9247283.6646341-1.936337.66-2.96 0-3.8659932-3.1340068-7-7-7z" fill="#37474f"/><path id="Shape" d="m11 30c0 3.3137085-2.6862915 6-6 6-1.36972104.0065659-2.69905013-.4636489-3.76-1.33-.16087569-1.2166991-.24105089-2.4427117-.24-3.67-.00123358-1.9990034.20317565-3.9928311.61-5.95 1.83670315-1.2577248 4.21877283-1.3952001 6.18797249-.3571236s3.20182511 3.081062 3.20202751 5.3071236z" fill="#607d8b"/><path id="Shape" d="m5 24c-.500781.0039802-.99905534.0711784-1.483.2 2.64410853.6824332 4.49216189 3.0665354 4.49380976 5.7972903s-1.84352678 5.1170858-4.48680976 5.8027097c.48172994.1279806.97758307.1951694 1.476.2 3.3137085 0 6-2.6862915 6-6s-2.6862915-6-6-6z" fill="#37474f"/><g fill="#000"><path id="Shape" d="m.245 34.768v.005.021c1.33440933 10.3124884 7.89571097 19.2064452 17.355 23.525 3.8907517 1.7800714 8.1214005 2.6947786 12.4 2.681.474 0 .946-.011 1.385-.041 16.0277219-.6996951 28.6511771-13.9160535 28.615-29.959 0-.352-.011-.7-.03-1.009-.0891496-3.1264408-.6765319-6.2186372-1.74-9.16-4.5498977-12.62547538-16.9296142-20.69490938-30.3174201-19.76171424-13.3878058.93319515-24.52828557 10.64210114-27.2825799 23.77671424v.019.006c-.41810835 2.0162246-.62920361 4.0698799-.63 6.129-.00033544 1.2599906.08150491 2.5186618.245 3.768zm1.944-.656c-.12270059-1.0328439-.18580511-2.0718982-.189-3.112.00172544-1.7859288.17350064-3.5676361.513-5.321.75449373-.4419825 1.61258488-.6762583 2.487-.679 2.76142375 0 5 2.2385763 5 5s-2.23857625 5-5 5c-1.00609727.0005966-1.98782954-.3095344-2.811-.888zm16.824 22.634c.2013824-3.2106776 2.8990764-5.6912068 6.1153415-5.6230554 3.2162651.0681515 5.8064619 2.6607291 5.8716585 5.8770554.0019109.674516-.1124288 1.3443168-.338 1.98-.221.007-.44.02-.662.02-3.7779678.0082197-7.5174329-.7589374-10.987-2.254zm37.5-34.712c.816211 2.4109707 1.2934413 4.9236654 1.418 7.466-.590057.3297059-1.2550787.5019021-1.931.5-2.209139 0-4-1.790861-4-4s1.790861-4 4-4c.1725485.0003352.3448994.0116917.516.034zm-26.513-19.034c11.2073687.02508301 21.3264085 6.71254074 25.743 17.013-2.3631259.086275-4.4551822 1.5525051-5.3425846 3.744382s-.404625 4.7005531 1.2328919 6.4065267c1.6375168 1.7059736 4.1243295 2.2910318 6.3506927 1.4940913-.2994319 14.1391067-11.1245506 25.8207843-25.2 27.194.6847492-2.8616301-.2576817-5.8681049-2.4534413-7.8267902-2.1957595-1.9586853-5.289928-2.5529818-8.0550841-1.5471389s-4.7543436 3.4492421-5.1784746 6.3609291c-7.49239053-3.9172372-12.82673986-10.9953107-14.528-19.277 2.85022302 1.0714796 6.06618397.1789673 7.9565568-2.2081503 1.8903729-2.3871176 2.0221329-5.7220272.3259854-8.2508459-1.69614747-2.5288186-4.8316687-3.6722737-7.7575422-2.8290038 3.47420991-11.9811252 14.4313793-20.2374863 26.906-20.274z"/><path id="Shape" d="m23 35c-.5522847 0-1 .4477153-1 1s-.4477153 1-1 1-1-.4477153-1-1-.4477153-1-1-1-1 .4477153-1 1c0 1.6568542 1.3431458 3 3 3s3-1.3431458 3-3c0-.5522847-.4477153-1-1-1z"/><path id="Shape" d="m41 35c-.5522847 0-1 .4477153-1 1s-.4477153 1-1 1-1-.4477153-1-1-.4477153-1-1-1-1 .4477153-1 1c0 1.6568542 1.3431458 3 3 3s3-1.3431458 3-3c0-.5522847-.4477153-1-1-1z"/><path id="Shape" d="m25 41v1c0 2.7614237 2.2385763 5 5 5s5-2.2385763 5-5v-1c0-.5522847-.4477153-1-1-1h-8c-.5522847 0-1 .4477153-1 1zm8 1c0 1.6568542-1.3431458 3-3 3s-3-1.3431458-3-3z"/><path id="Shape" d="m39 27c0 1.6568542 1.3431458 3 3 3s3-1.3431458 3-3-1.3431458-3-3-3-3 1.3431458-3 3zm3-1c.5522847 0 1 .4477153 1 1s-.4477153 1-1 1-1-.4477153-1-1 .4477153-1 1-1z"/><path id="Shape" d="m22 29c3.3137085 0 6-2.6862915 6-6s-2.6862915-6-6-6-6 2.6862915-6 6c.0033074 3.3123376 2.6876624 5.9966926 6 6zm0-10c2.209139 0 4 1.790861 4 4s-1.790861 4-4 4-4-1.790861-4-4 1.790861-4 4-4z"/><path id="Shape" d="m42 45c0 2.209139 1.790861 4 4 4s4-1.790861 4-4-1.790861-4-4-4-4 1.790861-4 4zm4-2c1.1045695 0 2 .8954305 2 2s-.8954305 2-2 2-2-.8954305-2-2 .8954305-2 2-2z"/><path id="Shape" d="m10 44c0 1.6568542 1.3431458 3 3 3s3-1.3431458 3-3-1.3431458-3-3-3-3 1.3431458-3 3zm3-1c.5522847 0 1 .4477153 1 1s-.4477153 1-1 1-1-.4477153-1-1 .4477153-1 1-1z"/><path id="Shape" d="m37 21c2.209139 0 4-1.790861 4-4s-1.790861-4-4-4-4 1.790861-4 4 1.790861 4 4 4zm0-6c1.1045695 0 2 .8954305 2 2s-.8954305 2-2 2-2-.8954305-2-2 .8954305-2 2-2z"/></g></g></g></svg>