<svg height="512" viewBox="0 0 40 60" width="512" xmlns="http://www.w3.org/2000/svg"><g id="Page-1" fill="none" fill-rule="evenodd"><g id="009---Low-Temperature" fill-rule="nonzero" transform="translate(-1 -1)"><path id="Shape" d="m30 23.141v-12.141c0-4.97056275-4.0294373-9-9-9s-9 4.02943725-9 9v12.141c.0073189.6628244-.3295457 1.2820498-.89 1.636-7.2630587 4.4275015-10.69840017 13.1428741-8.40976954 21.3353682 2.28863063 8.1924942 9.74349734 13.8656109 18.24963014 13.8878783 8.5061328.0222673 15.9905993-5.6117412 18.3220909-13.7921408s-1.0581728-16.9136387-8.2979515-21.3791057c-.5953871-.3557237-.9639774-.9945126-.974-1.688z" fill="#02a9f4"/><path id="Shape" d="m30.974 24.829c-.5953871-.3557237-.9639774-.9945126-.974-1.688v-12.141c.0240346-2.39423561-.916457-4.69741195-2.6095225-6.39047748-1.6930656-1.69306554-3.9962419-2.63355716-6.3904775-2.60952252-.496787.00322133-.9924639.04737069-1.482.132 4.342881.70069641 7.5223465 4.46914074 7.482 8.868v12.141c.0100226.6934874.3786129 1.3322763.974 1.688 6.9909832 4.3175426 10.4144623 12.6397749 8.4851596 20.6268151-1.9293028 7.9870402-8.7741791 13.8289087-16.9651596 14.4791849 8.7459208.6904253 16.8274015-4.6970153 19.554206-13.0356216s-.6101522-17.4599859-8.074206-22.0703784z" fill="#0377bc"/><circle id="Oval" cx="21" cy="41" fill="#283593" r="15"/><ellipse id="Oval" cx="21" cy="41" fill="#3f51b5" rx="12" ry="15"/><path id="Shape" d="m26 12c-.5522847 0-1-.4477153-1-1 0-3.955-3.837-4-4-4-.5522847 0-1-.44771525-1-1s.4477153-1 1-1c1.6092265-.06100595 3.1710529.55152237 4.3097653 1.69023471 1.1387123 1.13871235 1.7512407 2.7005388 1.6902347 4.30976529 0 .5522847-.4477153 1-1 1z" fill="#f5f5f5"/><circle id="Oval" cx="13" cy="39" fill="#02a9f4" r="2"/><circle id="Oval" cx="29" cy="39" fill="#02a9f4" r="2"/><path id="Shape" d="m14 46c-.4043959-.0000863-.7689341-.2437275-.923678-.6173454-.1547439-.373618-.0692299-.8036603.216678-1.0896546l1-1c.3923789-.3789722 1.0160848-.3735524 1.4018186.0121814s.3911536 1.0094397.0121814 1.4018186l-1 1c-.1874927.1875494-.4418052.2929434-.707.293z" fill="#e91e63"/><path id="Shape" d="m10 46c-.4043959-.0000863-.76893405-.2437275-.92367798-.6173454-.15474393-.373618-.06922994-.8036603.21667798-1.0896546l1-1c.3923789-.3789722 1.0160848-.3735524 1.4018186.0121814s.3911536 1.0094397.0121814 1.4018186l-1 1c-.1874927.1875494-.4418052.2929434-.707.293z" fill="#e91e63"/><path id="Shape" d="m28 46c-.2651948-.0000566-.5195073-.1054506-.707-.293l-1-1c-.3789722-.3923789-.3735524-1.0160848.0121814-1.4018186s1.0094397-.3911536 1.4018186-.0121814l1 1c.2859079.2859943.3714219.7160366.216678 1.0896546-.1547439.3736179-.5192821.6172591-.923678.6173454z" fill="#e91e63"/><path id="Shape" d="m32 46c-.2651948-.0000566-.5195073-.1054506-.707-.293l-1-1c-.3789722-.3923789-.3735524-1.0160848.0121814-1.4018186s1.0094397-.3911536 1.4018186-.0121814l1 1c.2859079.2859943.3714219.7160366.216678 1.0896546-.1547439.3736179-.5192821.6172591-.923678.6173454z" fill="#e91e63"/><g fill="#000"><path id="Shape" d="m18.7 60.871c.77437.0858469 1.552886.1289123 2.332.129 4.9117495.0146749 9.653031-1.7998456 13.3-5.09 4.7049574-4.2072427 7.1478287-10.3885642 6.5902253-16.6755821-.5576034-6.2870178-4.0502433-11.9419115-9.4222253-15.2554179-.300896-.1735375-.4901853-.4907863-.5-.838v-12.141c.0286632-2.66084841-1.0156984-5.22107538-2.8973115-7.10268849-1.8816131-1.88161312-4.4418401-2.92597471-7.1026885-2.89731151-5.5203344.00606237-9.9939376 4.47966557-10 10v12.141c.0077831.3142798-.1477333.6101773-.411.782-6.7644715 4.0827642-10.46761674 11.7850864-9.432 19.618 1.19492658 9.1095278 8.41955549 16.2464382 17.543 17.33zm-7.065-35.24c.5944687-.3751124 1.030416-.9555451 1.225-1.631h1.14c.5522847 0 1-.4477153 1-1s-.4477153-1-1-1h-1v-2h3c.5522847 0 1-.4477153 1-1s-.4477153-1-1-1h-3v-2h1c.5522847 0 1-.4477153 1-1s-.4477153-1-1-1h-1v-2h3c.5522847 0 1-.4477153 1-1s-.4477153-1-1-1h-2.931c.507003-3.995865 3.9031042-6.99330651 7.931-7 2.1286952-.02298571 4.176909.81248585 5.6822116 2.31778843 1.5053026 1.50530259 2.3407741 3.55351634 2.3177884 5.68221157v12.141c.0071574 1.041117.5562618 2.0032814 1.449 2.539 6.858918 4.2302593 10.0704273 12.5038368 7.8618044 20.2537939-2.2086228 7.7499571-9.2991317 13.0876121-17.3576309 13.0666287s-15.12111478-5.3954917-17.28934792-13.1568456c-2.16823313-7.7613539 1.08631935-16.0180945 7.96717442-20.212577z"/><path id="Shape" d="m21 57c8.836556 0 16-7.163444 16-16s-7.163444-16-16-16-16 7.163444-16 16c.01046962 8.8322157 7.1677843 15.9895304 16 16zm0-30c7.7319865 0 14 6.2680135 14 14s-6.2680135 14-14 14-14-6.2680135-14-14c.00826732-7.7285595 6.2714405-13.9917327 14-14z"/><path id="Shape" d="m16 39c0-1.2133867-.7309265-2.3072956-1.8519497-2.7716386s-2.4113767-.2076757-3.2693706.6503183c-.857994.8579939-1.1146613 2.1483474-.6503183 3.2693706s1.5582519 1.8519497 2.7716386 1.8519497c1.6568542 0 3-1.3431458 3-3zm-4 0c0-.5522847.4477153-1 1-1s1 .4477153 1 1-.4477153 1-1 1-1-.4477153-1-1z"/><path id="Shape" d="m29 42c1.6568542 0 3-1.3431458 3-3s-1.3431458-3-3-3-3 1.3431458-3 3 1.3431458 3 3 3zm0-4c.5522847 0 1 .4477153 1 1s-.4477153 1-1 1-1-.4477153-1-1 .4477153-1 1-1z"/><path id="Shape" d="m18 47c.5522847 0 1-.4477153 1-1 0-1.1045695.8954305-2 2-2s2 .8954305 2 2c0 .5522847.4477153 1 1 1s1-.4477153 1-1c0-2.209139-1.790861-4-4-4s-4 1.790861-4 4c0 .5522847.4477153 1 1 1z"/></g></g></g></svg>