<svg height="512" viewBox="0 0 40 60" width="512" xmlns="http://www.w3.org/2000/svg"><g id="Page-1" fill="none" fill-rule="evenodd"><g id="010---High-Temperature" fill-rule="nonzero" transform="translate(-1 -1)"><path id="Shape" d="m30 23.141v-12.141c0-4.97056275-4.0294373-9-9-9s-9 4.02943725-9 9v12.141c.0073189.6628244-.3295457 1.2820498-.89 1.636-7.2630587 4.4275015-10.69840017 13.1428741-8.40976954 21.3353682 2.28863063 8.1924942 9.74349734 13.8656109 18.24963014 13.8878783 8.5061328.0222673 15.9905993-5.6117412 18.3220909-13.7921408s-1.0581728-16.9136387-8.2979515-21.3791057c-.5953871-.3557237-.9639774-.9945126-.974-1.688z" fill="#02a9f4"/><path id="Shape" d="m30.974 24.829c-.5953871-.3557237-.9639774-.9945126-.974-1.688v-12.141c.0240346-2.39423561-.916457-4.69741195-2.6095225-6.39047748-1.6930656-1.69306554-3.9962419-2.63355716-6.3904775-2.60952252-.496787.00322133-.9924639.04737069-1.482.132 4.342881.70069641 7.5223465 4.46914074 7.482 8.868v12.141c.0100226.6934874.3786129 1.3322763.974 1.688 6.9909832 4.3175426 10.4144623 12.6397749 8.4851596 20.6268151-1.9293028 7.9870402-8.7741791 13.8289087-16.9651596 14.4791849 8.7459208.6904253 16.8274015-4.6970153 19.554206-13.0356216s-.6101522-17.4599859-8.074206-22.0703784z" fill="#0377bc"/><path id="Shape" d="m21 56c-.5837348-.000991-1.1669649-.0343756-1.747-.1-6.3572491-.7457269-11.54088134-5.4433391-12.90687627-11.6967208s1.3866443-12.6846009 6.85387627-16.0132792c1.7444808-1.0847705 2.8036913-2.994754 2.8-5.049v-7.141c.0033061-2.7600532 2.2399468-4.9966939 5-5 1.3351664-.030388 2.6246685.4866321 3.5690182 1.4309818s1.4613698 2.2338518 1.4309818 3.5690182v7.141c.0031032 2.081966 1.0916834 4.0116183 2.872 5.091 5.710198 3.5208513 8.3883554 10.4050838 6.5586791 16.8591553-1.8296763 6.4540716-7.7222699 10.9085666-14.4306791 10.9088447z" fill="#bb193b"/><path id="Shape" d="m21 56c-.4684174-.0009247-.9362066-.0343383-1.4-.1-5.421-.758-9.838-6.214-10.506-12.974-.59-5.974 1.579-11.621 5.66-14.738 1.4757068-1.2543743 2.3019435-3.1110156 2.246-5.047v-7.141c0-2.757 1.8-5 4-5 2.28 0 4 2.149 4 5v7.141c-.0535275 1.9596978.7940677 3.8358312 2.3 5.091 3.568 2.759 5.7 7.532 5.7 12.768.0589038 3.831023-1.1799085 7.569311-3.515 10.607-1.9979344 2.6963565-5.1299379 4.3179112-8.485 4.393z" fill="#ef314c"/><circle id="Oval" cx="13" cy="38" fill="#ffdc00" r="2"/><circle id="Oval" cx="29" cy="38" fill="#ffdc00" r="2"/><g fill="#bb193b"><path id="Shape" d="m18 42h6v1c0 1.6568542-1.3431458 3-3 3s-3-1.3431458-3-3z"/><path id="Shape" d="m14 45c-.4043959-.0000863-.7689341-.2437275-.923678-.6173454-.1547439-.373618-.0692299-.8036603.216678-1.0896546l1-1c.3923789-.3789722 1.0160848-.3735524 1.4018186.0121814s.3911536 1.0094397.0121814 1.4018186l-1 1c-.1874927.1875494-.4418052.2929434-.707.293z"/><path id="Shape" d="m10 45c-.4043959-.0000863-.76893405-.2437275-.92367798-.6173454-.15474393-.373618-.06922994-.8036603.21667798-1.0896546l1-1c.3923789-.3789722 1.0160848-.3735524 1.4018186.0121814s.3911536 1.0094397.0121814 1.4018186l-1 1c-.1874927.1875494-.4418052.2929434-.707.293z"/><path id="Shape" d="m28 45c-.2651948-.0000566-.5195073-.1054506-.707-.293l-1-1c-.3789722-.3923789-.3735524-1.0160848.0121814-1.4018186s1.0094397-.3911536 1.4018186-.0121814l1 1c.2859079.2859943.3714219.7160366.216678 1.0896546-.1547439.3736179-.5192821.6172591-.923678.6173454z"/><path id="Shape" d="m32 45c-.2651948-.0000566-.5195073-.1054506-.707-.293l-1-1c-.3789722-.3923789-.3735524-1.0160848.0121814-1.4018186s1.0094397-.3911536 1.4018186-.0121814l1 1c.2859079.2859943.3714219.7160366.216678 1.0896546-.1547439.3736179-.5192821.6172591-.923678.6173454z"/></g><path id="Shape" d="m18.7 60.871c.77437.0858469 1.552886.1289123 2.332.129 4.9117495.0146749 9.653031-1.7998456 13.3-5.09 4.7049574-4.2072427 7.1478287-10.3885642 6.5902253-16.6755821-.5576034-6.2870178-4.0502433-11.9419115-9.4222253-15.2554179-.300896-.1735375-.4901853-.4907863-.5-.838v-12.141c.0286632-2.66084841-1.0156984-5.22107538-2.8973115-7.10268849-1.8816131-1.88161312-4.4418401-2.92597471-7.1026885-2.89731151-5.5203344.00606237-9.9939376 4.47966557-10 10v12.141c.0077831.3142798-.1477333.6101773-.411.782-6.7644715 4.0827642-10.46761674 11.7850864-9.432 19.618 1.19492658 9.1095278 8.41955549 16.2464382 17.543 17.33zm-7.065-35.24c.5944687-.3751124 1.030416-.9555451 1.225-1.631h.14c.5522847 0 1-.4477153 1-1s-.4477153-1-1-1v-2c.5522847 0 1-.4477153 1-1s-.4477153-1-1-1v-2c.5522847 0 1-.4477153 1-1s-.4477153-1-1-1v-2c.5375156.0022226.9794214-.4232622.9975449-.9604768.0181236-.5372146-.3941016-.9915145-.9305449-1.0255232.5006396-4.00217354 3.8996404-7.00741641 7.933-7.014 2.1286952-.02298571 4.176909.81248585 5.6822116 2.31778843 1.5053026 1.50530259 2.3407741 3.55351634 2.3177884 5.68221157v12.141c.0071574 1.041117.5562618 2.0032814 1.449 2.539 6.858918 4.2302593 10.0704273 12.5038368 7.8618044 20.2537939-2.2086228 7.7499571-9.2991317 13.0876121-17.3576309 13.0666287s-15.12111478-5.3954917-17.28934792-13.1568456c-2.16823313-7.7613539 1.08631935-16.0180945 7.96717442-20.212577z" fill="#000"/><path id="Shape" d="m19.142 56.9c.6170211.067501 1.2372983.1008852 1.858.1 7.1560991.0009896 13.4426745-4.7499449 15.395156-11.6345342 1.9524816-6.8845894-.9039738-14.2285033-6.995156-17.9844658-1.4856858-.8971026-2.3955212-2.5044784-2.4-4.24v-7.141c.0364656-1.6021997-.5839585-3.1496021-1.7171782-4.2828218s-2.6806221-1.75364375-4.2828218-1.7171782c-3.3123376.0033074-5.9966926 2.6876624-6 6v7.141c.0049792 1.7085077-.875154 3.2977422-2.326 4.2-5.83379619 3.5515951-8.76996958 10.414709-7.31002544 17.0867078 1.45994413 6.6719989 6.99407964 11.6816685 13.77802544 12.4722922zm-5.426-27.856c2.0427382-1.2664901 3.2850268-3.4995076 3.284-5.903v-7.141c0-2.209139 1.790861-4 4-4 1.0680493-.0240227 2.0994823.3896858 2.8548982 1.1451018.755416.7554159 1.1691245 1.7868489 1.1451018 2.8548982v7.141c.0017738 2.429168 1.2704641 4.6815006 3.347 5.942 5.3357137 3.2896622 7.8344764 9.7250906 6.1167903 15.7534628-1.7176862 6.0283723-7.2331377 10.1802813-13.501426 10.1635727-6.2682884-.0167086-11.76152722-4.1979621-13.44705106-10.2354058-1.68552384-6.0374438.84751135-12.4594596 6.20068676-15.7206297z" fill="#000"/><path id="Shape" d="m13 41c1.6568542 0 3-1.3431458 3-3s-1.3431458-3-3-3-3 1.3431458-3 3 1.3431458 3 3 3zm0-4c.5522847 0 1 .4477153 1 1s-.4477153 1-1 1-1-.4477153-1-1 .4477153-1 1-1z" fill="#000"/><path id="Shape" d="m29 41c1.6568542 0 3-1.3431458 3-3s-1.3431458-3-3-3-3 1.3431458-3 3 1.3431458 3 3 3zm0-4c.5522847 0 1 .4477153 1 1s-.4477153 1-1 1-1-.4477153-1-1 .4477153-1 1-1z" fill="#000"/><path id="Shape" d="m21 47c2.209139 0 4-1.790861 4-4v-1c0-.5522847-.4477153-1-1-1h-6c-.5522847 0-1 .4477153-1 1v1c0 2.209139 1.790861 4 4 4zm2-4c0 1.1045695-.8954305 2-2 2s-2-.8954305-2-2z" fill="#000"/></g></g></svg>