<svg height="512" viewBox="0 0 60 60" width="512" xmlns="http://www.w3.org/2000/svg"><g id="Page-1" fill="none" fill-rule="evenodd"><g id="011---Sunny-and-Clouds" fill-rule="nonzero" transform="translate(-1)"><path id="Shape" d="m51.74 26.62-3.07 3.07c-1.9989552-1.7390625-4.5604457-2.6947364-7.21-2.69-2.9721944.0211339-5.814099 1.22283-7.8998075 3.3404243-2.0857085 2.1175944-3.2441519 4.9774028-3.2201925 7.9495757-.0019586.0568543.0013892.1137674.01.17-4.1160594.7888711-7.3408873 3.9978717-8.15 8.11l-.1-.1c-.2150295-.2205929-.5321015-.3084562-.83-.23l-6.12 1.52c-.2214958.057924-.4569503.0250311-.654092-.0913764s-.3396574-.306697-.395908-.5286236l-1.58-5.87c-.0843763-.2914803-.3099541-.5208177-.6-.61l-6.06-1.74c-.46135502-.130316-.73288769-.606611-.61-1.07l1.58-5.86c.07719925-.2961031-.00627021-.6110106-.22-.83l-4.39-4.56c-.33001243-.3319324-.33001243-.8680676 0-1.2l4.39-4.56c.21372979-.2189894.29719925-.5338969.22-.83l-1.58-5.86c-.12288769-.463389.14864498-.939684.61-1.07l6.06-1.74c.2900459-.0891823.5156237-.3185197.6-.61l1.58-5.87c.0562506-.22192663.1987663-.41221608.395908-.52862358.1971417-.11640749.4325962-.14930041.654092-.09137642l6.12 1.52c.2978985.07845625.6149705-.00940707.83-.23l4.28-4.27c.1625707-.16790374.3862888-.26269258.62-.26269258s.4574293.09478884.62.26269258l4.27 4.27c.2190348.22083127.5390201.30844629.84.23l6.13-1.52c.4564383-.11202155.9211183.15100483 1.06.6l1.74 6.08c.0789908.2961074.3126275.525914.61.6l5.87 1.58c.4570146.1242135.7319485.5898274.62 1.05l-1.52 6.12c-.0771992.2961031.0062702.6110106.22.83l4.28 4.28c.3401225.3433636.3401225.8966364 0 1.24z" fill="#ff9801"/><path id="Shape" d="m44 26c0 .43-.02.87-.05 1.29-.8158358-.1935237-1.6515259-.2908531-2.49-.29-.16 0-.33 0-.49.01-5.9888212.3141976-10.6713811 5.2830852-10.63 11.28-.0019586.0568543.0013892.1137674.01.17-2.5966392.4869232-4.9003563 1.9689094-6.42 4.13l-.09.12c-8.8204459-1.668647-14.82331506-9.9077702-13.7083672-18.8151571 1.1149479-8.9073868 8.9633982-15.41272433 17.9230025-14.85582195 8.9596043.55690237 15.9420506 7.98408435 15.9453647 16.96097905z" fill="#fec108"/><path id="Shape" d="m41 26c0 .34-.01.67-.03 1.01-5.9888212.3141976-10.6713811 5.2830852-10.63 11.28-.0019586.0568543.0013892.1137674.01.17-2.5966392.4869232-4.9003563 1.9689094-6.42 4.13-6.26-1.7-10.93-8.48-10.93-16.59 0-8.924 5.892-17 14-17 8.231 0 14 8.223 14 17z" fill="#ffdc00"/><path id="Shape" d="m28.89 5.53c.2190348.22083127.5390201.30844629.84.23l1.915-.475-4.025-4.025c-.1625707-.16790374-.3862888-.26269258-.62-.26269258s-.4574293.09478884-.62.26269258l-.881.879z" fill="#f57c00"/><path id="Shape" d="m51.74 25.38-4.28-4.28c-.2137298-.2189894-.2971992-.5338969-.22-.83l1.52-6.12c.1119485-.4601726-.1629854-.9257865-.62-1.05l-5.87-1.58c-.2973725-.074086-.5310092-.3038926-.61-.6l-1.74-6.08c-.1388817-.44899517-.6035617-.71202155-1.06-.6l-2 .5c.0213246.03195354.0403717.06536958.057.1l1.74 6.08c.0789908.2961074.3126275.525914.61.6l5.87 1.58c.4570146.1242135.7319485.5898274.62 1.05l-1.52 6.12c-.0771992.2961031.0062702.6110106.22.83l4.28 4.28c.3401225.3433636.3401225.8966364 0 1.24l-1.831 1.831c.6269719.3545274 1.2177819.7695011 1.764 1.239l3.07-3.07c.3401225-.3433636.3401225-.8966364 0-1.24z" fill="#f57c00"/><path id="Shape" d="m15 25c-.4043959-.0000863-.7689341-.2437275-.923678-.6173454-.1547439-.373618-.0692299-.8036603.216678-1.0896546l1-1c.3923789-.3789722 1.0160848-.3735524 1.4018186.0121814s.3911536 1.0094397.0121814 1.4018186l-1 1c-.1874927.1875494-.4418052.2929434-.707.293z" fill="#e91e63"/><path id="Shape" d="m19 25c-.4043959-.0000863-.7689341-.2437275-.923678-.6173454-.1547439-.373618-.0692299-.8036603.216678-1.0896546l1-1c.3923789-.3789722 1.0160848-.3735524 1.4018186.0121814s.3911536 1.0094397.0121814 1.4018186l-1 1c-.1874927.1875494-.4418052.2929434-.707.293z" fill="#e91e63"/><path id="Shape" d="m39 25c-.2651948-.0000566-.5195073-.1054506-.707-.293l-1-1c-.3789722-.3923789-.3735524-1.0160848.0121814-1.4018186s1.0094397-.3911536 1.4018186-.0121814l1 1c.2859079.2859943.3714219.7160366.216678 1.0896546-.1547439.3736179-.5192821.6172591-.923678.6173454z" fill="#e91e63"/><path id="Shape" d="m35 25c-.2651948-.0000566-.5195073-.1054506-.707-.293l-1-1c-.3789722-.3923789-.3735524-1.0160848.0121814-1.4018186s1.0094397-.3911536 1.4018186-.0121814l1 1c.2859079.2859943.3714219.7160366.216678 1.0896546-.1547439.3736179-.5192821.6172591-.923678.6173454z" fill="#e91e63"/><path id="Shape" d="m60 50.53c.0343766 4.6413365-3.6986869 8.4325893-8.34 8.47h-19.46c-2.7256219-.0182293-5.3321784-1.1193195-7.245408-3.0606849-1.9132296-1.9413653-2.9761526-4.5637175-2.954592-7.2893151.0001962-.6981242.0671678-1.3946292.2-2.08.2769222-1.3852877.8350953-2.6990365 1.64-3.86 1.521116-2.2233227 3.8625717-3.7519228 6.51-4.25-.0086108-.0562326-.0119586-.1131457-.01-.17-.0239594-2.9721729 1.134484-5.8319813 3.2201925-7.9495757 2.0857085-2.1175943 4.9276131-3.3192904 7.8998075-3.3404243 2.6474348.0069932 5.2049632.961189 7.21 2.69 2.4985611 2.1576354 3.9303361 5.2987743 3.92 8.6-.0001363 1.2869504-.2164805 2.5647335-.64 3.78 4.5253035.1885726 8.0862789 3.9309146 8.05 8.46z" fill="#f5f5f5"/><path id="Shape" d="m51.95 42.07c.4235195-1.2152665.6398637-2.4930496.64-3.78.0103361-3.3012257-1.4214389-6.4423646-3.92-8.6-2.0050368-1.728811-4.5625652-2.6830068-7.21-2.69-.5020474.0038466-1.0032336.0422708-1.5.115.334.046.667.1.991.175 1.7477964.3968083 3.3696773 1.2214935 4.72 2.4 2.4985611 2.1576354 3.9303361 5.2987743 3.92 8.6-.0001363 1.2869504-.2164805 2.5647335-.64 3.78 4.5621354.2313862 8.1191663 4.0383824 8.0406612 8.6057072s-3.7642687 8.2498288-8.3316612 8.3242928h3c4.5672865-.0748702 8.2526799-3.7575504 8.3309136-8.3247806.0782337-4.5672301-3.4788707-8.3739697-8.0409136-8.6052194z" fill="#cfd8dc"/><circle id="Oval" cx="20" cy="18" fill="#02a9f4" r="2"/><circle id="Oval" cx="34" cy="18" fill="#02a9f4" r="2"/><g fill="#000"><path id="Shape" d="m30 21c-.5522847 0-1 .4477153-1 1 0 1.1045695-.8954305 2-2 2s-2-.8954305-2-2c0-.5522847-.4477153-1-1-1s-1 .4477153-1 1c0 2.209139 1.790861 4 4 4s4-1.790861 4-4c0-.5522847-.4477153-1-1-1z"/><path id="Shape" d="m53.246 41.2c.9859487-4.1258736-.2000994-8.4696898-3.146-11.522l2.352-2.351c.7304951-.7338689.7304951-1.9201311 0-2.654l-4.221-4.221 1.507-6.074c.2393836-.9875378-.3554048-1.9850753-1.338-2.244l-5.8-1.56-1.727-6.038c-.2967853-.95290876-1.2858334-1.50842557-2.254-1.266l-6.07 1.5-4.212-4.208c-.7404573-.72008165-1.9181577-.72450245-2.664-.01l-4.23 4.22-6.043-1.501c-.9919565-.25320279-2.0027956.33965036-2.266 1.329l-1.56 5.8-5.986 1.718c-.98870317.2780286-1.56877599 1.3007416-1.3 2.292l1.559 5.783-4.331 4.5c-.71799944.7158724-.72380499 1.8769836-.013 2.6l4.344 4.514-1.566 5.793c-.26166307.9869575.31716727 2.0012464 1.3 2.278l5.989 1.72 1.559 5.792c.2159562.8182434.9537526 1.3900356 1.8 1.395.1534976-.0001955.3063621-.0196815.455-.058l5.695-1.414c-.0522003.4427567-.0785782.888177-.079 1.334-.0360364 6.2253127 4.9747713 11.3045716 11.2 11.353h19.459c4.8682768-.0778908 8.8861748-3.830641 9.2957258-8.6822855.4095511-4.8516445-2.9223968-9.2248312-7.7087258-10.1177145zm-32.217 4.07-6 1.488-1.545-5.758c-.1765209-.6249818-.661252-1.1157532-1.284-1.3l-5.952-1.709 1.552-5.743c.16912081-.6343061-.00788699-1.3108101-.466-1.781l-4.304-4.467 4.3-4.469c.45953862-.4693803.63809357-1.1459896.47-1.781l-1.552-5.741 5.968-1.709c.6178693-.1875085 1.0969656-.6779221 1.27-1.3l1.547-5.748 5.979 1.484c.6422462.17232159 1.3275402-.0140906 1.794-.488l4.194-4.194 4.182 4.182c.4667763.46985493 1.1472627.65775897 1.789.494l6.023-1.493 1.7 5.941c.167575.6432141.671776 1.1443501 1.316 1.308l5.748 1.547-1.484 5.979c-.1692331.6409396.0129342 1.3235915.479 1.795l4.193 4.193-2.365 2.364c-1.0880775-.8095908-2.3052412-1.42933-3.6-1.833.006-.177.021-.352.021-.531-.000448-9.324864-7.1222579-17.10550297-16.410703-17.92883509s-17.6678191 5.58327469-19.3084932 14.76266879c-1.64067407 9.1793942 4.0006324 18.0919797 12.9991962 20.5371663-.3040251.5904932-.5556566 1.2065217-.752 1.841-.1688824-.0040114-.337501.0155093-.501.058zm8.328-7.609c-2.3539583.6236455-4.4380289 2.0029545-5.932 3.926-8.16022-1.8705922-13.49878634-9.7155214-12.244369-17.9928847 1.2544174-8.2773633 8.677652-14.18826795 17.0256991-13.5570663 8.3480471.6312017 14.7981131 7.5910763 14.7936699 15.962951v.109c-3.3777441-.4596023-6.7918599.535755-9.3933987 2.738568-2.6015389 2.202813-4.1460949 5.4061345-4.2496013 8.813432zm22.302 20.339h-19.459c-4.7831319-.0877027-8.7317545-3.7652444-9.1588507-8.5300771-.4270963-4.7648327 2.8045631-9.0859797 7.4958507-10.0229229 1.9620024-.3626949 3.9888216-.0710915 5.769.83.1397413.0720664.2947709.1094518.452.109.4625433.0004615.8650435-.3163539.9732495-.7660627.1082059-.4497087-.106123-.9149415-.5182495-1.1249373-1.7981437-.909707-3.8103368-1.3117999-5.82-1.163.3845306-5.4842138 5.0794089-9.6569059 10.5708503-9.3951109 5.4914414.2617949 9.7680781 4.8621884 9.6291497 10.3581109.000298.9434522-.128565 1.882504-.383 2.791-1.2980927.0554651-2.5692583.3882596-3.728.976-.3263766.157429-.5420528.4791008-.563752.8408116-.0216991.3617109.1539743.7068598.4591895.9021782.3052152.1953185.6922116.2102427 1.0115625.0390102 1.0145796-.5188161 2.1384699-.7876172 3.278-.784.0425781-.0055808.0846906-.0142707.126-.026.041622.0141092.0840263.0257954.127.035 4.0214238.2078604 7.1545898 3.565439 7.0842106 7.5916161s-3.3189789 7.2721998-7.3452106 7.3393839z"/><path id="Shape" d="m41.463 30c-2.5459062-.0001207-4.9402554 1.2100464-6.45 3.26-.3313708.4418278-.2418278 1.0686291.2 1.4.4418278.3313708 1.0686291.2418278 1.4-.2 1.1336012-1.5444662 2.9341653-2.457742 4.85-2.46.5522847 0 1-.4477153 1-1s-.4477153-1-1-1z"/><path id="Shape" d="m20 15c-1.6568542 0-3 1.3431458-3 3s1.3431458 3 3 3 3-1.3431458 3-3-1.3431458-3-3-3zm0 4c-.5522847 0-1-.4477153-1-1s.4477153-1 1-1 1 .4477153 1 1-.4477153 1-1 1z"/><path id="Shape" d="m37 18c0-1.6568542-1.3431458-3-3-3s-3 1.3431458-3 3 1.3431458 3 3 3 3-1.3431458 3-3zm-4 0c0-.5522847.4477153-1 1-1s1 .4477153 1 1-.4477153 1-1 1-1-.4477153-1-1z"/><path id="Shape" d="m32 47c0-1.6568542-1.3431458-3-3-3s-3 1.3431458-3 3c0 .5522847.4477153 1 1 1s1-.4477153 1-1 .4477153-1 1-1 1 .4477153 1 1 .4477153 1 1 1 1-.4477153 1-1z"/><path id="Shape" d="m39 44c-1.6568542 0-3 1.3431458-3 3 0 .5522847.4477153 1 1 1s1-.4477153 1-1 .4477153-1 1-1 1 .4477153 1 1 .4477153 1 1 1 1-.4477153 1-1c0-1.6568542-1.3431458-3-3-3z"/><path id="Shape" d="m36 50c-.5522847 0-1 .4477153-1 1s-.4477153 1-1 1-1-.4477153-1-1-.4477153-1-1-1-1 .4477153-1 1c0 1.6568542 1.3431458 3 3 3s3-1.3431458 3-3c0-.5522847-.4477153-1-1-1z"/></g></g></g></svg>