<svg height="60" viewBox="0 0 60 60" width="60" xmlns="http://www.w3.org/2000/svg"><g id="Page-1" fill="none" fill-rule="evenodd"><g id="013---Full-Moon-and-Clouds" fill-rule="nonzero" transform="translate(-1 -1)"><path id="Shape" d="m51 26.5c.0008897 1.9886325-.2408973 3.9699428-.72 5.9-2.0860666-2.7701614-5.3522244-4.3995372-8.82-4.4-2.9721944.0211339-5.814099 1.22283-7.8998075 3.3404243-2.0857085 2.1175944-3.2441519 4.9774028-3.2201925 7.9495757-.0019586.0568543.0013892.1137674.01.17-4.8737294.9432198-8.3831295 5.2259487-8.35 10.19 0 .32.01.63.04.94-1.9539902-.3530486-3.8556592-.9511-5.66-1.78-.12-.06-.25-.11-.37-.17-10.0096901-4.7481557-15.5874443-15.6227054-13.60384113-26.5224392s11.03489723-19.11199588 22.07561733-20.0292635c11.04072-.91726763 21.3231223 5.68874287 25.0782238 16.1117027.8643475 2.3991489 1.3403315 4.9208514 1.41 7.47.02.27.03.55.03.83z" fill="#9e9e9e"/><path id="Shape" d="m39.972 28.113c-.5007791-.0725986-1.0059928-.110356-1.512-.113-2.9721944.0211339-5.814099 1.22283-7.8998075 3.3404243-2.0857085 2.1175944-3.2441519 4.9774028-3.2201925 7.9495757-.0019586.0568543.0013892.1137674.01.17-4.8737294.9432198-8.3831295 5.2259487-8.35 10.19 0 .061.007.118.008.178.9929714.3198365 2.0058001.5743799 3.032.762-.03-.31-.04-.62-.04-.94-.0331295-4.9640513 3.4762706-9.2467802 8.35-10.19-.0086108-.0562326-.0119586-.1131457-.01-.17-.0332078-5.6090546 4.0795429-10.3815021 9.632-11.177z" fill="#707070"/><path id="Shape" d="m50.97 25.67c-.0696685-2.5491486-.5456525-5.0708511-1.41-7.47-3.5041036-9.72043373-12.7272572-16.19983914-23.06-16.2-.478 0-.948.036-1.42.063 9.7328097.62649995 18.1681196 6.9635854 21.48 16.137.8643475 2.3991489 1.3403315 4.9208514 1.41 7.47.02.27.03.55.03.83-.0029905 1.1642964-.0888743 2.3269024-.257 3.479.968083.668117 1.8243392 1.4852224 2.537 2.421.4791027-1.9300572.7208897-3.9113675.72-5.9 0-.28-.01-.56-.03-.83z" fill="#707070"/><path id="Shape" d="m41.435 12.565c-.2653486.0007185-.5199469-.1047939-.707-.293-6.3371237-6.28175338-16.0400845-7.67299718-23.887-3.425-.313816.17499152-.6973901.16817151-1.0047869-.01786528-.3073968-.1860368-.4913564-.52268868-.4818892-.88187228.0094673-.35918359.2109059-.68567726.5276761-.85526244 8.6262519-4.67181333 19.2944141-3.14187051 26.26 3.766.2859079.2859943.3714219.7160366.216678 1.0896546-.1547439.3736179-.5192821.6172591-.923678.6173454z" fill="#f5f5f5"/><path id="Shape" d="m11.565 12.565c-.4043959-.0000863-.7689341-.2437275-.923678-.6173454-.1547439-.373618-.0692299-.8036603.216678-1.0896546.471-.47.97-.926 1.483-1.356.4241547-.35429067 1.0552093-.29765469 1.4095.1265.3542907.4241547.2976547 1.0552093-.1265 1.4095-.468.39-.923.806-1.352 1.234-.1870531.1882061-.4416514.2937185-.707.293z" fill="#f5f5f5"/><path id="Shape" d="m23 19h8v1c0 2.209139-1.790861 4-4 4s-4-1.790861-4-4z" fill="#ef314c"/><circle id="Oval" cx="21" cy="32" fill="#7f8e94" r="4"/><circle id="Oval" cx="12" cy="37" fill="#7f8e94" r="2"/><path id="Shape" d="m60 51.53c.0343766 4.6413365-3.6986869 8.4325893-8.34 8.47h-19.46c-5.313328-.0302124-9.7232179-4.114569-10.16-9.41-.03-.31-.04-.62-.04-.94-.0331295-4.9640513 3.4762706-9.2467802 8.35-10.19-.0086108-.0562326-.0119586-.1131457-.01-.17-.0239594-2.9721729 1.134484-5.8319813 3.2201925-7.9495757 2.0857085-2.1175943 4.9276131-3.3192904 7.8998075-3.3404243 3.4677756.0004628 6.7339334 1.6298386 8.82 4.4 1.5036929 1.9817562 2.3152404 4.4023459 2.31 6.89-.0001363 1.2869504-.2164805 2.5647335-.64 3.78 4.5253035.1885726 8.0862789 3.9309146 8.05 8.46z" fill="#f5f5f5"/><path id="Shape" d="m51.95 43.07c.4235195-1.2152665.6398637-2.4930496.64-3.78.0052404-2.4876541-.8063071-4.9082438-2.31-6.89-2.0860666-2.7701614-5.3522244-4.3995372-8.82-4.4-.497999.0036297-.9951639.0413848-1.488.113 2.9086604.4017685 5.5379936 1.9441811 7.308 4.287 1.5036929 1.9817562 2.3152404 4.4023459 2.31 6.89-.0001363 1.2869504-.2164805 2.5647335-.64 3.78 4.5620429.2312497 8.1191473 4.0379893 8.0409136 8.6052194-.0782337 4.5672302-3.7636271 8.2499104-8.3309136 8.3247806h3c4.5672865-.0748702 8.2526799-3.7575504 8.3309136-8.3247806.0782337-4.5672301-3.4788707-8.3739697-8.0409136-8.6052194z" fill="#cfd8dc"/><path id="Shape" d="m54 7c-.5522847 0-1-.44771525-1-1v-1c0-.55228475.4477153-1 1-1s1 .44771525 1 1v1c0 .55228475-.4477153 1-1 1z" fill="#ffdc00"/><path id="Shape" d="m57 9h-1c-.5522847 0-1-.44771525-1-1s.4477153-1 1-1h1c.5522847 0 1 .44771525 1 1s-.4477153 1-1 1z" fill="#ffdc00"/><path id="Shape" d="m54 12c-.5522847 0-1-.4477153-1-1v-1c0-.55228475.4477153-1 1-1s1 .44771525 1 1v1c0 .5522847-.4477153 1-1 1z" fill="#ffdc00"/><path id="Shape" d="m52 9h-1c-.5522847 0-1-.44771525-1-1s.4477153-1 1-1h1c.5522847 0 1 .44771525 1 1s-.4477153 1-1 1z" fill="#ffdc00"/><path id="Shape" d="m9 53c-.55228475 0-1-.4477153-1-1v-1c0-.5522847.44771525-1 1-1s1 .4477153 1 1v1c0 .5522847-.44771525 1-1 1z" fill="#ffdc00"/><path id="Shape" d="m12 55h-1c-.5522847 0-1-.4477153-1-1s.4477153-1 1-1h1c.5522847 0 1 .4477153 1 1s-.4477153 1-1 1z" fill="#ffdc00"/><path id="Shape" d="m9 58c-.55228475 0-1-.4477153-1-1v-1c0-.5522847.44771525-1 1-1s1 .4477153 1 1v1c0 .5522847-.44771525 1-1 1z" fill="#ffdc00"/><path id="Shape" d="m7 55h-1c-.55228475 0-1-.4477153-1-1s.44771525-1 1-1h1c.55228475 0 1 .4477153 1 1s-.44771525 1-1 1z" fill="#ffdc00"/><path id="Shape" d="m22 49.65c0 .32.01.63.04.94-1.9539902-.3530486-3.8556592-.9511-5.66-1.78-.12-.06-.25-.11-.37-.17-.128751-1.6851849.4391852-3.3494448 1.571261-4.6043669s2.72924-1.9907068 4.418739-2.0356331c.93176-.0012921 1.8492428.2289376 2.67.67-1.7254084 1.9146777-2.6770933 4.4026031-2.67 6.98z" fill="#7f8e94"/><path id="Shape" d="m24.67 42.67c-.8207572-.4410624-1.73824-.6712921-2.67-.67-.5069481.002446-1.0113373.0720517-1.5.207.4068207.1098116.7999687.2651252 1.172.463-1.7261345 1.914379-2.6785449 4.4023374-2.672 6.98 0 .061.007.118.008.178.9929714.3198365 2.0058001.5743799 3.032.762-.03-.31-.04-.62-.04-.94-.0070933-2.5773969.9445916-5.0653223 2.67-6.98z" fill="#545c60"/><path id="Shape" d="m51 26.5v.1c-1.8685797.8110358-4.0422428.4092078-5.4973781-1.0162572-1.4551353-1.4254649-1.9016511-3.59039-1.1292763-5.4752789.7723749-1.8848889 2.6096618-3.1139754 4.6466544-3.1084639h.07c.17.4.32.8.47 1.2.8643475 2.3991489 1.3403315 4.9208514 1.41 7.47.02.27.03.55.03.83z" fill="#7f8e94"/><path id="Shape" d="m50.97 25.67c-.0696685-2.5491486-.5456525-5.0708511-1.41-7.47-.15-.4-.3-.8-.47-1.2h-.07c-.9309789.0033577-1.8425308.2665718-2.632.76.056.147.117.293.172.44.8643475 2.3991489 1.3403315 4.9208514 1.41 7.47.02.27.03.55.03.83v.1c-.1559817.0575872-.3148648.1069878-.476.148.4841085.1604657.9900318.2454609 1.5.252.6788897.0011655 1.3510119-.1348916 1.976-.4v-.1c0-.28-.01-.56-.03-.83z" fill="#545c60"/><path id="Shape" d="m10 26c.0106515 1.3154866-.50173029 2.581321-1.42441847 3.5190122-.92268818.9376913-2.18009428 1.4704218-3.49558153 1.4809878-1.00991072.0051688-1.99484046-.3137943-2.81-.91-.03-.16-.05-.33-.07-.49-.13261747-1.0280196-.1994202-2.0634619-.2-3.1-.00115065-1.5883798.15629697-3.1729059.47-4.73.77714445-.503854 1.68381397-.7713389 2.61-.77 1.31548725.010566 2.57289335.5432965 3.49558153 1.4809878.92268818.9376912 1.43506997 2.2035256 1.42441847 3.5190122z" fill="#7f8e94"/><g fill="#000"><path id="Shape" d="m18 17c1.6568542 0 3-1.3431458 3-3 0-.5522847-.4477153-1-1-1s-1 .4477153-1 1-.4477153 1-1 1-1-.4477153-1-1-.4477153-1-1-1-1 .4477153-1 1c0 1.6568542 1.3431458 3 3 3z"/><path id="Shape" d="m36 17c1.6568542 0 3-1.3431458 3-3 0-.5522847-.4477153-1-1-1s-1 .4477153-1 1-.4477153 1-1 1-1-.4477153-1-1-.4477153-1-1-1-1 .4477153-1 1c0 1.6568542 1.3431458 3 3 3z"/><path id="Shape" d="m27 25c2.7600532-.0033061 4.9966939-2.2399468 5-5v-1c0-.5522847-.4477153-1-1-1h-8c-.5522847 0-1 .4477153-1 1v1c.0033061 2.7600532 2.2399468 4.9966939 5 5zm3-5c0 1.6568542-1.3431458 3-3 3s-3-1.3431458-3-3z"/><path id="Shape" d="m21 27c-2.7614237 0-5 2.2385763-5 5s2.2385763 5 5 5 5-2.2385763 5-5c-.0033061-2.7600532-2.2399468-4.9966939-5-5zm0 8c-1.6568542 0-3-1.3431458-3-3s1.3431458-3 3-3 3 1.3431458 3 3-1.3431458 3-3 3z"/><path id="Shape" d="m12 34c-1.6568542 0-3 1.3431458-3 3s1.3431458 3 3 3 3-1.3431458 3-3-1.3431458-3-3-3zm0 4c-.5522847 0-1-.4477153-1-1s.4477153-1 1-1 1 .4477153 1 1-.4477153 1-1 1z"/><path id="Shape" d="m53.246 42.2c.8288855-3.4515927.1370312-7.0929315-1.9-10 2.3179819-10.0852411-1.6888131-20.5713228-10.141488-26.54103092-8.4526749-5.96970816-19.6749608-6.23917672-28.4044172-.68204439-8.7294564 5.55713231-13.23492528 15.83881821-11.40366755 26.02369051s9.63608125 18.2531462 19.75457275 20.4213848c.8238409 5.4768239 5.5106928 9.5396955 11.049 9.578h19.459c4.8682768-.0778908 8.8861748-3.830641 9.2957258-8.6822855.4095511-4.8516445-2.9223968-9.2248312-7.7087258-10.1177145zm-3.268-16.324c-1.4301037.363344-2.9439817-.0922249-3.9360569-1.1844712-.9920752-1.0922464-1.3003678-2.6428351-.8015554-4.0315041.4988123-1.388669 1.7232867-2.3886851 3.1836123-2.6000247.063.161.136.315.2.478.8322246 2.3145607 1.2893186 4.7472187 1.354 7.206-.002.043-.003.088 0 .132zm-46.614-3.459c1.22408777-.5993328 2.67177551-.5189214 3.82195854.2122897 1.15018304.7312111 1.83730864 2.0079743 1.81404146 3.3707103.01943673 2.1859784-1.73407504 3.9752761-3.92 4-.6625598.0000595-1.31318479-.1763168-1.885-.511-.30731328-2.352017-.2503109-4.7373472.169-7.072zm.25 9.381c1.78203254.4543385 3.67401244.0551404 5.12058509-1.0804171 1.44657261-1.1355576 2.28360971-2.8786342 2.26541491-4.7175829.0182974-3.2900741-2.62997671-5.9741357-5.92-6-.40037444.0046795-.79918037.0509276-1.19.138 2.63174933-9.3824838 10.784814-16.16460461 20.4896214-17.04427624 9.7048073-.87967162 18.9444729 4.32592211 23.2203786 13.08227624-3.1337636.7527369-5.1113341 3.8487573-4.4766847 7.0085528.6346495 3.1597955 3.6543055 5.2521157 6.8356847 4.7364472-.0507828.7921259-.1419009 1.5811492-.273 2.364-2.2203807-2.1057649-5.162882-3.2812625-8.223-3.285-6.4935967.0507699-11.812186 5.1738551-12.106 11.661-1.8563179.4906751-3.5531618 1.4555741-4.924 2.8-1.9824312-.7379434-4.1929353-.5337131-6.0066042.5549553-1.813669 1.0886684-3.0334073 2.9434667-3.3143958 5.0400447-5.83782618-3.2072649-10.02313566-8.7604986-11.498-15.256zm19.423 11.324c-1.267117 1.8337442-1.9709443 3.9977089-2.025 6.226-1.3729231-.3246205-2.7121825-.7779598-4-1.354.0231295-1.496134.7090708-2.9048419 1.8725803-3.8456914 1.1635094-.9408494 2.6845744-1.3167946 4.1524197-1.0263086zm28.622 15.878h-19.459c-4.7816721-.0905163-8.7276216-3.7679715-9.1543148-8.5314277-.4266931-4.7634561 2.8028546-9.0836664 7.4923148-10.0225723 1.9620039-.3626199 3.9887991-.07102 5.769.83.4899383.2363237 1.0789165.0376851 1.325657-.4470907s.0607348-1.0778646-.418657-1.3349093c-1.7981437-.909707-3.8103368-1.3117999-5.82-1.163.2991542-3.8794111 2.7915698-7.2456065 6.4148557-8.6637471 3.623286-1.4181406 7.7385039-.6381483 10.5915442 2.0075056 2.8530404 2.645654 3.9407915 6.6904289 2.7996001 10.4102415-1.2980927.0554651-2.5692583.3882596-3.728.976-.3263766.157429-.5420528.4791008-.563752.8408116-.0216991.3617109.1539743.7068598.4591895.9021782.3052152.1953185.6922116.2102427 1.0115625.0390102 2.7484452-1.3024106 6.0129569-.800041 8.2426607 1.2684476s2.9752063 5.2861956 1.8823409 8.124482c-1.0928653 2.8382863-3.8038331 4.7250999-6.8450016 4.7640704z"/><path id="Shape" d="m42.463 32c0-.5522847-.4477153-1-1-1-2.2423362.0099952-4.3795722.951828-5.9 2.6-.3752775.405377-.350877 1.0382225.0545 1.4135.405377.3752774 1.0382225.350877 1.4135-.0545 1.1352589-1.2483842 2.7446129-1.959739 4.432-1.959.2652165 0 .5195704-.1053568.7071068-.2928932s.2928932-.4418903.2928932-.7071068z"/><path id="Shape" d="m33 47c0-.5522847-.4477153-1-1-1s-1 .4477153-1 1-.4477153 1-1 1-1-.4477153-1-1-.4477153-1-1-1-1 .4477153-1 1c0 1.6568542 1.3431458 3 3 3s3-1.3431458 3-3z"/><path id="Shape" d="m42 46c-.5522847 0-1 .4477153-1 1s-.4477153 1-1 1-1-.4477153-1-1-.4477153-1-1-1-1 .4477153-1 1c0 1.6568542 1.3431458 3 3 3s3-1.3431458 3-3c0-.5522847-.4477153-1-1-1z"/><path id="Shape" d="m37 51c-.5522847 0-1 .4477153-1 1s-.4477153 1-1 1-1-.4477153-1-1-.4477153-1-1-1-1 .4477153-1 1c0 1.6568542 1.3431458 3 3 3s3-1.3431458 3-3c0-.5522847-.4477153-1-1-1z"/></g></g></g></svg>