<svg height="60" viewBox="0 0 60 60" width="60" xmlns="http://www.w3.org/2000/svg"><g id="Page-1" fill="none" fill-rule="evenodd"><g id="014---Hail" fill-rule="nonzero" transform="translate(-1)"><path id="Shape" d="m9.56 30.89c-1.02295352 2.7602694-.62924494 5.8465305 1.0539151 8.261586 1.6831601 2.4150555 4.4423623 3.8526984 7.3860849 3.848414h29c6.5341907.0020691 12.0545686-4.8463342 12.8959036-11.3261341.841335-6.4798-3.2578432-12.5772031-9.5759036-14.2438659 1.5306136-3.7142409.4142979-7.99312837-2.735746-10.48623614-3.150044-2.49310777-7.5709395-2.5966556-10.834254-.25376386-3.6250275-4.57607937-9.5757596-6.63323921-15.2529862-5.27293623-5.6772267 1.36030299-10.0494811 5.89092219-11.2070138 11.61293623-4.54729743.3513387-8.11292697 4.0486572-8.29918917 8.6057022s3.06573315 8.5330235 7.56918917 9.2542978z" fill="#cfd8dc"/><path id="Shape" d="m50.32 17.43c1.2544864-3.0281938.7616487-6.4991324-1.2862039-9.0584279-2.0478526-2.55929555-5.3261965-3.80137614-8.5557961-3.2415721 2.7042512.44710637 5.0567428 2.10361398 6.3891616 4.49892994s1.4991541 5.26767276.4528384 7.80107006c6.3180604 1.6666628 10.4172386 7.7640659 9.5759036 14.2438659-.841335 6.4797999-6.3617129 11.3282032-12.8959036 11.3261341h3c6.5341907.0020691 12.0545686-4.8463342 12.8959036-11.3261341.841335-6.4798-3.2578432-12.5772031-9.5759036-14.2438659z" fill="#7f8e94"/><path id="Shape" d="m50.12 30.33c-.0810272.2140079-.1217135.4411729-.12.67.0006063 1.066726.8382948 1.9452308 1.9037859 1.9965476 1.0654911.0513169 1.9837287-.7426177 2.0868471-1.8043481s-.6451804-2.017524-1.700633-2.1721995z" fill="#f44335"/><path id="Shape" d="m37.71 29.02c-1.0554526.1546755-1.8037514 1.1104691-1.700633 2.1721995s1.021356 1.855665 2.0868471 1.8043481c1.0654911-.0513168 1.9031796-.9298216 1.9037859-1.9965476.0017135-.2288271-.0389728-.4559921-.12-.67z" fill="#f44335"/><path id="Shape" d="m45 21c-1.6568542 0-3-1.3431458-3-3 0-.5522847.4477153-1 1-1s1 .4477153 1 1 .4477153 1 1 1 1 .4477153 1 1-.4477153 1-1 1z" fill="#f44335"/><path id="Shape" d="m38 21c-.5522847 0-1-.4477153-1-1s.4477153-1 1-1 1-.4477153 1-1 .4477153-1 1-1 1 .4477153 1 1c0 1.6568542-1.3431458 3-3 3z" fill="#f44335"/><path id="Shape" d="m43 26c-.5522847 0-1-.4477153-1-1 0-1.6568542 1.3431458-3 3-3 .5522847 0 1 .4477153 1 1s-.4477153 1-1 1-1 .4477153-1 1c0 .2652165-.1053568.5195704-.2928932.7071068s-.4418903.2928932-.7071068.2928932z" fill="#f44335"/><path id="Shape" d="m40 26c-.5522847 0-1-.4477153-1-1s-.4477153-1-1-1-1-.4477153-1-1 .4477153-1 1-1c1.6568542 0 3 1.3431458 3 3 0 .2652165-.1053568.5195704-.2928932.7071068s-.4418903.2928932-.7071068.2928932z" fill="#f44335"/><path id="Shape" d="m18 40h-1c-.5522847 0-1-.4477153-1-1s.4477153-1 1-1h1c.5522847 0 1 .4477153 1 1s-.4477153 1-1 1z" fill="#7f8e94"/><path id="Shape" d="m32 40h-10c-.5522847 0-1-.4477153-1-1s.4477153-1 1-1h10c.5522847 0 1 .4477153 1 1s-.4477153 1-1 1z" fill="#7f8e94"/><circle id="Oval" cx="39" cy="55" fill="#02a9f4" r="4"/><path id="Shape" d="m39 51c-.5146843.0021695-1.0240724.1040471-1.5.3 1.5110147.6085107 2.5007405 2.0740584 2.5007405 3.703s-.9897258 3.0944893-2.5007405 3.703c1.496414.6077595 3.211506.2559465 4.3478056-.8918556s1.4708211-2.8663504.8480212-4.3565675c-.6227999-1.490217-2.0807039-2.4596648-3.6958268-2.4575769z" fill="#0377bc"/><circle id="Oval" cx="51" cy="50" fill="#02a9f4" r="3"/><path id="Shape" d="m51 47c-.5281059.0027453-1.0459153.1463511-1.5.416.9273539.5298262 1.4996803 1.5159639 1.4996803 2.584s-.5723264 2.0541738-1.4996803 2.584c.4540847.2696489.9718941.4132547 1.5.416 1.6568542-.0000001 2.9999999-1.3431458 2.9999999-3s-1.3431457-2.9999999-2.9999999-3z" fill="#0377bc"/><circle id="Oval" cx="14" cy="56" fill="#02a9f4" r="3"/><path id="Shape" d="m14 53c-.5281059.0027453-1.0459153.1463511-1.5.416.9273539.5298262 1.4996803 1.5159639 1.4996803 2.584s-.5723264 2.0541738-1.4996803 2.584c.4540847.2696489.9718941.4132547 1.5.416 1.6568542 0 3-1.3431458 3-3s-1.3431458-3-3-3z" fill="#0377bc"/><circle id="Oval" cx="26" cy="51" fill="#02a9f4" r="4"/><path id="Shape" d="m26 47c-.5146843.0021695-1.0240724.1040471-1.5.3 1.5110147.6085107 2.5007405 2.0740584 2.5007405 3.703s-.9897258 3.0944893-2.5007405 3.703c1.496414.6077595 3.211506.2559465 4.3478056-.8918556s1.4708211-2.8663504.8480212-4.3565675c-.6227999-1.490217-2.0807039-2.4596648-3.6958268-2.4575769z" fill="#0377bc"/><g fill="#000"><path id="Shape" d="m51.608 16.777c1.1378142-3.931043-.2344216-8.15864607-3.4640412-10.67206557s-7.6647563-2.8053467-11.1959588-.73693443c-3.0243665-3.42567385-7.3783345-5.38182554-11.948-5.368-7.3362796.02002654-13.7270312 5.00743838-15.529 12.119-4.65665209.7120028-8.18492568 4.577395-8.47020955 9.279519-.28528388 4.7021239 2.74979342 8.965723 7.28620955 10.235481-.72343774 2.9807106-.03980088 6.128562 1.8548307 8.5406916 1.8946316 2.4121295 4.7909251 3.8220274 7.8581693 3.8253084h29c6.8336977.004319 12.6719872-4.9256182 13.8124946-11.6634728 1.1405075-6.7378547-2.7500645-13.314583-9.2044946-15.5595272zm-4.608 25.223h-29c-2.4805917-.0017141-4.8200559-1.1540446-6.333351-3.1195664-1.5132952-1.9655218-2.02920063-4.5218472-1.396649-6.9204336.242.018.483.04.73.04 1.0749565.0009161 2.1430178-.171635 3.163-.511.3394023-.1128959.5927937-.398285.6647242-.748664.0719304-.350379-.0485282-.712517-.3160001-.95-.2674719-.2374831-.6413218-.3142319-.9807241-.201336-3.4313662 1.1412288-7.20165421-.161291-9.19684523-3.1772304-1.99519102-3.0159393-1.71913387-6.9953139.67338486-9.7068691 2.39251874-2.7115552 6.30654297-3.480999 9.54746037-1.8769005.3203279.1621467.7029956.1401275 1.0026105-.0576916.299615-.1978191.4701885-.5410743.446912-.8993475s-.2368302-.6765722-.5595225-.8339609c-1.2103828-.5953757-2.5289833-.9389739-3.876-1.01 1.7777256-5.93722349 7.2333676-10.01016828 13.431-10.027 4.2776959-.01301672 8.3227473 1.94587272 10.965 5.31.008.009.02.014.028.023.7618584.96298918 1.39362 2.02208922 1.879 3.15.1261307.3484076.4345731.5985117.8015246.6499257s.7322523-.1042913.949278-.4046188c.2170258-.3003275.2501962-.6960402.0861974-1.0283069-.4096768-.9552042-.9120834-1.86790947-1.5-2.725 1.1622302-.63695622 2.4656757-.97218686 3.791-.975 2.5214384.00315586 4.8940982 1.19382128 6.4035919 3.21349707 1.5094937 2.01967583 1.9794644 4.63239973 1.2684081 7.05150293-.183-.034-.365-.081-.547-.108-.3570659-.0603654-.7188672.0770285-.9458589.3591895s-.2837005.6649943-.1482543 1.000843c.1354463.3358488.4418808.572228.8011132.6179675.389.058.782.138 1.176.233.021.007.037.024.058.029 5.8321635 1.5386424 9.6158997 7.1673401 8.8389157 13.1487988-.7769839 5.9814587-5.873204 10.4566613-11.9049157 10.4542012z"/><path id="Shape" d="m18.593 15.492c-.3630639-.4028044-.9810163-.4428339-1.3930134-.090236-.411997.3525978-.4678857.9693182-.1259866 1.390236.4260252.4966927.7900333 1.0433765 1.084 1.628.1607695.3193954.4797221.5287595.8367114.5492267.3569894.0204673.6977802-.1510718.8940001-.45.1962198-.2989282.218058-.6798313.0572885-.9992267-.3673077-.7282398-.8216283-1.4092171-1.353-2.028z"/><path id="Shape" d="m54.245 29.019.27-.162c.3132279-.1806127.5045637-.516242.5004101-.8777878-.0041537-.3615459-.2031497-.6926908-.5204443-.8660598-.3172946-.1733689-.7034632-.1619565-1.0099658.0298476l-5 3c-.385003.2315033-.5683703.6913367-.448313 1.1242424s.514068.7326155.963313.7327576c.0592061-.0027374.1180787-.010431.176-.023.3936685 1.1449448 1.4385556 1.9397863 2.6470367 2.0135902 1.2084811.0738038 2.3423266-.5879789 2.872397-1.6765096.5300704-1.0885306.3518721-2.3892256-.4514337-3.2950806zm-2.245 2.981c-.5522847 0-1-.4477153-1-1 0-.014.006-.024.007-.038l1.426-.855c.4203359.2005648.6453092.6658652.5414604 1.1198739-.1038488.4540088-.5087308.7752377-.9744604.7731261z"/><path id="Shape" d="m41.857 31.515c.2843303-.4733224.1312297-1.0875154-.342-1.372l-5-3c-.3065026-.1918041-.6926712-.2032165-1.0099658-.0298476-.3172946.173369-.5162906.5045139-.5204443.8660598-.0041536.3615458.1871822.6971751.5004101.8777878l.27.162c-.805887.9057219-.9857948 2.2081381-.4556228 3.298415.5301721 1.0902769 1.6656914 1.7530366 2.875743 1.6784624s2.2555966-.8717506 2.6478798-2.0188774c.0582493.0126245.1174587.0203184.177.023.3509854-.0000668.6762425-.1841387.857-.485zm-3.857.485c-.4657296.0021116-.8706116-.3191173-.9744604-.7731261-.1038488-.4540087.1211245-.9193091.5414604-1.1198739l1.426.855c0 .014.007.024.007.038 0 .5522847-.4477153 1-1 1z"/><path id="Shape" d="m45 34c-2.209139 0-4 1.790861-4 4 0 .5522847.4477153 1 1 1s1-.4477153 1-1c0-1.1045695.8954305-2 2-2s2 .8954305 2 2c0 .5522847.4477153 1 1 1s1-.4477153 1-1c0-2.209139-1.790861-4-4-4z"/><path id="Shape" d="m39 60c2.7614237 0 5-2.2385763 5-5s-2.2385763-5-5-5-5 2.2385763-5 5c.0033061 2.7600532 2.2399468 4.9966939 5 5zm0-8c1.6568542 0 3 1.3431458 3 3s-1.3431458 3-3 3-3-1.3431458-3-3 1.3431458-3 3-3z"/><path id="Shape" d="m55 50c0-2.209139-1.790861-4-4-4s-4 1.790861-4 4 1.790861 4 4 4 4-1.790861 4-4zm-6 0c0-1.1045695.8954305-2 2-2s2 .8954305 2 2-.8954305 2-2 2-2-.8954305-2-2z"/><path id="Shape" d="m18 56c0-2.209139-1.790861-4-4-4s-4 1.790861-4 4 1.790861 4 4 4 4-1.790861 4-4zm-6 0c0-1.1045695.8954305-2 2-2s2 .8954305 2 2-.8954305 2-2 2-2-.8954305-2-2z"/><path id="Shape" d="m31 51c0-2.7614237-2.2385763-5-5-5s-5 2.2385763-5 5 2.2385763 5 5 5c2.7600532-.0033061 4.9966939-2.2399468 5-5zm-8 0c0-1.6568542 1.3431458-3 3-3s3 1.3431458 3 3-1.3431458 3-3 3-3-1.3431458-3-3z"/></g></g></g></svg>