<svg height="512" viewBox="0 0 54 60" width="512" xmlns="http://www.w3.org/2000/svg"><g id="Page-1" fill="none" fill-rule="evenodd"><g id="018---Snowflake" fill-rule="nonzero" transform="translate(0 -1)"><path id="Shape" d="m51.283 42.71-.962-.555.212-.188c.7657011-.6493191.9557401-1.7541573.451-2.622-.3113579-.5007888-.8278476-.8386498-1.4114313-.9232859-.5835837-.084636-1.1747741.0925803-1.6155687.4842859l-1.287 1.141-1.557-.9c-.4311167-.251498-.6107787-.7823758-.421-1.244 1.7439651-4.4374682 1.7439651-9.3705318 0-13.808-.1897787-.4616242-.0101167-.992502.421-1.244l1.557-.9 1.287 1.141c.4083818.3622432.9470858.5418167 1.491138.4970613.5440521-.0447554 1.0461682-.3099501 1.389862-.7340613.6597366-.884174.5178201-2.1290098-.324-2.842l-.193-.17.965-.557c.9223631-.507294 1.3193671-1.6244049.924-2.6-.230852-.5175135-.6704013-.9128062-1.2094215-1.0876493s-1.1269091-.1128227-1.6175785.1706493l-1.062.613-.055-.269c-.1896387-1.0375474-1.1264879-1.7684532-2.179-1.7-.5625535.0560341-1.0751146.3475339-1.410862.8023744s-.4633146 1.0305293-.351138 1.5846256l.346 1.686-1.569.9c-.4328412.2466127-.9811875.1370287-1.286-.257-2.9723447-3.7226586-7.237168-6.1899442-11.946-6.911-.4964497-.0650877-.8682401-.4873049-.87-.988v-1.788l1.524-.508c1.0079898-.31203443 1.6223645-1.32968657 1.429-2.367-.1219654-.55368605-.4731978-1.02958988-.9663348-1.30933927-.493137-.2797494-1.0818346-.33705414-1.6196652-.15766073l-.367.125v-1.118c.0222852-1.0048321-.6787841-1.88116875-1.664-2.08-.5810531-.09902451-1.1761996.06330397-1.6265064.44363588-.4503068.38033192-.7099139.93993353-.7094936 1.52936412v1.225l-.265-.088c-.9464148-.34003566-2.0003776.04824423-2.5.921-.2784484.51995512-.3131892 1.13630523-.0949339 1.68425726.2182554.54795204.667249.97162536 1.2269339 1.15774274l1.633.542v1.788c-.0017599.5006951-.3735503.9229123-.87.988-4.7100199.7231087-8.9750196 3.1933525-11.946 6.919-.3048125.3940287-.8531588.5036127-1.286.257l-1.569-.9.328-1.6c.221185-.9776001-.29336755-1.9725142-1.219-2.357-.54881086-.2123982-1.16331071-.172317-1.67988138.1095714-.51657067.2818885-.88277941.776972-1.00111862 1.3534286l-.078.381-.971-.56c-.85812766-.5214923-1.96663211-.3529626-2.631.4-.37651249.4536247-.53371529 1.0502536-.42961569 1.6305124.10409959.5802589.45889645 1.085034.96961569 1.3794876l1.062.613-.191.169c-.84348712.7132515-.98589799 1.9598943-.325 2.845.34396836.4235133.84602725.6881186 1.38981848.7324905s1.08210533-.1353419 1.49018152-.4974905l1.287-1.141 1.557.9c.43111669.251498.61077871.7823758.421 1.244-1.74396509 4.4374682-1.74396509 9.3705318 0 13.808.18977871.4616242.01011669.992502-.421 1.244l-1.557.9-1.206-1.07c-.73673261-.6844497-1.85832591-.7417728-2.661-.136-.46005751.3689891-.73380832.9222147-.74807542 1.5117928-.01426709.5895781.23240415 1.1553973.67407542 1.5462072l.29.257-.962.555c-.93676232.5127059-1.33307062 1.651498-.917 2.635.23731099.507997.6769642.8930503 1.21181277 1.0613194s1.11576926.1042993 1.60118723-.1763194l1.062-.613.082.381c.18988137.930229 1.00758995 1.5987695 1.957 1.6.61850544-.0009933 1.20196981-.2872479 1.58127637-.7757932s.51203853-1.1247486.35972363-1.7242068l-.326-1.589 1.569-.905c.4328412-.2466127.9811875-.1370287 1.286.257 2.9709804 3.7256475 7.2359801 6.1958913 11.946 6.919.4964497.0650877.8682401.4873049.87.988v1.788l-1.525.509c-1.0068483.3115548-1.6207362 1.3278231-1.428 2.364.1214922.5540533.4725302 1.0304604.965727 1.3106252.4931969.2801648 1.0821597.3377334 1.620273.1583748l.367-.125v1.118c-.0222852 1.0048321.6787841 1.8811688 1.664 2.08.5810531.0990245 1.1761996-.063304 1.6265064-.4436359s.7099139-.9399335.7094936-1.5293641v-1.225l.367.122c.5429807.1812995 1.1376219.1212396 1.6333828-.1649748.495761-.2862145.8451144-.7711449.9596172-1.3320252.1764676-1.0262895-.4347007-2.0245168-1.429-2.334l-1.531-.508v-1.788c.0017599-.5006951.3735503-.9229123.87-.988 4.7100199-.7231087 8.9750196-3.1933525 11.946-6.919.3048125-.3940287.8531588-.5036127 1.286-.257l1.569.905-.326 1.589c-.1523149.5994582-.0195829 1.2356615.3597236 1.7242068.3793066.4885453.962771.7747999 1.5812764.7757932.9494101-.0012305 1.7671186-.669771 1.957-1.6l.078-.381 1.062.613c.485418.2806187 1.0663387.3445885 1.6011872.1763194.5348486-.1682691.9745018-.5533224 1.2118128-1.0613194.4179339-.9830357.0233039-2.1228377-.913-2.637z" fill="#02a9f4"/><g fill="#0377bc"><path id="Shape" d="m26 4.107v1.118l.367-.122c.5372659-.17946447 1.1254342-.12268783 1.6184517.15623122.4930176.27891906.8446383.75381734.9675483 1.30676878.1934489 1.03756775-.4208625 2.05554494-1.429 2.368l-1.524.508v1.788c.0017599.5006951.3735503.9229123.87.988 4.7100199.7231087 8.9750196 3.1933525 11.946 6.919.3048125.3940287.8531588.5036127 1.286.257l1.287-.743c-2.9435234-3.4568666-7.0318923-5.7400923-11.519-6.433-.4964497-.0650877-.8682401-.4873049-.87-.988v-1.788l1.524-.508c1.0081375-.31245506 1.6224489-1.33043225 1.429-2.368-.1222017-.5535024-.4735314-1.02915473-.9666384-1.30869648-.4931071-.27954175-1.0816722-.33671451-1.6193616-.15730352l-.367.125v-1.118c.0222852-1.0048321-.6787841-1.88116875-1.664-2.08-.6915863-.1138733-1.3923174.14259355-1.847.676.3289018.39405951.509666.89071888.511 1.404z"/><path id="Shape" d="m44.693 37.9c1.7426755-4.4377124 1.7426755-9.3702876 0-13.808-.1446652-.3612365-.0666421-.7735889.2-1.057l-1.223-1.082-1.557.9c-.4307424.251819-.6099523.7826217-.42 1.244 1.7426755 4.4377124 1.7426755 9.3702876 0 13.808-.1899523.4613783-.0107424.992181.42 1.244l1.557.9 1.224-1.086c-.2694267-.2843767-.3479938-.6998834-.201-1.063z"/><path id="Shape" d="m49.21 16.685c.3953671.9755951-.0016369 2.092706-.924 2.6l-.965.557.193.17c.8416692.7129569.9839828 1.9574344.325 2.842-.022.026-.049.044-.071.069l.189.168c.4084282.3625682.9473602.5423427 1.4916632.4975822.5443031-.0447605 1.0466263-.3101622 1.3903368-.7345822.6589828-.8845656.5166692-2.1290431-.325-2.842l-.193-.17.965-.557c.9223631-.507294 1.3193671-1.6244049.924-2.6-.230852-.5175135-.6704013-.9128062-1.2094215-1.0876493s-1.1269091-.1128227-1.6175785.1706493l-.583.332c.1709705.1685579.3098933.3667769.41.585z"/><path id="Shape" d="m29.87 49.782c4.4871077-.6929077 8.5754766-2.9761334 11.519-6.433l-1.289-.743c-.4328412-.2466127-.9811875-.1370287-1.286.257-2.9704925 3.7252161-7.234702 6.1954159-11.944 6.919-.4964497.0650877-.8682401.4873049-.87.988v1.788l1.531.51c.9934248.30939 1.6043698 1.3063975 1.429 2.332-.1137772.5614308-.4628325 1.0471245-.9586867 1.3339666-.4958543.286842-1.0909034.3472943-1.6343133.1660334l-.367-.125v1.225c-.0006796.4781637-.1743742.9399284-.489 1.3.2897781.3575379.6994796.5977445 1.153.676.5815708.0991141 1.177232-.0635938 1.6276549-.4446022.4504229-.3810085.7096509-.9414431.7083451-1.5313978v-1.225l.367.122c.5429807.1812995 1.1376219.1212396 1.6333828-.1649748.495761-.2862145.8451144-.7711449.9596172-1.3320252.1764676-1.0262895-.4347007-2.0245168-1.429-2.334l-1.531-.508v-1.788c.0017599-.5006951.3735503-.9229123.87-.988z"/><path id="Shape" d="m51.283 42.71-.962-.555.212-.188c.7657011-.6493191.9557401-1.7541573.451-2.622-.3113579-.5007888-.8278476-.8386498-1.4114313-.9232859-.5835837-.084636-1.1747741.0925803-1.6155687.4842859l-.19.168c.3842881.400297.5786603.9460553.5339233 1.4991499-.044737.5530945-.3242958 1.060519-.7679233 1.3938501l-.212.188.962.555c.9363039.5141623 1.3309339 1.6539643.913 2.637-.0998938.2038885-.23343.3894869-.395.549l.582.336c.485418.2806187 1.0663387.3445885 1.6011872.1763194.5348486-.1682691.9745018-.5533224 1.2118128-1.0613194.4179339-.9830357.0233039-2.1228377-.913-2.637z"/></g><path id="Shape" d="m13.789 24.887c-.3519796-.0003469-.6778583-.185714-.8580452-.4880755-.1801869-.3023614-.1881454-.6771874-.0209548-.9869245 1.8764893-3.4859543 4.9787234-6.1524433 8.707-7.484.5202522-.1855677 1.0924323.0857478 1.278.606.1855676.5202522-.0857478 1.0924323-.606 1.278-3.2626338 1.1654013-5.9772694 3.4991542-7.619 6.55-.1747426.3237289-.5131207.525373-.881.525z" fill="#f5f5f5"/><circle id="Oval" cx="27" cy="16" fill="#f5f5f5" r="1"/><circle id="Oval" cx="18" cy="30" fill="#3f51b5" r="3"/><circle id="Oval" cx="36" cy="30" fill="#3f51b5" r="3"/><path id="Shape" d="m53.121 16.274c-.3466394-.7752994-1.0056413-1.3673523-1.8135071-1.6292701s-1.6888909-.1691564-2.4244929.2552701l-.025.014c-.7286497-1.272778-2.274184-1.827383-3.6458368-1.3082851-1.3716529.519098-2.1627522 1.9579951-1.8661632 3.3942851l.2.972-.948.536c-3.130632-3.9286274-7.6307974-6.5284213-12.598-7.278v-1.067l.839-.281c1.4923057-.47843553 2.3904311-1.99794341 2.09-3.536-.3063546-1.37149788-1.5237031-2.3465404-2.929-2.346-.0300104-1.45294491-1.0724657-2.6867951-2.5-2.959-.8708772-.14720516-1.762371.09683099-2.4368584.66706188s-1.0634243 1.40870746-1.0631416 2.29193812v.024c-1.4673366-.00408729-2.7203472 1.05821354-2.956412 2.50644238s.6147329 2.85345548 2.007412 3.31555762l.941.314-.013 1.069c-4.9649412.7583698-9.4594929 3.3660814-12.582 7.3l-.943-.545.183-.891c.3172849-1.4598893-.4642078-2.9358544-1.85-3.494-.82780704-.3122902-1.75083948-.2465159-2.526.18-.47648927.2626131-.87235359.6501798-1.145 1.121-1.27307012-.7020556-2.86389409-.4162664-3.813.685-.56443179.6809661-.79960521 1.5763008-.64267486 2.4467437.15693036.8704429.68997005 1.6272781 1.45667486 2.0682563l.029.017c-.61007175 1.0705887-.51453448 2.403373.242 3.376.51613642.6344362 1.26892289 1.0306443 2.08410091 1.0969082s1.62207225-.2031615 2.23389909-.7459082l.743-.658.928.547c-1.83981522 4.6765875-1.83588376 9.8771995.011 14.551l-.934.539-.667-.592c-1.10552195-1.0046786-2.7720333-1.072923-3.956-.162-1.14564996.9289642-1.44773186 2.5520718-.713 3.831-1.32281362.800521-1.84451958 2.4594431-1.218 3.873.35611904.7612037 1.01519196 1.3381354 1.81682662 1.5903927.80163466.2522574 1.67232274.1567089 2.40017338-.2633927.66054412 1.1298822 1.97297956 1.7065951 3.252 1.429 1.61599257-.3929084 2.622324-2.0045487 2.266-3.629l-.18-.875.948-.536c3.1300065 3.9293791 7.6297779 6.5302234 12.597 7.281v1.067l-.841.281c-1.4906141.4779365-2.3878177 1.9956202-2.088 3.532.3047412 1.3730876 1.5225019 2.3501233 2.929 2.35.0300104 1.4529449 1.0724657 2.6867951 2.5 2.959.1652558.0273918.3324895.041105.5.041 1.6568542 0 3-1.3431458 3-3 1.4205872-.0064843 2.6441946-1.0031121 2.938-2.393.289485-1.5246524-.6097243-3.0241947-2.091-3.487l-.839-.28.013-1.069c4.9649412-.7583698 9.4594929-3.3660814 12.582-7.3l.943.545-.181.882c-.3551591 1.6234681.6503634 3.2336359 2.265 3.627 1.2781428.2786669 2.5905095-.2964015 3.252-1.425.7279359.420445 1.5988805.5161851 2.4007665.2639085.801886-.2522767 1.4611378-.8294228 1.8172335-1.5909085.6276763-1.4211558.0959207-3.0872372-1.239-3.882.7403352-1.2686549.4480418-2.8873299-.6892451-3.8169318-1.1372869-.929602-2.7817557-.8940084-3.8777549.0839318l-.743.658-.928-.547c1.8398152-4.6765875 1.8358838-9.8771995-.011-14.551l.934-.539.747.663c.6125311.5435847 1.4206606.8131308 2.2368617.7460897.8162011-.067041 1.5695163-.4648408 2.0851383-1.1010897.7545222-.9725166.8488533-2.3038082.239-3.373 1.3196303-.7859112 1.8598116-2.4230825 1.267-3.84zm-2.335 2.148-.965.557c-.2779773.1607116-.4618749.44513-.494354.7645744-.0324792.3194443.0904111.635055.330354.8484256l.194.172c.4354994.3602229.5271528.9918529.212 1.461-.3658944.4302671-1.0105605.4843244-1.443.121l-1.287-1.146c-.3216946-.2857393-.790103-.3336675-1.163-.119l-1.558.9c-.8602732.4976121-1.2227873 1.5527414-.85 2.474 1.6507137 4.2037583 1.6507137 8.8762417 0 13.08-.3727873.9212586-.0102732 1.9763879.85 2.474l1.558.9c.372897.2146675.8413054.1667393 1.163-.119l1.288-1.142c.2215449-.1968322.5189822-.2852609.8120761-.241432.293094.0438289.5516511.2154005.7059239.468432.2391161.4538583.1263143 1.0132718-.27 1.339l-.212.188c-.2403617.2133506-.363532.5292249-.3310424.8489696.0324895.3197447.2166789.604388.4950424.7650304l.962.556c.4844095.2549485.7024121.831282.508 1.343-.1218496.2513765-.3417357.4415638-.6080464.5259207s-.5555957.0554554-.7999536-.0799207l-1.062-.613c-.2782508-.1604238-.6166231-.1774328-.9095587-.0457207-.2929355.1317121-.504778.396113-.5694413.7107207l-.078.381c-.0515333.2645018-.208662.4965673-.4351178.6426313s-.5026682.1935035-.7648822.1313687c-.544421-.1609858-.8677448-.7197736-.736-1.272l.326-1.589c.0866532-.4216941-.1063042-.8515179-.479-1.067l-1.575-.9c-.8609673-.492775-1.9530362-.279979-2.566.5-2.8116687 3.5318749-6.8524662 5.8727877-11.315 6.555-.98419.1396607-1.7164342.9809534-1.719 1.975v1.788c-.0001037.4306074.2754572.8129281.684.949l1.53.51c.5136636.1476916.8405618.6506119.767 1.18-.0603143.2795773-.2358932.5206816-.4834653.6638925-.247572.1432109-.544111.1752087-.8165347.0881075l-.368-.123c-.3045964-.1003827-.6388578-.0485818-.8987838.1392855-.2599259.1878672-.4139747.4890035-.4142162.8097145v1.225c.0004239.2960832-.1303816.5771322-.3571892.7674576s-.5262964.2703573-.8178108.2185424c-.4992235-.1228593-.8436864-.5792206-.825-1.093v-1.118c.0000774-.3214436-.1543712-.6233283-.4150947-.8113424-.2607234-.1880141-.5959327-.2392338-.9009053-.1376576l-.367.123c-.2683546.0913882-.5630488.0629751-.809-.078-.2488596-.1404551-.4257419-.3806656-.486-.66-.077706-.5358787.2504818-1.0473402.77-1.2l1.524-.508c.407149-.1356044.6823858-.5158657.684-.945v-1.788c-.0016437-.9951363-.7346627-1.8376821-1.72-1.977-4.4624516-.6817665-8.5032915-3.0223467-11.315-6.554-.6131798-.7810613-1.7065705-.9939489-2.568-.5l-1.568.905c-.37269581.2154821-.56565323.6453059-.479 1.067l.326 1.589c.13174479.5522264-.19157897 1.1110142-.736 1.272-.26237987.0624128-.53886779.0149648-.76542713-.1313548-.22655935-.1463195-.38353595-.3788174-.43457287-.6436452l-.078-.38c-.06466328-.3146077-.27650576-.5790086-.56944134-.7107207s-.63130785-.1147031-.90955866.0457207l-1.063.614c-.24468403.1334972-.53327768.1612641-.79892619.0768683-.2656485-.0843958-.48530114-.2736311-.60807381-.5238683-.19441209-.511718.02359045-1.0880515.508-1.343l.962-.556c.27836349-.1606424.4625529-.4452857.49504245-.7650304.03248954-.3197447-.09068073-.635619-.33104245-.8489696l-.29-.257c-.2212005-.1962862-.34417565-.4804144-.33587832-.7760309.00829733-.2956164.14701607-.5723994.37887832-.7559691.42347038-.2912392.9931142-.2457511 1.365.109l1.201 1.074c.32188154.2862084.79086233.3341541 1.164.119l1.558-.9c.8602732-.4976121 1.2227873-1.5527414.85-2.474-1.65071374-4.2037583-1.65071374-8.8762417 0-13.08.3727873-.9212586.0102732-1.9763879-.85-2.474l-1.558-.9c-.37289702-.2146675-.8413054-.1667393-1.163.119l-1.288 1.136c-.43187848.361039-1.07361029.3084891-1.441-.118-.31761981-.4699534-.22581413-1.1043654.212-1.465l.192-.17c.24045141-.2132037.36378896-.528975.33149857-.8487093s-.21627382-.6044688-.49449857-.7652907l-1.062-.613c-.25687739-.1478724-.43492123-.4020796-.48608949-.6940283s.02981194-.5915537.22108949-.8179717c.35488937-.3708172.92174301-.4406289 1.356-.167l.971.56c.27825081.1604238.61662308.1774328.90955866.0457207s.50477806-.396113.56944134-.7107207l.078-.382c.05867094-.2856271.23908852-.5314187.494-.673.26345758-.1452759.5778942-.1657986.858-.056.4617936.2140555.70861942.7240227.59 1.219l-.328 1.6c-.08665323.4216941.10630419.8515179.479 1.067l1.569.905c.8609673.492775 1.9530362.279979 2.566-.5 2.8116687-3.5318749 6.8524662-5.8727877 11.315-6.555.9857343-.1388663 1.7192855-.9815338 1.721-1.977v-1.788c.0001037-.43060741-.2754572-.81292807-.684-.949l-1.632-.544c-.2811948-.09316306-.5066141-.30620106-.6154971-.58169037-.1088829-.2754893-.0900227-.5850751.0514971-.84530963.2749069-.43547524.817865-.61799271 1.3-.437l.265.089c.3048474.10117772.6397405.04976392.9001978-.13820111.2604574-.18796502.4147728-.48959977.4148022-.81079889v-1.225c-.0004239-.29608321.1303816-.57713222.3571892-.76745759.2268076-.19032538.5262964-.27035733.8178108-.21854241.4992235.12285935.8436864.57922058.825 1.093v1.118c-.0000774.32144358.1543712.62332833.4150947.8113424.2607234.18801406.5959327.23923378.9009053.1376576l.367-.122c.2685914-.09222278.5639423-.06378158.81.078.2481746.13909394.4247701.377953.485.656.0762585.53587489-.251907 1.04663845-.771 1.2l-1.523.508c-.4081936.13595553-.6836733.5177607-.684.948v1.788c.0016437.9951363.7346627 1.8376821 1.72 1.977 4.4624516.6817665 8.5032915 3.0223467 11.315 6.554.6131798.7810613 1.7065705.9939489 2.568.5l1.568-.905c.3726958-.2154821.5656532-.6453059.479-1.067l-.345-1.689c-.0581821-.2784822.005005-.5685636.1737412-.7976173s.4270466-.3753942.7102588-.4023827c.5417438-.0138498 1.0109371.3734479 1.1.908l.056.269c.0649254.3144276.2768733.5785607.5697704.7100574.292897.1314967.6311198.1143639.9092296-.0460574l1.063-.614c.2422662-.1412404.5332494-.1725211.8-.086.2728952.0870462.4953613.286938.611.549.1849993.5095508-.0333318 1.0775526-.512 1.332z" fill="#000"/><path id="Shape" d="m18 26c-2.209139 0-4 1.790861-4 4s1.790861 4 4 4 4-1.790861 4-4-1.790861-4-4-4zm0 6c-1.1045695 0-2-.8954305-2-2s.8954305-2 2-2 2 .8954305 2 2-.8954305 2-2 2z" fill="#000"/><path id="Shape" d="m36 26c-2.209139 0-4 1.790861-4 4s1.790861 4 4 4 4-1.790861 4-4-1.790861-4-4-4zm0 6c-1.1045695 0-2-.8954305-2-2s.8954305-2 2-2 2 .8954305 2 2-.8954305 2-2 2z" fill="#000"/><path id="Shape" d="m30.031 33.019h-.031c-.5312329.0073475-.967107.4227355-1 .953-.012.172-.16 1.029-2 1.029-1.826 0-1.987-.844-2-1.024-.0063513-.5522847-.4592153-.9948512-1.0115-.9885-.5522847.0063513-.9948513.4592153-.9885 1.0115 0 1.038.836 3 4 3s4-1.962 4-3c-.0015733-.5364756-.4325844-.9728243-.969-.981z" fill="#000"/></g></g></svg>