<svg height="512" viewBox="0 0 61 60" width="512" xmlns="http://www.w3.org/2000/svg"><g id="Page-1" fill="none" fill-rule="evenodd"><g id="023---Cresent-Moon" fill-rule="nonzero"><path id="Shape" d="m2.061 28.09c-1.09203448 15.5406742 10.2896184 29.1674838 25.776298 30.8609571 15.4866795 1.6934734 29.5443341-9.1515397 31.836702-24.5609571.3907421-2.6046217.4300935-5.2499081.117-7.865-.0498919-.4304726-.3713726-.7798225-.7962235-.8652483-.424851-.0854258-.8563767.1125153-1.0687765.4902483-3.4770793 6.3525771-10.5968649 9.8049951-17.7380367 8.6012584-7.1411718-1.2037366-12.7357979-6.7993327-13.9382966-13.940713-1.2024986-7.1413804 2.2511535-14.26056743 8.6043333-17.7365454.3786045-.21204575.5772447-.64406963.4917473-1.06950468s-.4356179-.74717744-.8667473-.79649532c-2.6131389-.31209646-5.2563097-.27274654-7.859.117-13.4383602 2.08022739-23.6395253 13.1977071-24.559 26.765z" fill="#ffeb3a"/><path id="Shape" d="m31.479 1.208c.4311294.04931788.7812499.37106027.8667473.79649532s-.1131428.85745893-.4917473 1.06950468c-6.467012 3.52260584-9.9306278 10.8084955-8.5796291 18.0476804 1.3509988 7.239185 7.2093764 12.7853758 14.5116291 13.7383196 1.2384661.1547411 2.4899574.1761972 3.733.064-.244-.021-.487-.033-.733-.064-7.3022527-.9529438-13.1606303-6.4991346-14.5116291-13.7383196-1.3509987-7.2391849 2.1126171-14.52507456 8.5796291-18.0476804.3786045-.21204575.5772447-.64406963.4917473-1.06950468s-.4356179-.74717744-.8667473-.79649532c-1.6074677-.18714375-3.2276866-.24066048-4.844-.16.619.035 1.235.087 1.844.16z" fill="#fdd834"/><path id="Shape" d="m59.792 26.521c-.0493179-.4311294-.3710603-.7812499-.7964953-.8667473-.4254351-.0854974-.857459.1131428-1.0695047.4917473-.3104237.5612931-.6529936 1.1041964-1.026 1.626.1730299 2.2061638.0972194 4.424793-.226 6.614-2.0845905 13.4422148-13.2106916 23.6423524-26.783 24.554-.144.009-.286.008-.429.015 1.1423376.0609376 2.2872393.0559293 3.429-.015 13.5723084-.9116476 24.6984095-11.1117852 26.783-24.554.3905691-2.6046184.4302558-5.249837.118-7.865z" fill="#fdd834"/><circle id="Oval" cx="9" cy="28" fill="#ff9801" r="3"/><circle id="Oval" cx="33" cy="52" fill="#ff9801" r="2"/><circle id="Oval" cx="22" cy="32" fill="#ff9801" r="2"/><g fill="#ffdc00"><path id="Shape" d="m56 3c-.5522847 0-1-.44771525-1-1v-1c0-.55228475.4477153-1 1-1s1 .44771525 1 1v1c0 .55228475-.4477153 1-1 1z"/><path id="Shape" d="m59 5h-1c-.5522847 0-1-.44771525-1-1s.4477153-1 1-1h1c.5522847 0 1 .44771525 1 1s-.4477153 1-1 1z"/><path id="Shape" d="m54 5h-1c-.5522847 0-1-.44771525-1-1s.4477153-1 1-1h1c.5522847 0 1 .44771525 1 1s-.4477153 1-1 1z"/><path id="Shape" d="m56 8c-.5522847 0-1-.44771525-1-1v-1c0-.55228475.4477153-1 1-1s1 .44771525 1 1v1c0 .55228475-.4477153 1-1 1z"/><path id="Shape" d="m49 20c-.5522847 0-1-.4477153-1-1v-1c0-.5522847.4477153-1 1-1s1 .4477153 1 1v1c0 .5522847-.4477153 1-1 1z"/><path id="Shape" d="m52 22h-1c-.5522847 0-1-.4477153-1-1s.4477153-1 1-1h1c.5522847 0 1 .4477153 1 1s-.4477153 1-1 1z"/><path id="Shape" d="m47 22h-1c-.5522847 0-1-.4477153-1-1s.4477153-1 1-1h1c.5522847 0 1 .4477153 1 1s-.4477153 1-1 1z"/><path id="Shape" d="m49 25c-.5522847 0-1-.4477153-1-1v-1c0-.5522847.4477153-1 1-1s1 .4477153 1 1v1c0 .5522847-.4477153 1-1 1z"/><path id="Shape" d="m37 14c-.5522847 0-1-.4477153-1-1v-1c0-.5522847.4477153-1 1-1s1 .4477153 1 1v1c0 .5522847-.4477153 1-1 1z"/><path id="Shape" d="m40 16h-1c-.5522847 0-1-.4477153-1-1s.4477153-1 1-1h1c.5522847 0 1 .4477153 1 1s-.4477153 1-1 1z"/><path id="Shape" d="m35 16h-1c-.5522847 0-1-.4477153-1-1s.4477153-1 1-1h1c.5522847 0 1 .4477153 1 1s-.4477153 1-1 1z"/><path id="Shape" d="m37 19c-.5522847 0-1-.4477153-1-1v-1c0-.5522847.4477153-1 1-1s1 .4477153 1 1v1c0 .5522847-.4477153 1-1 1z"/></g><path id="Shape" d="m26.03 18.91c-.3399694.060603-.684672.0907226-1.03.09-2.6619635.0012442-5.006493-1.7515701-5.7584439-4.3051208-.7519509-2.5535506.2684773-5.29725301 2.5062933-6.73886001s5.157931-1.23641304 7.1721506.50398081c-2.0837247 3.0719322-3.0992364 6.7439379-2.89 10.45z" fill="#ff9801"/><path id="Shape" d="m28.92 8.46c-1.4938009-1.30004985-3.5370145-1.77063767-5.449-1.255.9031201.22139283 1.7418454.65120102 2.449 1.255-2.0329 3.0019294-3.047108 6.5777751-2.893 10.2.6338532.2235323 1.3008882.3384801 1.973.34.345328.0007226.6900306-.029397 1.03-.09-.2092364-3.7060621.8062753-7.3780678 2.89-10.45z" fill="#f57c00"/><path id="Shape" d="m57.19 42.48c-2.6635514 5.5344442-7.0019887 10.0898033-12.4 13.02-2.3257991-2.2150466-3.2932128-5.5026332-2.5378256-8.6243576s3.1188139-5.6033224 6.2000001-6.5100001c3.0811863-.9066777 6.4120265-.1006891 8.7378255 2.1143577z" fill="#ff9801"/><path id="Shape" d="m51 40c-.5011768.0033441-1.0012171.0481638-1.495.134 1.7613426.2952506 3.393467 1.1125321 4.685 2.346-2.3236112 4.8310084-5.9316143 8.929581-10.429 11.847.3082998.4201285.6526004.8126111 1.029 1.173 5.3980113-2.9301967 9.7364486-7.4855558 12.4-13.02-1.6651836-1.5957359-3.8836634-2.4845614-6.19-2.48z" fill="#f57c00"/><path id="Shape" d="m59.167 24.674c-.8479912-.1744826-1.7097508.2295435-2.118.993-3.2715717 5.9799249-9.9725178 9.2305759-16.6941899 8.0984065-6.7216721-1.1321695-11.9880471-6.3985445-13.1202166-13.1202166-1.1321694-6.7216721 2.1184816-13.42261818 8.0984065-16.6941899.7642163-.40752803 1.1685229-1.26988601.993-2.118-.1608537-.85788228-.8594616-1.51237184-1.726-1.617-2.7015759-.32232257-5.4341212-.28196497-8.125.12-15.5392974 2.34497241-26.63542102 16.2843996-25.43600188 31.9537982 1.19941914 15.6693985 14.28783688 27.7576122 30.00300188 27.7102018.636 0 1.2736667-.0203333 1.913-.061 14.0452817-.9315571 25.5614794-11.4884873 27.708-25.4.4032783-2.6927668.4439737-5.4274256.121-8.131-.1013672-.8696212-.7565663-1.572228-1.617-1.734zm-34.155-6.674h-.012c-2.11346.0029209-4.0004966-1.3233132-4.7136536-3.3128179-.7131571-1.9895047-.0983884-4.2125349 1.5356387-5.55293675 1.6340272-1.34040181 3.9343532-1.50864038 5.7460149-.42024535-1.6792067 2.8058959-2.5628044 6.0160244-2.556 9.286zm19.955 36.24c-1.275763-1.4465338-1.9757551-3.3112816-1.967-5.24.0049599-4.4162219 3.5837781-7.9950401 8-8 1.7941244-.0039589 3.5363516.6018186 4.941 1.718-2.4755185 4.8146402-6.285371 8.8143951-10.974 11.521zm13.718-20c-.3436866 2.283402-.9739938 4.5143401-1.876 6.64-1.6900931-1.2226575-3.7230216-1.8805858-5.809-1.88-5.5203344.0060624-9.9939376 4.4796656-10 10-.006768 2.2508685.7576558 4.4361465 2.166 6.192-3.2344351 1.5800736-6.7459824 2.5141765-10.338 2.75-15.0019889 1.0433558-28.14904853-9.9499598-29.77791246-24.899711-1.62886392-14.9497513 8.84224156-28.51640576 23.71691246-30.728289 2.5198155-.37408446 5.0781075-.41241848 7.608-.114-2.212064 1.20853723-4.1455013 2.86839741-5.675 4.872-2.5196228-1.57183348-5.7571568-1.38111428-8.0748035.47567687-2.3176468 1.85679116-3.2100091 4.97475353-2.2256604 7.77657743.9843488 2.8018239 3.630757 4.6765303 6.6004639 4.6757457.04 0 .077-.01.117-.01.013.117.016.232.031.349 1.0138907 7.7255189 6.8815725 13.922528 14.5402764 15.3563587 7.6587039 1.4338306 15.370775-2.2208338 19.1107236-9.0563587.3020676 2.5270308.2637256 5.0831661-.114 7.6z" fill="#000"/><path id="Shape" d="m9 24c-2.209139 0-4 1.790861-4 4s1.790861 4 4 4 4-1.790861 4-4-1.790861-4-4-4zm0 6c-1.1045695 0-2-.8954305-2-2s.8954305-2 2-2 2 .8954305 2 2-.8954305 2-2 2z" fill="#000"/><path id="Shape" d="m35 39c0-.5522847-.4477153-1-1-1s-1 .4477153-1 1-.4477153 1-1 1-1-.4477153-1-1-.4477153-1-1-1-1 .4477153-1 1c0 1.6568542 1.3431458 3 3 3s3-1.3431458 3-3z" fill="#000"/><path id="Shape" d="m20 38c-.5522847 0-1 .4477153-1 1s-.4477153 1-1 1-1-.4477153-1-1-.4477153-1-1-1-1 .4477153-1 1c0 1.6568542 1.3431458 3 3 3s3-1.3431458 3-3c0-.5522847-.4477153-1-1-1z" fill="#000"/><path id="Shape" d="m28.032 43.019c-.5428128-.0086037-.9968716.4102567-1.032.952-.011.172-.16 1.029-2 1.029s-1.989-.857-2-1c0-.5522847-.4477153-1-1-1s-1 .4477153-1 1c0 1.038.836 3 4 3s4-1.962 4-3c-.0015636-.5360926-.4319759-.9722853-.968-.981z" fill="#000"/><path id="Shape" d="m33 49c-1.6568542 0-3 1.3431458-3 3s1.3431458 3 3 3 3-1.3431458 3-3-1.3431458-3-3-3zm0 4c-.5522847 0-1-.4477153-1-1s.4477153-1 1-1 1 .4477153 1 1-.4477153 1-1 1z" fill="#000"/><path id="Shape" d="m22 35c1.6568542 0 3-1.3431458 3-3s-1.3431458-3-3-3-3 1.3431458-3 3 1.3431458 3 3 3zm0-4c.5522847 0 1 .4477153 1 1s-.4477153 1-1 1-1-.4477153-1-1 .4477153-1 1-1z" fill="#000"/></g></g></svg>