<svg height="512" viewBox="0 0 60 60" width="512" xmlns="http://www.w3.org/2000/svg"><g id="Page-1" fill="none" fill-rule="evenodd"><g id="025---Cresent-Moon" fill-rule="nonzero" transform="translate(-1)"><path id="Shape" d="m50.72 29.21c-.158746 1.074216-.3892619 2.1365936-.69 3.18-1.3457098-2.2315561-3.4292369-3.9224321-5.89-4.78 2.1406822-1.3159747 3.901796-3.166695 5.11-5.37.1803273-.3167638.5438134-.4817542.9009661-.4089588.3571527.0727955.627068.3668869.6690339.7289588.2659055 2.2110755.2322687 4.4479196-.1 6.65z" fill="#ffeb3a"/><path id="Shape" d="m50.82 22.56c-.0419659-.3620719-.3118812-.6561633-.6690339-.7289588-.3571527-.0727954-.7206388.092195-.9009661.4089588-.3785464.6734251-.8098984 1.3157717-1.29 1.921.09137 1.6867842.0109563 3.378488-.24 5.049-.02.135-.051.268-.073.4.9390589.7920891 1.7437882 1.7308837 2.383 2.78.3007381-1.0434064.531254-2.105784.69-3.18.3322687-2.2020804.3659055-4.4389245.1-6.65z" fill="#fdd834"/><path id="Shape" d="m29.42 38.29c-.0047894 1.28736.2116945 2.5659682.64 3.78-4.1682059.1667958-7.5807684 3.3705999-8.01 7.52-11.7711878-2.1614022-20.25811857-12.5108369-20.07237968-24.4773745s8.98978198-22.04759004 20.82237968-23.8426255c2.1995695-.32406444 4.4324552-.35432946 6.64-.09.3620719.04196593.6561633.31188117.7289588.66903388.0727954.35715271-.092195.72063877-.4089588.90096612-5.2799167 2.8778177-8.2092423 8.739173-7.3413502 14.689477.8678921 5.9503041 5.349395 10.7307399 11.2313502 11.980523-2.6854546 2.1596023-4.2421744 5.4239297-4.23 8.87z" fill="#ffeb3a"/><path id="Shape" d="m33.65 29.42c-5.8819552-1.2497831-10.3634581-6.0302189-11.2313502-11.980523-.8678921-5.950304 2.0614335-11.8116593 7.3413502-14.689477.3167638-.18032735.4817542-.54381341.4089588-.90096612-.0727955-.35715271-.3668869-.62706795-.7289588-.66903388-1.4663601-.17295771-2.9452483-.21445627-4.419-.124.476.03.95.067 1.419.124.3620719.04196593.6561633.31188117.7289588.66903388.0727954.35715271-.092195.72063877-.4089588.90096612-5.2799167 2.8778177-8.2092423 8.739173-7.3413502 14.689477.8678921 5.9503041 5.349395 10.7307399 11.2313502 11.980523-3.7444233 3.0377863-5.1805356 8.0981818-3.59 12.65-3.894461.1531861-7.1689209 2.9717085-7.9 6.8.9474268.2983916 1.9122311.5385073 2.889.719.4292316-4.1494001 3.8417941-7.3532042 8.01-7.52-1.5905356-4.5518182-.1544233-9.6122137 3.59-12.65z" fill="#fdd834"/><circle id="Oval" cx="10" cy="22" fill="#ff9801" r="3"/><circle id="Oval" cx="19" cy="27" fill="#ff9801" r="2"/><path id="Shape" d="m60 48.65c.0220982 2.7240358-1.0392821 5.3451875-2.9504668 7.286381s-4.5154837 3.0432784-7.2395332 3.063619h-19.47c-4.6413131-.0374107-8.3743766-3.8286635-8.34-8.47 0-.32.02-.63.05-.94.4292316-4.1494001 3.8417941-7.3532042 8.01-7.52-1.5905356-4.5518182-.1544233-9.6122137 3.59-12.65 1.9516172-1.5721579 4.3839177-2.4264638 6.89-2.42 1.2259935-.0033021 2.4435295.2030026 3.6.61 2.4607631.8575679 4.5442902 2.5484439 5.89 4.78 1.0684033 1.7824248 1.6318502 3.821895 1.63 5.9.0019586.0568543-.0013892.1137674-.01.17 4.875692.9399277 8.3867432 5.2246716 8.35 10.19z" fill="#f5f5f5"/><path id="Shape" d="m51.65 38.46c.0086108-.0562326.0119586-.1131457.01-.17.0018502-2.078105-.5615967-4.1175752-1.63-5.9-1.3457098-2.2315561-3.4292369-3.9224321-5.89-4.78-1.1564705-.4069974-2.3740065-.6133021-3.6-.61-.5019388.0029376-1.0030961.0400233-1.5.111.7151823.0948167 1.4188254.2623508 2.1.5 2.4607631.8575679 4.5442902 2.5484439 5.89 4.78 1.0684033 1.7824248 1.6318502 3.821895 1.63 5.9.0019586.0568543-.0013892.1137674-.01.17 5.196416 1.0339428 8.77772 5.8187777 8.3049632 11.0959245-.4727567 5.2771468-4.8475137 9.3492326-10.1449632 9.4430755h3c5.299276-.0915108 9.6766988-4.1642739 10.149592-9.4432011s-3.1109551-10.0648714-8.309592-11.0967989z" fill="#cfd8dc"/><path id="Shape" d="m18.005 38c1.6568542 0 3 1.3431458 3 3v1h-6v-1c0-1.6568542 1.3431458-3 3-3z" fill="#ef314c" transform="matrix(-1 0 0 -1 36.01 80)"/><g fill="#ffdc00"><path id="Shape" d="m34 11c-.5522847 0-1-.4477153-1-1v-1c0-.55228475.4477153-1 1-1s1 .44771525 1 1v1c0 .5522847-.4477153 1-1 1z"/><path id="Shape" d="m32 13h-1c-.5522847 0-1-.4477153-1-1s.4477153-1 1-1h1c.5522847 0 1 .4477153 1 1s-.4477153 1-1 1z"/><path id="Shape" d="m34 16c-.5522847 0-1-.4477153-1-1v-1c0-.5522847.4477153-1 1-1s1 .4477153 1 1v1c0 .5522847-.4477153 1-1 1z"/><path id="Shape" d="m37 13h-1c-.5522847 0-1-.4477153-1-1s.4477153-1 1-1h1c.5522847 0 1 .4477153 1 1s-.4477153 1-1 1z"/><path id="Shape" d="m49 3c-.5522847 0-1-.44771525-1-1v-1c0-.55228475.4477153-1 1-1s1 .44771525 1 1v1c0 .55228475-.4477153 1-1 1z"/><path id="Shape" d="m47 5h-1c-.5522847 0-1-.44771525-1-1s.4477153-1 1-1h1c.5522847 0 1 .44771525 1 1s-.4477153 1-1 1z"/><path id="Shape" d="m49 8c-.5522847 0-1-.44771525-1-1v-1c0-.55228475.4477153-1 1-1s1 .44771525 1 1v1c0 .55228475-.4477153 1-1 1z"/><path id="Shape" d="m52 5h-1c-.5522847 0-1-.44771525-1-1s.4477153-1 1-1h1c.5522847 0 1 .44771525 1 1s-.4477153 1-1 1z"/><path id="Shape" d="m57 15c-.5522847 0-1-.4477153-1-1v-1c0-.5522847.4477153-1 1-1s1 .4477153 1 1v1c0 .5522847-.4477153 1-1 1z"/><path id="Shape" d="m55 17h-1c-.5522847 0-1-.4477153-1-1s.4477153-1 1-1h1c.5522847 0 1 .4477153 1 1s-.4477153 1-1 1z"/><path id="Shape" d="m57 20c-.5522847 0-1-.4477153-1-1v-1c0-.5522847.4477153-1 1-1s1 .4477153 1 1v1c0 .5522847-.4477153 1-1 1z"/><path id="Shape" d="m60 17h-1c-.5522847 0-1-.4477153-1-1s.4477153-1 1-1h1c.5522847 0 1 .4477153 1 1s-.4477153 1-1 1z"/></g><path id="Shape" d="m22.29 16.13c-.2836979.0523278-.5715179.0791017-.86.08-2.247187-.0042227-4.2234731-1.4871882-4.8556909-3.6436129-.6322177-2.1564248.230498-4.47172507 2.1196732-5.68864091 1.8891751-1.21691584 4.3539993-1.0450568 6.0560177.42225381-1.7634799 2.59515321-2.6276009 5.696856-2.46 8.83z" fill="#ff9801"/><path id="Shape" d="m24.75 7.3c-.9220176-.79713654-2.1011779-1.23399412-3.32-1.23-.5036389.00701978-1.0033081.09029798-1.482.247.6610427.20080791 1.2737311.53540387 1.8.983-1.6797937 2.47893383-2.5414184 5.4215361-2.464 8.415.6686429.3238868 1.4010614.4946934 2.144.5.2884821-.0008983.5763021-.0276722.86-.08-.1681216-3.1350528.6967565-6.23870729 2.462-8.835z" fill="#f57c00"/><path id="Shape" d="m14 22c0-2.209139-1.790861-4-4-4s-4 1.790861-4 4 1.790861 4 4 4 4-1.790861 4-4zm-6 0c0-1.1045695.8954305-2 2-2s2 .8954305 2 2-.8954305 2-2 2-2-.8954305-2-2z" fill="#000"/><path id="Shape" d="m21 33c0 1.6568542 1.3431458 3 3 3s3-1.3431458 3-3c0-.5522847-.4477153-1-1-1s-1 .4477153-1 1-.4477153 1-1 1-1-.4477153-1-1-.4477153-1-1-1-1 .4477153-1 1z" fill="#000"/><path id="Shape" d="m15 33c0-.5522847-.4477153-1-1-1s-1 .4477153-1 1-.4477153 1-1 1-1-.4477153-1-1-.4477153-1-1-1c-.55228475 0-1 .4477153-1 1 .00000003 1.6568542 1.3431458 2.9999999 3 2.9999999s3-1.3431457 3-2.9999999z" fill="#000"/><path id="Shape" d="m19 30c1.6568542 0 3-1.3431458 3-3s-1.3431458-3-3-3-3 1.3431458-3 3 1.3431458 3 3 3zm0-4c.5522847 0 1 .4477153 1 1s-.4477153 1-1 1-1-.4477153-1-1 .4477153-1 1-1z" fill="#000"/><path id="Shape" d="m52.646 37.661c-.0963148-1.8929984-.6273774-3.7383723-1.552-5.393.875974-3.1947249 1.1212081-6.5295003.722-9.818-.0900328-.7953441-.683138-1.4416486-1.4678421-1.5995018-.7847041-.1578533-1.5815862.2088374-1.9721579.9075018-1.0596709 1.9162503-2.5697934 3.5458097-4.4 4.748-3.5997073-1.0843417-7.5000871-.4048059-10.521 1.833-5.3599486-1.3120029-9.3619083-5.7841245-10.0729188-11.2563146s2.0152224-10.81851663 6.8619188-13.4566854c.6975209-.38900765 1.0648881-1.18319949.9097039-1.96664073-.1551843-.78344124-.7975609-1.37762274-1.5907039-1.47135927-2.2966659-.27427129-4.6195499-.24299911-6.908.093-12.1523489 1.84166721-21.26169966 12.090122-21.66538953 24.3745982-.40368986 12.2844763 8.01316926 23.1088736 20.01838953 25.7444018 0 .045-.006.089-.006.134-.0266233 5.1905856 4.1515146 9.4241815 9.342 9.466h19.464c5.6584709-.0893327 10.390543-4.3250716 11.1037657-9.9391242s-2.809384-10.8984857-8.2657657-12.3998758zm-2.764-14.507c.1957125 1.9682189.145661 3.9531462-.149 5.909-.05.343-.12.683-.186 1.023-.9585246-1.085399-2.1023064-1.9918241-3.378-2.677 1.4870911-1.1797231 2.7455221-2.6218518 3.713-4.255zm-28.6-7.962c-1.6829318-.0535744-3.1584393-1.1396369-3.7097566-2.7306049-.5513173-1.5909679-.0641934-3.35714015 1.2247388-4.44055306s3.1125634-1.25954757 4.5850178-.44284204c-1.3512122 2.31182674-2.0754282 4.9363773-2.101 7.614zm-18.232 8.762c.73712809-10.9966923 9.0039514-20.0105878 19.896-21.694 1.9536443-.28655702 3.9349628-.33357136 5.9-.14-1.6680455.98055448-3.1357916 2.26746179-4.326 3.793-2.1976307-1.30338663-4.9762756-1.09050273-6.9497071.53244688-1.9734316 1.62294962-2.7187951 4.30820932-1.8642392 6.71614032.854556 2.407931 3.1259225 4.0225767 5.6809463 4.0384128.006.05.007.1.013.15.798968 5.7879033 4.7790929 10.637473 10.3 12.55-2.8041093 3.0401556-3.907886 7.2782379-2.943 11.3-3.7269319.6507397-6.6920581 3.4874969-7.507 7.182-11.241071-2.5703258-18.95313012-12.9214346-18.2-24.428zm46.758 34.046h-19.464c-4.0314391-.0620349-7.2863961-3.3117158-7.3549709-7.343049s3.073974-7.3898385 7.1009709-7.588951c.0429737-.0092046.085378-.0208908.127-.035.0416475.011732.0840927.0204215.127.026 1.1395031-.0033854 2.2633396.2654028 3.278.784.4899383.2363237 1.0789165.0376851 1.325657-.4470907s.0607348-1.0778646-.418657-1.3349093c-1.1591673-.5875586-2.4306181-.9203384-3.729-.976-.2539441-.9085978-.3827978-1.847582-.383-2.791-.0961582-5.4679012 4.170664-10.0222723 9.6332195-10.2824198 5.4625556-.2601474 10.142878 3.868127 10.5667805 9.3204198-2.010962-.1508161-4.0248905.2510013-5.824 1.162-.4121265.2099958-.6264554.6752286-.5182495 1.1249373.108206.4497088.5107062.7665242.9732495.7660627.1575349.000339.3128626-.0370356.453-.109 1.7795724-.9018736 3.8063407-1.1935202 5.768-.83 4.6932006.9347959 7.9273997 5.2564996 7.500706 10.0228302s-4.3770927 8.4448513-9.161706 8.5311698z" fill="#000"/><path id="Shape" d="m45.389 34.46c.3313709.4418278.9581722.5313708 1.4.2.4418278-.3313709.5313708-.9581722.2-1.4-1.5097446-2.0499536-3.9040938-3.2601207-6.45-3.26-.5522847 0-1 .4477153-1 1s.4477153 1 1 1c1.9157576.0025794 3.716185.9157858 4.85 2.46z" fill="#000"/><path id="Shape" d="m55 45c-.5522847 0-1 .4477153-1 1s-.4477153 1-1 1-1-.4477153-1-1-.4477153-1-1-1-1 .4477153-1 1c0 1.6568542 1.3431458 3 3 3s3-1.3431458 3-3c0-.5522847-.4477153-1-1-1z" fill="#000"/><path id="Shape" d="m46 46c0-.5522847-.4477153-1-1-1s-1 .4477153-1 1-.4477153 1-1 1-1-.4477153-1-1-.4477153-1-1-1-1 .4477153-1 1c0 1.6568542 1.3431458 3 3 3s3-1.3431458 3-3z" fill="#000"/><path id="Shape" d="m50 50c-.5522847 0-1 .4477153-1 1s-.4477153 1-1 1-1-.4477153-1-1-.4477153-1-1-1-1 .4477153-1 1c.0000001 1.6568542 1.3431458 2.9999999 3 2.9999999s2.9999999-1.3431457 3-2.9999999c0-.5522847-.4477153-1-1-1z" fill="#000"/><path id="Shape" d="m21 37h-6c-.5522847 0-1 .4477153-1 1v1c0 2.209139 1.790861 4 4 4s4-1.790861 4-4v-1c0-.5522847-.4477153-1-1-1zm-3 4c-1.1045695 0-2-.8954305-2-2h4c0 1.1045695-.8954305 2-2 2z" fill="#000"/></g></g></svg>