<svg height="512" viewBox="0 0 60 60" width="512" xmlns="http://www.w3.org/2000/svg"><g id="Page-1" fill="none" fill-rule="evenodd"><g id="026---Umbrella" fill-rule="nonzero"><path id="Shape" d="m59 43c-.7000406-1.2406968-1.8102789-2.1988961-3.14-2.71-2.1625227-.9340107-4.5059164-1.374678-6.86-1.29-8.33 0-10 4-10 4s-1.23-3.27-7-3.89c-1.3293001-.1466652-2.6706999-.1466652-4 0-5.77.62-7 3.89-7 3.89s-1.67-4-10-4c-2.35408364-.084678-4.69747734.3559893-6.86 1.29-1.32972115.5111039-2.43995937 1.4693032-3.14 2.71 0-32.6 22.51-34.92 27.87-35.01.72-.02 1.13.01 1.13.01.4595338-.02670055.9201275-.03003819 1.38-.01 5.77.16 27.62 2.9 27.62 35.01z" fill="#c81e1e"/><path id="Shape" d="m55.86 40.29c-2.1625227-.9340107-4.5059164-1.374678-6.86-1.29-8.33 0-10 4-10 4s-1.23-3.27-7-3.89c-1.3293001-.1466652-2.6706999-.1466652-4 0-5.77.62-7 3.89-7 3.89s-1.67-4-10-4c-2.35408364-.084678-4.69747734.3559893-6.86 1.29 1.73-29.74 19.98-32.18 24.73-32.3.72-.02 1.13.01 1.13.01.4595338-.02670055.9201275-.03003819 1.38-.01 5.12.21 22.78 3.07 24.48 32.3z" fill="#f44335"/><path id="Shape" d="m38.92 42.83c-.6747371-1.1759983-1.708646-2.1047639-2.95-2.65-1.251169-.5844682-2.5945779-.9465457-3.97-1.07-1.3293001-.1466652-2.6706999-.1466652-4 0-1.3867239.1205393-2.7410542.4862085-4 1.08-1.2536921.550798-2.2906252 1.4998553-2.95 2.7-.2052215-4.1872236.0058136-8.3844784.63-12.53 1.08-7.86 3.4-15.97 8.31-22.34 3.83 5 6.1 11.14 7.41 17.24 1.2940752 5.7617267 1.8053479 11.6716356 1.52 17.57z" fill="#f5f5f5"/><path id="Shape" d="m32 39.11v12.89c0 3.8659932-3.1340068 7-7 7s-7-3.1340068-7-7v-2c0-1.1045695.8954305-2 2-2s2 .8954305 2 2v2c0 1.6568542 1.3431458 2.9999999 3 2.9999999s3-1.3431457 3-2.9999999v-12.89c1.3293001-.1466652 2.6706999-.1466652 4 0z" fill="#7f8e94"/><path id="Shape" d="m30 39c-.532 0-1.026.028-1.5.068.167.014.341.024.5.042v12.89c-.0046091 3.2856561-2.2913104 6.1269864-5.5 6.834 2.0707774.4597069 4.2382591-.0463323 5.8914001-1.3754576 1.6531409-1.3291254 2.6128606-3.3373561 2.6085999-5.4585424v-12.89c-.6640379-.0746037-1.3317857-.1113299-2-.11z" fill="#545c60"/><path id="Shape" d="m6 12c0 1.1045695-.8954305 2-2 2s-2-.8954305-2-2c0-1.1 2-4 2-4s2 2.9 2 4z" fill="#02a9f4"/><path id="Shape" d="m14 5c0 1.1045695-.8954305 2-2 2s-2-.8954305-2-2c0-1.1 2-4 2-4s2 2.9 2 4z" fill="#02a9f4"/><path id="Shape" d="m54 12c0 1.1045695.8954305 2 2 2s2-.8954305 2-2c0-1.105-2-4-2-4s-2 2.9-2 4z" fill="#02a9f4"/><path id="Shape" d="m46 5c0 1.1045695.8954305 2 2 2s2-.8954305 2-2c0-1.1-2-4-2-4s-2 2.9-2 4z" fill="#02a9f4"/><path id="Shape" d="m27 25h6v1c0 1.6568542-1.3431458 3-3 3s-3-1.3431458-3-3z" fill="#ef314c"/><g fill="#000"><path id="Shape" d="m49.936 14.385c-5.1944977-4.7001196-11.9310697-7.33412782-18.936-7.404v-.981c0-.55228475-.4477153-1-1-1s-1 .44771525-1 1v.98c-7.0041843.06836912-13.7405159 2.70099937-18.935 7.4-6.678 6.238-10.065 15.866-10.065 28.62-.000097.4752686.33433375.8849463.8.98.06576609.0137577.1328119.0204623.2.02.4038222-.0001345.76793229-.2431376.923-.616.015-.033 1.619-3.384 9.077-3.384s9.067 3.365 9.077 3.385c.1512905.3839873.528577.6305666.941.615.4105191-.0071574.7749483-.2645182.919-.649.01-.028.995-2.29 5.063-3.079v11.728c0 1.1045695-.8954305 2-2 2s-2-.8954305-2-2v-2c0-1.6568542-1.3431458-3-3-3s-3 1.3431458-3 3v2c0 4.418278 3.581722 8 8 8s8-3.581722 8-8v-11.734c4.063.772 5.026 2.993 5.072 3.107.1523085.3788649.5196662.6270689.928.627.3959712-.0058572.7530686-.2395087.917-.6.016-.035 1.637-3.4 9.083-3.4s9.068 3.368 9.084 3.4c.1897877.4333394.6572695.6743979 1.120363.5777186.4630934-.0966792.7950803-.5046413.795637-.9777186 0-12.754-3.387-22.382-10.064-28.615zm-18.936 37.615c-.0000001 3.3137084-2.6862916 5.9999999-6 5.9999999s-5.9999999-2.6862915-6-5.9999999v-2c0-.5522847.4477153-1 1-1s1 .4477153 1 1v2c0 2.209139 1.790861 4 4 4s4-1.790861 4-4v-11.968c.321-.018.649-.032 1-.032s.679.014 1 .031zm18-14c-4.674 0-7.427 1.221-9 2.408-.0105879-4.2112214-.3731837-8.4141883-1.084-12.565-.0972777-.5405921-.6123712-.9015322-1.1536975-.8084273-.5413264.0931048-.906229.6053988-.8173025 1.1474273.6797171 3.9942865 1.0325532 8.0373539 1.055 12.089-1.464-1.144-3.93-2.271-8-2.271-4.1 0-6.569 1.142-8.025 2.294.020137-4.0609076.3719737-8.1133841 1.052-12.117.0734897-.3575014-.053626-.7266459-.3316468-.9631039s-.6627834-.3026685-1.0038517-.172744c-.3410683.1299244-.5842641.4353453-.6345015.7968479-.710657 4.1451295-1.0735872 8.3424083-1.085 12.548-1.581-1.18-4.328-2.386-8.972-2.386-4.619 0-7.364 1.193-8.948 2.367.43-10.856 3.573-19.089 9.357-24.5 4.5947486-4.1290572 10.472828-6.54732372 16.643-6.847-1.3907525 2.0777859-2.5715558 4.2886517-3.525 6.6-.1477765.331755-.1040686.7175508.1141808 1.0078376.2182493.2902869.576727.4394261.936473.3896053.3597459-.0498208.6642009-.2907688.7953462-.6294429.9622858-2.3471847 2.1742571-4.5840512 3.615-6.672 1.4369833 2.0883322 2.6477925 4.3235691 3.612 6.668.1546469.3718568.5172702.6146567.92.616.131861.0002684.2624364-.0259147.384-.077.5092385-.2125965.750009-.7975166.538-1.307-.9526578-2.31058-2.131389-4.5213291-3.519-6.6 6.1787162.29557684 12.066124 2.7144014 16.668 6.848 5.782 5.409 8.924 13.638 9.357 24.486-1.581-1.169-4.321-2.35-8.948-2.35z"/><path id="Shape" d="m23 19c-1.6568542 0-3 1.3431458-3 3 0 .5522847.4477153 1 1 1s1-.4477153 1-1 .4477153-1 1-1 1 .4477153 1 1 .4477153 1 1 1 1-.4477153 1-1c0-1.6568542-1.3431458-3-3-3z"/><path id="Shape" d="m37 19c-1.6568542 0-3 1.3431458-3 3 0 .5522847.4477153 1 1 1s1-.4477153 1-1 .4477153-1 1-1 1 .4477153 1 1 .4477153 1 1 1 1-.4477153 1-1c0-1.6568542-1.3431458-3-3-3z"/><path id="Shape" d="m7 12c0-1.278-1.522-3.621-2.177-4.568-.19647611-.25563315-.50058541-.40545356-.823-.40545356s-.62652389.14982041-.823.40545356c-.655.947-2.177 3.29-2.177 4.568.00000002 1.6568542 1.34314577 3 3 3s2.99999998-1.3431458 3-3zm-4 0c.21692468-.7640223.5545119-1.4884844 1-2.146.44541343.6575579.78299487 1.3820077 1 2.146 0 .5522847-.44771525 1-1 1s-1-.4477153-1-1z"/><path id="Shape" d="m15 5c0-1.278-1.522-3.621-2.177-4.568-.1964761-.25563315-.5005854-.40545356-.823-.40545356s-.6265239.14982041-.823.40545356c-.655.947-2.177 3.29-2.177 4.568 0 1.65685425 1.3431458 3 3 3s3-1.34314575 3-3zm-4 0c.2168254-.76437059.554416-1.48917743 1-2.147.4455093.65786493.783094 1.38265936 1 2.147 0 .55228475-.4477153 1-1 1s-1-.44771525-1-1z"/><path id="Shape" d="m59 12c0-1.278-1.522-3.621-2.177-4.568-.1964761-.25563315-.5005854-.40545356-.823-.40545356s-.6265239.14982041-.823.40545356c-.655.947-2.177 3.29-2.177 4.568 0 1.6568542 1.3431458 3 3 3s3-1.3431458 3-3zm-4 0c.2177526-.7640254.5552768-1.4886899 1-2.147.4457938.6577036.7834006 1.3825453 1 2.147 0 .5522847-.4477153 1-1 1s-1-.4477153-1-1z"/><path id="Shape" d="m51 5c0-1.278-1.522-3.621-2.177-4.568-.1964761-.25563315-.5005854-.40545356-.823-.40545356s-.6265239.14982041-.823.40545356c-.655.947-2.177 3.29-2.177 4.568 0 1.65685425 1.3431458 3 3 3s3-1.34314575 3-3zm-4 0c.2177526-.76402537.5552768-1.48868988 1-2.147.4457938.65770364.7834006 1.38254534 1 2.147 0 .55228475-.4477153 1-1 1s-1-.44771525-1-1z"/><path id="Shape" d="m33 24h-6c-.5522847 0-1 .4477153-1 1v1c0 2.209139 1.790861 4 4 4s4-1.790861 4-4v-1c0-.5522847-.4477153-1-1-1zm-3 4c-1.1045695 0-2-.8954305-2-2h4c0 1.1045695-.8954305 2-2 2z"/></g></g></g></svg>