<svg height="512" viewBox="0 0 60 60" width="512" xmlns="http://www.w3.org/2000/svg"><g id="Page-1" fill="none" fill-rule="evenodd"><g id="028---Nightime-Fog" fill-rule="nonzero" transform="translate(-1)"><path id="Shape" d="m28 38c0 1.6568542 1.3431458 3 3 3h-6c-1.6568542 0-3 1.3431458-3 3s1.3431458 3 3 3h4c-1.6568542 0-3 1.3431458-3 3-.0005369.3340486.0569857.6656491.17.98-12.9079826-.4254377-23.36730487-10.6128348-24.13254205-23.5051358s8.41552105-24.24545747 21.18254205-26.1948642c2.2456964-.33223824 4.5254821-.36586339 6.78-.1.3695715.04645875.6679016.32428432.7405145.68961823.072613.36533391-.0967991.73612687-.4205145.92038177-5.3130401 2.89858655-8.2973097 8.7654388-7.5111984 14.7664577.7861114 6.0010189 5.1808293 10.901251 11.0611984 12.3335423-.8510424.8601491-1.1020355 2.1473623-.6364909 3.264232.4655445 1.1168698 1.5564791 1.8447276 2.7664909 1.845768h-5c-.7956495 0-1.5587112.3160705-2.1213203.8786797-.5626092.5626091-.8786797 1.3256708-.8786797 2.1213203z" fill="#ffeb3a"/><path id="Shape" d="m25 41h-3c-1.6568542 0-3 1.3431458-3 3s1.3431458 3 3 3h3c-1.6568542 0-3-1.3431458-3-3s1.3431458-3 3-3z" fill="#fdd834"/><path id="Shape" d="m23 50c.0033369.2304554.0338819.4597102.091.683 1.019202.1631098 2.0474815.2632994 3.079.3-.1133574-.3152987-.1708851-.6479442-.17-.983 0-1.6568542 1.3431458-3 3-3h-3c-1.6568542 0-3 1.3431458-3 3z" fill="#fdd834"/><path id="Shape" d="m31 35h-3c-1.6568542 0-3 1.3431458-3 3s1.3431458 3 3 3h3c-1.6568542 0-3-1.3431458-3-3s1.3431458-3 3-3z" fill="#fdd834"/><path id="Shape" d="m33 32c.0006867-.7904856.3133382-1.5487553.87-2.11-5.8803691-1.4322913-10.275087-6.3325234-11.0611984-12.3335423-.7861113-6.0010189 2.1981583-11.86787115 7.5111984-14.7664577.3237154-.1842549.4931275-.55504786.4205145-.92038177-.0726129-.36533391-.370943-.64315948-.7405145-.68961823-1.4752773-.17001529-2.9625388-.21150469-4.445-.124.485.03.968.067 1.445.124.3695715.04645875.6679016.32428432.7405145.68961823.072613.36533391-.0967991.73612687-.4205145.92038177-5.3130401 2.89858655-8.2973097 8.7654388-7.5111984 14.7664577.7861114 6.0010189 5.1808293 10.901251 11.0611984 12.3335423-.8510424.8601491-1.1020355 2.1473623-.6364909 3.264232.4655445 1.1168698 1.5564791 1.8447276 2.7664909 1.845768h3c-1.6568542 0-3-1.3431458-3-3z" fill="#fdd834"/><path id="Shape" d="m51.75 29.56c-.5108902-.3641382-1.1226202-.5598918-1.75-.56h-6.59c2.8926747-1.3125759 5.2795569-3.5309724 6.8-6.32.1842549-.3237154.5550479-.4931275.9203818-.4205145.3653339.0726129.6431594.370943.6896182.7405145.2561454 2.1807239.2326216 4.3852385-.07 6.56z" fill="#ffeb3a"/><path id="Shape" d="m51.82 23c-.0464588-.3695715-.3242843-.6679016-.6896182-.7405145-.3653339-.072613-.7361269.0967991-.9203818.4205145-.3660151.6720347-.7846561 1.3140401-1.252 1.92.0753897 1.4682366.0255427 2.9402271-.149 4.4h1.191c.6273798.0001082 1.2391098.1958618 1.75.56.3026216-2.1747615.3261454-4.3792761.07-6.56z" fill="#fdd834"/><circle id="Oval" cx="10.002" cy="22" fill="#ff9801" r="3"/><path id="Shape" d="m60 44c0 1.6568542-1.3431458 3-3 3h-12c1.6568542.0000001 2.9999999 1.3431458 2.9999999 3s-1.3431457 2.9999999-2.9999999 3h8c1.6568542 0 3 1.3431458 3 3s-1.3431458 3-3 3h-18c-1.6568542 0-3-1.3431458-3-3s1.3431458-3 3-3h-6c-1.2786019.0022642-2.416651-.8100535-2.83-2.02-.1130143-.3143509-.1705369-.6459514-.17-.98 0-1.6568542 1.3431458-3 3-3h-4c-1.6568542 0-3-1.3431458-3-3s1.3431458-3 3-3h6c-1.6568542 0-3-1.3431458-3-3s1.3431458-3 3-3h5c-1.6568542 0-3-1.3431458-3-3s1.3431458-3 3-3h14c1.6568542 0 3 1.3431458 3 3s-1.3431458 3-3 3h4c1.6568542 0 3 1.3431458 3 3s-1.3431458 3-3 3h3c.7956495 0 1.5587112.3160705 2.1213203.8786797.5626092.5626091.8786797 1.3256708.8786797 2.1213203z" fill="#9e9e9e"/><path id="Shape" d="m53 53h-3c1.6568542 0 3 1.3431458 3 3s-1.3431458 3-3 3h3c1.6568542 0 3-1.3431458 3-3s-1.3431458-3-3-3z" fill="#707070"/><path id="Shape" d="m45 50c0 1.6568542-1.3431458 3-3 3h3c1.6568542 0 3-1.3431458 3-3s-1.3431458-3-3-3h-3c1.6568542 0 3 1.3431458 3 3z" fill="#707070"/><path id="Shape" d="m50 32c0 1.6568542-1.3431458 3-3 3h3c1.6568542 0 3-1.3431458 3-3s-1.3431458-3-3-3l-3-.0000082c.7962196-.0018562 1.560365.3136156 2.1233788.8766294s.8784856 1.3271592.8766212 2.1233788z" fill="#707070"/><path id="Shape" d="m57 38c0-1.6568542-1.3431458-3-3-3h-3c1.6568542 0 3 1.3431458 3 3s-1.3431458 3-3 3h3c1.6568542 0 3-1.3431458 3-3z" fill="#707070"/><path id="Shape" d="m57 41h-3c1.6568542 0 3 1.3431458 3 3s-1.3431458 3-3 3h3c1.6568542 0 3-1.3431458 3-3s-1.3431458-3-3-3z" fill="#707070"/><g fill="#ffdc00"><path id="Shape" d="m36 14c-.5522847 0-1-.4477153-1-1v-1c0-.5522847.4477153-1 1-1s1 .4477153 1 1v1c0 .5522847-.4477153 1-1 1z"/><path id="Shape" d="m34 16h-1c-.5522847 0-1-.4477153-1-1s.4477153-1 1-1h1c.5522847 0 1 .4477153 1 1s-.4477153 1-1 1z"/><path id="Shape" d="m36 19c-.5522847 0-1-.4477153-1-1v-1c0-.5522847.4477153-1 1-1s1 .4477153 1 1v1c0 .5522847-.4477153 1-1 1z"/><path id="Shape" d="m39 16h-1c-.5522847 0-1-.4477153-1-1s.4477153-1 1-1h1c.5522847 0 1 .4477153 1 1s-.4477153 1-1 1z"/><path id="Shape" d="m49 3c-.5522847 0-1-.44771525-1-1v-1c0-.55228475.4477153-1 1-1s1 .44771525 1 1v1c0 .55228475-.4477153 1-1 1z"/><path id="Shape" d="m47 5h-1c-.5522847 0-1-.44771525-1-1s.4477153-1 1-1h1c.5522847 0 1 .44771525 1 1s-.4477153 1-1 1z"/><path id="Shape" d="m49 8c-.5522847 0-1-.44771525-1-1v-1c0-.55228475.4477153-1 1-1s1 .44771525 1 1v1c0 .55228475-.4477153 1-1 1z"/><path id="Shape" d="m52 5h-1c-.5522847 0-1-.44771525-1-1s.4477153-1 1-1h1c.5522847 0 1 .44771525 1 1s-.4477153 1-1 1z"/><path id="Shape" d="m57 15c-.5522847 0-1-.4477153-1-1v-1c0-.5522847.4477153-1 1-1s1 .4477153 1 1v1c0 .5522847-.4477153 1-1 1z"/><path id="Shape" d="m55 17h-1c-.5522847 0-1-.4477153-1-1s.4477153-1 1-1h1c.5522847 0 1 .4477153 1 1s-.4477153 1-1 1z"/><path id="Shape" d="m57 20c-.5522847 0-1-.4477153-1-1v-1c0-.5522847.4477153-1 1-1s1 .4477153 1 1v1c0 .5522847-.4477153 1-1 1z"/><path id="Shape" d="m60 17h-1c-.5522847 0-1-.4477153-1-1s.4477153-1 1-1h1c.5522847 0 1 .4477153 1 1s-.4477153 1-1 1z"/></g><path id="Shape" d="m22.72 16.44c-.2938604.0518634-.5916012.0786266-.89.08-2.2996053.007018-4.3279859-1.5043011-4.9790546-3.7098267s.2313762-4.57611718 2.1661326-5.81907796c1.9347564-1.24296079 4.4576455-1.06008481 6.192922.44890466-1.8021521 2.6422249-2.6778012 5.8072213-2.49 9z" fill="#ff9801"/><path id="Shape" d="m25.21 7.44c-1.3259279-1.18584938-3.1829595-1.57600129-4.874-1.024.6890436.20738582 1.3272871.55613787 1.874 1.024-1.7253918 2.53409822-2.6008539 5.5509407-2.5 8.615.6640698.3042212 1.3855657.462773 2.116.465.2983988-.0013734.5961396-.0281366.89-.08-.1866302-3.1932342.6904365-6.3582705 2.494-9z" fill="#f57c00"/><path id="Shape" d="m14 22c0-2.209139-1.790861-4-4-4s-4 1.790861-4 4 1.790861 4 4 4 4-1.790861 4-4zm-6 0c0-1.1045695.8954305-2 2-2s2 .8954305 2 2-.8954305 2-2 2-2-.8954305-2-2z" fill="#000"/><path id="Shape" d="m23 34c1.6568542 0 3-1.3431458 3-3 0-.5522847-.4477153-1-1-1s-1 .4477153-1 1-.4477153 1-1 1-1-.4477153-1-1-.4477153-1-1-1-1 .4477153-1 1c0 .7956495.3160705 1.5587112.8786797 2.1213203.5626091.5626092 1.3256708.8786797 2.1213203.8786797z" fill="#000"/><path id="Shape" d="m14 31c0-.5522847-.4477153-1-1-1s-1 .4477153-1 1-.4477153 1-1 1-1-.4477153-1-1-.44771525-1-1-1-1 .4477153-1 1c0 1.6568542 1.34314575 3 3 3 1.6568542 0 3-1.3431458 3-3z" fill="#000"/><path id="Shape" d="m21.449 38.9c.2372731-.1186456.4176795-.3267092.5015133-.578398.0838337-.2516887.064224-.5263747-.0545133-.763602-1.0256224-1.7007324-2.9141731-2.6874384-4.896-2.558-1.9801926-.1289235-3.8674465.8553787-4.895 2.553-.2426084.4876011-.0472003 1.0796251.438 1.327.488033.2480667 1.0848496.0617002 1.345-.42.6959579-1.0148324 1.8866973-1.5734698 3.112-1.46 1.2243385-.1122301 2.4138879.4452636 3.111 1.458.2505773.4868804.8461312.6816836 1.336.437z" fill="#000"/><path id="Shape" d="m57.45 40.025c.7261205-1.2369318.7343816-2.7679618.0216514-4.0126572-.7127302-1.2446955-2.0373393-2.0125052-3.4716514-2.0123428h-.537c.9141656-1.5785574.6407353-3.5761635-.664-4.851.2501333-2.0822435.2548322-4.1866602.014-6.27-.1001458-.802176-.705946-1.4483629-1.5-1.6-.7926941-.1656826-1.5994541.2126263-1.979.928-1.3906019 2.5319222-3.5459342 4.5595025-6.158 5.793h-7.176c-.8507134.0024309-1.6781001.2783433-2.36.787-5.3432027-1.5016897-9.2446993-6.0897867-9.8682195-11.6048669s2.1551547-10.85841952 7.0282195-13.5151331c.7115427-.38097735 1.0878702-1.1844875.925-1.975-.1502884-.79759282-.7993999-1.40626117-1.605-1.505-2.3421316-.27752919-4.7106906-.24390399-7.044.1-9.4724075 1.44284653-17.38354323 7.97861797-20.58784228 17.0086112-3.20429905 9.0299932-1.18237039 19.0905191 5.26184228 26.1813888 4.5707115 5.0656685 10.9644085 8.1111081 17.778 8.468.6999225 1.2630812 2.0279671 2.0491214 3.472 2.055h2.537c-.7144329 1.2374339-.7145379 2.7619908-.0002755 3.9995231s2.0344099 2.0000834 3.4632755 2.0004769h18c2.209139 0 4-1.790861 4-4s-1.790861-4-4-4h-4.535c.7159782-1.2372162.7159782-2.7627838 0-4h8.535c2.1225547.0007897 3.8761437-1.6564376 3.9951917-3.7756512.119048-2.1192137-1.4379027-3.9624123-3.5471917-4.1993488zm-6.575-16.484c.1501784 1.5192004.1598862 3.049016.029 4.57-.2961337-.0712461-.5994268-.1084867-.904-.111h-3.029c1.5732869-1.2242946 2.8983449-2.7377253 3.904-4.459zm-29.175-8.041c-1.7313209-.0460269-3.2536766-1.1581737-3.8239178-2.7935378-.5702412-1.635364-.0694694-3.45296269 1.2578598-4.56552173 1.3273293-1.11255905 3.2044604-1.28810368 4.715058-.44094047-1.3874149 2.3667844-2.1284973 5.0566137-2.149 7.8zm-12.47 26.632c-5.94194665-6.5453533-7.80558358-15.8268317-4.85082113-24.1585638 2.95476246-8.331732 10.24969333-14.36521924 18.98782113-15.7044362 2.0181913-.2966848 4.0651817-.34437514 6.095-.142-1.7298772 1.0053713-3.2504467 2.33379028-4.479 3.913-2.2360344-1.33050923-5.0663201-1.11582233-7.0760779.53674483-2.0097578 1.65256717-2.7672785 4.38803237-1.8938992 6.83901447s3.1900511 4.0909941 5.7919771 4.1002407c.007.056.008.112.015.168.7692844 5.9150194 4.8380841 10.8764877 10.488 12.789-.4778993 1.1472496-.3924526 2.4518831.231 3.527h-1.539c-1.4288656.0003935-2.7490131.7629446-3.4632755 2.0004769s-.7141574 2.7620892.0002755 3.9995231h-2.537c-2.209139 0-4 1.790861-4 4s1.790861 4 4 4h.537c-.3361187.5820577-.518835 1.239974-.531 1.912-6.0600193-.4807008-11.7055919-3.2648384-15.776-7.78zm47.77 3.868h-18c-.5522847 0-1 .4477153-1 1s.4477153 1 1 1h6c1.1045695 0 2 .8954305 2 2s-.8954305 2-2 2c-.5522847 0-1 .4477153-1 1s.4477153 1 1 1h8c1.1045695 0 2 .8954305 2 2s-.8954305 2-2 2h-18c-1.1045695 0-2-.8954305-2-2s.8954305-2 2-2h4c.5522847 0 1-.4477153 1-1s-.4477153-1-1-1h-10c-1.1045695 0-2-.8954305-2-2s.8954305-2 2-2h3c.5522847 0 1-.4477153 1-1s-.4477153-1-1-1h-7c-1.1045695 0-2-.8954305-2-2s.8954305-2 2-2h15c.5522847 0 1-.4477153 1-1s-.4477153-1-1-1h-9c-1.1045695 0-2-.8954305-2-2s.8954305-2 2-2h5c.5522847 0 1-.4477153 1-1s-.4477153-1-1-1c-1.1045695 0-2-.8954305-2-2s.8954305-2 2-2h14c1.1045695 0 2 .8954305 2 2s-.8954305 2-2 2h-8c-.5522847 0-1 .4477153-1 1s.4477153 1 1 1h12c1.1045695 0 2 .8954305 2 2s-.8954305 2-2 2h-3c-.5522847 0-1 .4477153-1 1s.4477153 1 1 1h6c1.1045695 0 2 .8954305 2 2s-.8954305 2-2 2z" fill="#000"/><path id="Shape" d="m46 40h-1c-.5522847 0-1 .4477153-1 1s.4477153 1 1 1h1c.5522847 0 1-.4477153 1-1s-.4477153-1-1-1z" fill="#000"/></g></g></svg>