<svg height="512" viewBox="0 0 60 60" width="512" xmlns="http://www.w3.org/2000/svg"><g id="Page-1" fill="none" fill-rule="evenodd"><g id="029---Full-Moon-Fog" fill-rule="nonzero" transform="translate(-1 -1)"><path id="Shape" d="m51 26.5c.0015002 1.2017944-.0887622 2.4019492-.27 3.59-.2385671-.0606495-.4838459-.0908894-.73-.09h-14c-1.6568542 0-3 1.3431458-3 3s1.3431458 3 3 3h-5c-1.6568542 0-3 1.3431458-3 3s1.3431458 3 3 3h-6c-1.6568542 0-3 1.3431458-3 3s1.3431458 3 3 3h4c-1.6490751-.0000366-2.9890062 1.3309616-3 2.98-3.3226911-.0463785-6.5991609-.7854574-9.62-2.17-.12-.06-.25-.11-.37-.17-10.0096901-4.7481557-15.5874443-15.6227054-13.60384113-26.5224392s11.03489723-19.11199588 22.07561733-20.0292635c11.04072-.91726763 21.3231223 5.68874287 25.0782238 16.1117027.8643475 2.3991489 1.3403315 4.9208514 1.41 7.47.02.27.03.55.03.83z" fill="#9e9e9e"/><path id="Shape" d="m31 36h-3c-1.6568542 0-3 1.3431458-3 3s1.3431458 3 3 3h3c-1.6568542 0-3-1.3431458-3-3s1.3431458-3 3-3z" fill="#707070"/><path id="Shape" d="m36 30h-3c-1.6568542 0-3 1.3431458-3 3s1.3431458 3 3 3h3c-1.6568542 0-3-1.3431458-3-3s1.3431458-3 3-3z" fill="#707070"/><path id="Shape" d="m50.97 25.67c-.0696685-2.5491486-.5456525-5.0708511-1.41-7.47-3.5041036-9.72043373-12.7272572-16.19983914-23.06-16.2-.478 0-.948.036-1.42.063 9.7328097.62649995 18.1681196 6.9635854 21.48 16.137.8643475 2.3991489 1.3403315 4.9208514 1.41 7.47.02.27.03.55.03.83.0002236 1.1714991-.0866828 2.3413925-.26 3.5h2.26c.2461541-.0008894.4914329.0293505.73.09.1812378-1.1880508.2715002-2.3882056.27-3.59 0-.28-.01-.56-.03-.83z" fill="#707070"/><path id="Shape" d="m41.435 12.565c-.2653486.0007185-.5199469-.1047939-.707-.293-6.3357253-6.28374644-16.0398166-7.67521059-23.886-3.425-.313816.17499152-.6973901.16817151-1.0047869-.01786528-.3073968-.1860368-.4913564-.52268868-.4818892-.88187228.0094673-.35918359.2109059-.68567726.5276761-.85526244 8.6259447-4.67165054 19.2937371-3.14170249 26.259 3.766.2859079.2859943.3714219.7160366.216678 1.0896546-.1547439.3736179-.5192821.6172591-.923678.6173454z" fill="#f5f5f5"/><path id="Shape" d="m11.565 12.565c-.4043959-.0000863-.7689341-.2437275-.923678-.6173454-.1547439-.373618-.0692299-.8036603.216678-1.0896546.474-.473.973-.929 1.484-1.356.27438-.22882861.6499961-.29389499.9853575-.17068927s.5795186.41596567.6405.76799997c.0609814.3520344-.0704775.7098607-.3448575.9386893-.465.388-.919.8-1.351 1.234-.1870531.1882061-.4416514.2937185-.707.293z" fill="#f5f5f5"/><path id="Shape" d="m27 19c2.209139 0 4 1.790861 4 4v1h-8v-1c0-2.209139 1.790861-4 4-4z" fill="#ef314c"/><circle id="Oval" cx="21" cy="32" fill="#7f8e94" r="4"/><circle id="Oval" cx="12" cy="37" fill="#7f8e94" r="2"/><path id="Shape" d="m60 45c0 1.6568542-1.3431458 3-3 3h-12c1.6568542.0000001 2.9999999 1.3431458 2.9999999 3s-1.3431457 2.9999999-2.9999999 3h8c1.6568542 0 3 1.3431458 3 3s-1.3431458 3-3 3h-18c-1.6568542 0-3-1.3431458-3-3s1.3431458-3 3-3h-6c-1.6568542 0-3-1.3431458-3-3v-.02c.0109938-1.6490384 1.3509249-2.9800366 3-2.98h-4c-1.6568542 0-3-1.3431458-3-3s1.3431458-3 3-3h6c-1.6568542 0-3-1.3431458-3-3s1.3431458-3 3-3h5c-1.6568542 0-3-1.3431458-3-3s1.3431458-3 3-3h14c.2461541-.0008894.4914329.0293505.73.09 1.4694511.368279 2.4337666 1.7742915 2.2480586 3.2777636-.1857081 1.5034721-1.4631607 2.6325826-2.9780586 2.6322364h4c1.6568542 0 3 1.3431458 3 3s-1.3431458 3-3 3h3c.7956495 0 1.5587112.3160705 2.1213203.8786797.5626092.5626091.8786797 1.3256708.8786797 2.1213203z" fill="#f5f5f5"/><path id="Shape" d="m45 51c0 1.6568542-1.3431458 3-3 3h3c1.6568542 0 3-1.3431458 3-3s-1.3431458-3-3-3h-3c1.6568542 0 3 1.3431458 3 3z" fill="#cfd8dc"/><path id="Shape" d="m50 33c0 1.6568542-1.3431458 3-3 3.0000001l3-.0000001c1.5148979.0003462 2.7923505-1.1287643 2.9780586-2.6322364.185708-1.5034721-.7786075-2.9094846-2.2480586-3.2777636-.2385671-.0606495-.4838459-.0908894-.73-.09l-3-.0000191c.2461541-.0008703.4914329.0293696.73.0900191 1.337511.3299699 2.275488 1.5323986 2.27 2.91z" fill="#cfd8dc"/><path id="Shape" d="m57 39c0-1.6568542-1.3431458-3-3-3h-3c1.6568542 0 3 1.3431458 3 3s-1.3431458 3-3 3h3c1.6568542 0 3-1.3431458 3-3z" fill="#cfd8dc"/><path id="Shape" d="m53 54h-3c1.6568542 0 3 1.3431458 3 3s-1.3431458 3-3 3h3c1.6568542 0 3-1.3431458 3-3s-1.3431458-3-3-3z" fill="#cfd8dc"/><path id="Shape" d="m57 42h-3c1.6568542 0 3 1.3431458 3 3s-1.3431458 3-3 3h3c1.6568542 0 3-1.3431458 3-3s-1.3431458-3-3-3z" fill="#cfd8dc"/><g fill="#ffdc00"><path id="Shape" d="m54 7c-.5522847 0-1-.44771525-1-1v-1c0-.55228475.4477153-1 1-1s1 .44771525 1 1v1c0 .55228475-.4477153 1-1 1z"/><path id="Shape" d="m57 9h-1c-.5522847 0-1-.44771525-1-1s.4477153-1 1-1h1c.5522847 0 1 .44771525 1 1s-.4477153 1-1 1z"/><path id="Shape" d="m54 12c-.5522847 0-1-.4477153-1-1v-1c0-.55228475.4477153-1 1-1s1 .44771525 1 1v1c0 .5522847-.4477153 1-1 1z"/><path id="Shape" d="m52 9h-1c-.5522847 0-1-.44771525-1-1s.4477153-1 1-1h1c.5522847 0 1 .44771525 1 1s-.4477153 1-1 1z"/><path id="Shape" d="m9 53c-.55228475 0-1-.4477153-1-1v-1c0-.5522847.44771525-1 1-1s1 .4477153 1 1v1c0 .5522847-.44771525 1-1 1z"/><path id="Shape" d="m12 55h-1c-.5522847 0-1-.4477153-1-1s.4477153-1 1-1h1c.5522847 0 1 .4477153 1 1s-.4477153 1-1 1z"/><path id="Shape" d="m9 58c-.55228475 0-1-.4477153-1-1v-1c0-.5522847.44771525-1 1-1s1 .4477153 1 1v1c0 .5522847-.44771525 1-1 1z"/><path id="Shape" d="m7 55h-1c-.55228475 0-1-.4477153-1-1s.44771525-1 1-1h1c.55228475 0 1 .4477153 1 1s-.44771525 1-1 1z"/></g><path id="Shape" d="m29 48c-1.6490751-.0000366-2.9890062 1.3309616-3 2.98-3.3226911-.0463785-6.5991609-.7854574-9.62-2.17-.12-.06-.25-.11-.37-.17-.128751-1.6851849.4391852-3.3494448 1.571261-4.6043669s2.72924-1.9907068 4.418739-2.0356331c.5943986.0010935 1.1849338.0955792 1.75.28-1.2732159.5923446-1.9651761 1.9886334-1.6653759 3.3605192s1.5111329 2.3522452 2.9153759 2.3594808z" fill="#7f8e94"/><path id="Shape" d="m20.75 42.28c-1.2732159.5923446-1.9651761 1.9886334-1.6653759 3.3605192s1.5111329 2.3522452 2.9153759 2.3594808h3c-1.404243-.0072356-2.6155757-.987595-2.9153759-2.3594808s.39216-2.7681746 1.6653759-3.3605192c-.5650662-.1844208-1.1556014-.2789065-1.75-.28-.5155961.0021373-1.0285502.0737827-1.525.213.091.025.185.038.275.067z" fill="#545c60"/><path id="Shape" d="m26 48c-1.5533786.0024405-2.8461597 1.1939719-2.975 2.742.9860382.1385436 1.9794768.2180187 2.975.238.0109938-1.6490384 1.3509249-2.9800366 3-2.98z" fill="#545c60"/><path id="Shape" d="m51 26.5v.1c-1.8685797.8110358-4.0422428.4092078-5.4973781-1.0162572-1.4551353-1.4254649-1.9016511-3.59039-1.1292763-5.4752789.7723749-1.8848889 2.6096618-3.1139754 4.6466544-3.1084639h.07c.17.4.32.8.47 1.2.8643475 2.3991489 1.3403315 4.9208514 1.41 7.47.02.27.03.55.03.83z" fill="#7f8e94"/><path id="Shape" d="m50.97 25.67c-.0696685-2.5491486-.5456525-5.0708511-1.41-7.47-.15-.4-.3-.8-.47-1.2h-.07c-.9310626.0027732-1.8427716.2660327-2.632.76.056.147.117.293.172.44.8643475 2.3991489 1.3403315 4.9208514 1.41 7.47.02.27.03.55.03.83v.1c-.1559817.0575872-.3148648.1069878-.476.148.4841085.1604657.9900318.2454609 1.5.252.6788897.0011655 1.3510119-.1348916 1.976-.4v-.1c0-.28-.01-.56-.03-.83z" fill="#545c60"/><path id="Shape" d="m10 26c.0106515 1.3154866-.50173029 2.581321-1.42441847 3.5190122-.92268818.9376913-2.18009428 1.4704218-3.49558153 1.4809878-1.00991072.0051688-1.99484046-.3137943-2.81-.91-.03-.16-.05-.33-.07-.49-.13261747-1.0280196-.1994202-2.0634619-.2-3.1-.00115065-1.5883798.15629697-3.1729059.47-4.73.77714445-.503854 1.68381397-.7713389 2.61-.77 1.31548725.010566 2.57289335.5432965 3.49558153 1.4809878.92268818.9376912 1.43506997 2.2035256 1.42441847 3.5190122z" fill="#7f8e94"/><path id="Shape" d="m18 20c1.6568542 0 3-1.3431458 3-3 0-.5522847-.4477153-1-1-1s-1 .4477153-1 1-.4477153 1-1 1-1-.4477153-1-1-.4477153-1-1-1-1 .4477153-1 1c0 1.6568542 1.3431458 3 3 3z" fill="#000"/><path id="Shape" d="m36 20c1.6568542 0 3-1.3431458 3-3 0-.5522847-.4477153-1-1-1s-1 .4477153-1 1-.4477153 1-1 1-1-.4477153-1-1-.4477153-1-1-1-1 .4477153-1 1c0 1.6568542 1.3431458 3 3 3z" fill="#000"/><path id="Shape" d="m23 25h8c.5522847 0 1-.4477153 1-1v-1c0-2.7614237-2.2385763-5-5-5s-5 2.2385763-5 5v1c0 .5522847.4477153 1 1 1zm4-5c1.6568542 0 3 1.3431458 3 3h-6c0-1.6568542 1.3431458-3 3-3z" fill="#000"/><path id="Shape" d="m21 27c-2.7614237 0-5 2.2385763-5 5s2.2385763 5 5 5 5-2.2385763 5-5c-.0033061-2.7600532-2.2399468-4.9966939-5-5zm0 8c-1.6568542 0-3-1.3431458-3-3s1.3431458-3 3-3 3 1.3431458 3 3-1.3431458 3-3 3z" fill="#000"/><path id="Shape" d="m12 34c-1.6568542 0-3 1.3431458-3 3s1.3431458 3 3 3 3-1.3431458 3-3-1.3431458-3-3-3zm0 4c-.5522847 0-1-.4477153-1-1s.4477153-1 1-1 1 .4477153 1 1-.4477153 1-1 1z" fill="#000"/><path id="Shape" d="m57.448 41.025c.7259397-1.2366235.7343899-2.7672261.0221484-4.0117896s-2.0361938-2.0126559-3.4701484-2.0132104h-.537c.5499826-.947972.6842792-2.0809219.3711637-3.1312031-.3131156-1.0502812-1.0458719-1.9247405-2.0251637-2.4167969.1177747-.9389006.1815463-1.8837887.191-2.83 0-.014 0-.027 0-.041s0-.054 0-.081c0-.3-.011-.611-.03-.856-.0724668-2.6560549-.568718-5.2834861-1.47-7.783-4.3984523-12.24790835-17.3140781-19.2186694-29.9665031-16.1733807-12.65242496 3.04528869-20.98175472 15.1294587-19.3254969 28.0373807.02.159.052.315.075.474 0 .029.008.056.013.084 1.22248982 8.4053591 6.58116907 15.6364023 14.267 19.252.075.037.152.071.23.106l.167.077c2.8833041 1.3246781 5.9952619 2.0801725 9.165 2.225.4340851 1.7894326 2.0336779 3.0513566 3.875 3.057h2.537c-.7144329 1.2374339-.7145379 2.7619908-.0002755 3.9995231s2.0344099 2.0000834 3.4632755 2.0004769h18c2.209139 0 4-1.790861 4-4s-1.790861-4-4-4h-4.537c.7159782-1.2372162.7159782-2.7627838 0-4h8.537c2.1225547.0007897 3.8761437-1.6564376 3.9951917-3.7756512.119048-2.1192137-1.4379027-3.9624123-3.5471917-4.1993488zm-8.83-22.486c.8333846 2.3146277 1.2908398 4.7477491 1.355 7.207v.13c-.3117452.0783502-.6315851.1199663-.953.124-2.1014053.0198504-3.8579934-1.5936433-4.0163454-3.6891679-.158352-2.0955245 1.3358202-3.9546676 3.4163454-4.2508321.066.161.139.316.198.479zm-45.426 10.934c-.12731706-.9858932-.19144796-1.9789201-.192-2.973.00282966-1.3686432.12462137-2.7344503.364-4.082.5310998-.2725276 1.11906346-.4157495 1.716-.418 2.209139 0 4 1.790861 4 4s-1.790861 4-4 4c-.66247421.0004111-1.31310539-.1756218-1.885-.51zm.422 2.327c.47816805.1287634.97081472.195973 1.466.2 3.31370845-.0000001 5.9999999-2.6862916 5.9999999-6s-2.68629145-5.9999999-5.9999999-6c-.40037077.0047371-.79917076.0509845-1.19.138 2.63084711-9.3833031 10.7841076-16.16635828 20.4894579-17.04607913 9.7053504-.87972084 18.9453766 4.32675682 23.2205421 13.08407913-2.957551.710776-4.9140563 3.5238017-4.551363 6.5438619.3626933 3.0200603 2.9296174 5.2898459 5.971363 5.2801381.3104922-.002418.6203641-.028157.927-.077-.022.363-.059.72-.1 1.077h-13.847c-1.4288656.0003935-2.7490131.7629446-3.4632755 2.0004769s-.7141574 2.7620892.0002755 3.9995231h-1.537c-1.4288656.0003935-2.7490131.7629446-3.4632755 2.0004769s-.7141574 2.7620892.0002755 3.9995231h-2.537c-.4469695.0048299-.8898954.0853004-1.31.238-2.3973873-.6283495-4.9465218.1030979-6.646 1.907-1.0204498 1.0820362-1.6933722 2.4449479-1.932 3.913-5.83810763-3.2079061-10.02341536-8.7618656-11.498-15.258zm21.528 18.143c-2.8068192-.1372092-5.5635139-.7961166-8.129-1.943.067172-1.2950751.5903763-2.5246227 1.477-3.471.8019417-.8538899 1.8870353-1.3870181 3.053-1.5-.3506157.5980552-.5378721 1.2777648-.543 1.971 0 2.209139 1.790861 4 4 4h.537c-.1716102.2960693-.3043692.6130104-.395.943zm31.858-2.943h-18c-.5522847 0-1 .4477153-1 1s.4477153 1 1 1h6c1.1045695 0 2 .8954305 2 2s-.8954305 2-2 2c-.5522847 0-1 .4477153-1 1s.4477153 1 1 1h8c1.1045695 0 2 .8954305 2 2s-.8954305 2-2 2h-18c-1.1045695 0-2-.8954305-2-2s.8954305-2 2-2h4c.5522847 0 1-.4477153 1-1s-.4477153-1-1-1h-10c-1.1045695 0-2-.8954305-2-2s.8954305-2 2-2h3c.5522847 0 1-.4477153 1-1s-.4477153-1-1-1h-7c-.9416471-.0042879-1.7527532-.6648517-1.9476062-1.586128-.1948529-.9212763.2793345-1.8536839 1.1386062-2.238872l.032-.018c.2458423-.1039374.5100893-.1573309.777-.157h15c.5522847 0 1-.4477153 1-1s-.4477153-1-1-1h-9c-1.1045695 0-2-.8954305-2-2s.8954305-2 2-2h5c.5522847 0 1-.4477153 1-1s-.4477153-1-1-1c-1.1045695 0-2-.8954305-2-2s.8954305-2 2-2h14c1.1045695 0 2 .8954305 2 2s-.8954305 2-2 2h-8c-.5522847 0-1 .4477153-1 1s.4477153 1 1 1h12c1.1045695 0 2 .8954305 2 2s-.8954305 2-2 2h-3c-.5522847 0-1 .4477153-1 1s.4477153 1 1 1h6c1.1045695 0 2 .8954305 2 2s-.8954305 2-2 2z" fill="#000"/><path id="Shape" d="m46 41h-1c-.5522847 0-1 .4477153-1 1s.4477153 1 1 1h1c.5522847 0 1-.4477153 1-1s-.4477153-1-1-1z" fill="#000"/></g></g></svg>